<svg xmlns="http://www.w3.org/2000/svg" xmlns:xlink="http://www.w3.org/1999/xlink" width="614.4" height="460.8" viewBox="0 0 460.8 345.6"><defs><style>*{stroke-linejoin:round;stroke-linecap:butt}</style></defs><g id="figure_1"><path id="patch_1" d="M0 345.6h460.8V0H0z"/><g id="axes_1"><path id="patch_2" d="M94.43 303.64H450V31.2H94.43z"/><g id="matplotlib.axis_1"><g id="xtick_1"><path id="line2d_1" d="M94.43 303.64V31.2" clip-path="url(#pfe6b3c4650)" style="fill:none;stroke-dasharray:2.96,1.28;stroke-dashoffset:0;stroke:#fff;stroke-opacity:.3;stroke-width:.8"/><g id="line2d_2"><defs><path id="mff5b1d9f04" d="M0 0v3.5" style="stroke:#fff;stroke-width:.8"/></defs><use xlink:href="#mff5b1d9f04" x="94.43" y="303.64" style="fill:#fff;stroke:#fff;stroke-width:.8"/></g><g id="text_1" style="fill:#fff" transform="matrix(.1 0 0 -.1 91.249 318.238)"><defs><path id="DejaVuSans-30" d="M2034 4250q-487 0-733-480-245-479-245-1442 0-959 245-1439 246-480 733-480 491 0 736 480 246 480 246 1439 0 963-246 1442-245 480-736 480m0 500q785 0 1199-621 414-620 414-1801 0-1178-414-1799Q2819-91 2034-91q-784 0-1198 620-414 621-414 1799 0 1181 414 1801 414 621 1198 621" transform="scale(.01563)"/></defs><use xlink:href="#DejaVuSans-30"/></g></g><g id="xtick_2"><path id="line2d_3" d="M145.553 303.64V31.2" clip-path="url(#pfe6b3c4650)" style="fill:none;stroke-dasharray:2.96,1.28;stroke-dashoffset:0;stroke:#fff;stroke-opacity:.3;stroke-width:.8"/><use xlink:href="#mff5b1d9f04" id="line2d_4" x="145.553" y="303.64" style="fill:#fff;stroke:#fff;stroke-width:.8"/><g id="text_2" style="fill:#fff" transform="matrix(.1 0 0 -.1 136.01 318.238)"><defs><path id="DejaVuSans-35" d="M691 4666h2478v-532H1269V2991q137 47 274 70 138 23 276 23 781 0 1237-428 457-428 457-1159 0-753-469-1171Q2575-91 1722-91q-294 0-599 50Q819 9 494 109v635q281-153 581-228t634-75q541 0 856 284 316 284 316 772 0 487-316 771-315 285-856 285-253 0-505-56-251-56-513-175z" transform="scale(.01563)"/></defs><use xlink:href="#DejaVuSans-35"/><use xlink:href="#DejaVuSans-30" transform="translate(63.623)"/><use xlink:href="#DejaVuSans-30" transform="translate(127.246)"/></g></g><g id="xtick_3"><path id="line2d_5" d="M196.676 303.64V31.2" clip-path="url(#pfe6b3c4650)" style="fill:none;stroke-dasharray:2.96,1.28;stroke-dashoffset:0;stroke:#fff;stroke-opacity:.3;stroke-width:.8"/><use xlink:href="#mff5b1d9f04" id="line2d_6" x="196.676" y="303.64" style="fill:#fff;stroke:#fff;stroke-width:.8"/><g id="text_3" style="fill:#fff" transform="matrix(.1 0 0 -.1 183.95 318.238)"><defs><path id="DejaVuSans-31" d="M794 531h1031v3560L703 3866v575l1116 225h631V531h1031V0H794z" transform="scale(.01563)"/></defs><use xlink:href="#DejaVuSans-31"/><use xlink:href="#DejaVuSans-30" transform="translate(63.623)"/><use xlink:href="#DejaVuSans-30" transform="translate(127.246)"/><use xlink:href="#DejaVuSans-30" transform="translate(190.87)"/></g></g><g id="xtick_4"><path id="line2d_7" d="M247.799 303.64V31.2" clip-path="url(#pfe6b3c4650)" style="fill:none;stroke-dasharray:2.96,1.28;stroke-dashoffset:0;stroke:#fff;stroke-opacity:.3;stroke-width:.8"/><use xlink:href="#mff5b1d9f04" id="line2d_8" x="247.799" y="303.64" style="fill:#fff;stroke:#fff;stroke-width:.8"/><g id="text_4" style="fill:#fff" transform="matrix(.1 0 0 -.1 235.074 318.238)"><use xlink:href="#DejaVuSans-31"/><use xlink:href="#DejaVuSans-35" transform="translate(63.623)"/><use xlink:href="#DejaVuSans-30" transform="translate(127.246)"/><use xlink:href="#DejaVuSans-30" transform="translate(190.87)"/></g></g><g id="xtick_5"><path id="line2d_9" d="M298.922 303.64V31.2" clip-path="url(#pfe6b3c4650)" style="fill:none;stroke-dasharray:2.96,1.28;stroke-dashoffset:0;stroke:#fff;stroke-opacity:.3;stroke-width:.8"/><use xlink:href="#mff5b1d9f04" id="line2d_10" x="298.922" y="303.64" style="fill:#fff;stroke:#fff;stroke-width:.8"/><g id="text_5" style="fill:#fff" transform="matrix(.1 0 0 -.1 286.197 318.238)"><defs><path id="DejaVuSans-32" d="M1228 531h2203V0H469v531q359 372 979 998 621 627 780 809 303 340 423 576 121 236 121 464 0 372-261 606-261 235-680 235-297 0-627-103-329-103-704-313v638q381 153 712 231 332 78 607 78 725 0 1156-363 431-362 431-968 0-288-108-546-107-257-392-607-78-91-497-524-418-433-1181-1211" transform="scale(.01563)"/></defs><use xlink:href="#DejaVuSans-32"/><use xlink:href="#DejaVuSans-30" transform="translate(63.623)"/><use xlink:href="#DejaVuSans-30" transform="translate(127.246)"/><use xlink:href="#DejaVuSans-30" transform="translate(190.87)"/></g></g><g id="xtick_6"><path id="line2d_11" d="M350.045 303.64V31.2" clip-path="url(#pfe6b3c4650)" style="fill:none;stroke-dasharray:2.96,1.28;stroke-dashoffset:0;stroke:#fff;stroke-opacity:.3;stroke-width:.8"/><use xlink:href="#mff5b1d9f04" id="line2d_12" x="350.045" y="303.64" style="fill:#fff;stroke:#fff;stroke-width:.8"/><g id="text_6" style="fill:#fff" transform="matrix(.1 0 0 -.1 337.32 318.238)"><use xlink:href="#DejaVuSans-32"/><use xlink:href="#DejaVuSans-35" transform="translate(63.623)"/><use xlink:href="#DejaVuSans-30" transform="translate(127.246)"/><use xlink:href="#DejaVuSans-30" transform="translate(190.87)"/></g></g><g id="xtick_7"><path id="line2d_13" d="M401.167 303.64V31.2" clip-path="url(#pfe6b3c4650)" style="fill:none;stroke-dasharray:2.96,1.28;stroke-dashoffset:0;stroke:#fff;stroke-opacity:.3;stroke-width:.8"/><use xlink:href="#mff5b1d9f04" id="line2d_14" x="401.167" y="303.64" style="fill:#fff;stroke:#fff;stroke-width:.8"/><g id="text_7" style="fill:#fff" transform="matrix(.1 0 0 -.1 388.442 318.238)"><defs><path id="DejaVuSans-33" d="M2597 2516q453-97 707-404 255-306 255-756 0-690-475-1069Q2609-91 1734-91q-293 0-604 58T488 141v609q262-153 574-231 313-78 654-78 593 0 904 234t311 681q0 413-289 645-289 233-804 233h-544v519h569q465 0 712 186t247 536q0 359-255 551-254 193-729 193-260 0-557-57-297-56-653-174v562q360 100 674 150t592 50q719 0 1137-327 419-326 419-882 0-388-222-655t-631-370" transform="scale(.01563)"/></defs><use xlink:href="#DejaVuSans-33"/><use xlink:href="#DejaVuSans-30" transform="translate(63.623)"/><use xlink:href="#DejaVuSans-30" transform="translate(127.246)"/><use xlink:href="#DejaVuSans-30" transform="translate(190.87)"/></g></g><g id="text_8" style="fill:#fff" transform="matrix(.1 0 0 -.1 222.971 331.917)"><defs><path id="DejaVuSans-43" d="M4122 4306v-665q-319 297-680 443-361 147-767 147-800 0-1225-489t-425-1414q0-922 425-1411t1225-489q406 0 767 147t680 444V359q-331-225-702-338-370-112-782-112-1060 0-1670 648-609 649-609 1771 0 1125 609 1773 610 649 1670 649 418 0 788-111 371-111 696-333" transform="scale(.01563)"/><path id="DejaVuSans-61" d="M2194 1759q-697 0-966-159t-269-544q0-306 202-486 202-179 548-179 479 0 768 339t289 901v128zm1147 238V0h-575v531q-197-318-491-470T1556-91q-537 0-855 302-317 302-317 808 0 590 395 890 396 300 1180 300h807v57q0 397-261 614t-733 217q-300 0-585-72-284-72-546-216v532q315 122 612 182 297 61 578 61 760 0 1135-394 375-393 375-1193" transform="scale(.01563)"/><path id="DejaVuSans-6e" d="M3513 2113V0h-575v2094q0 497-194 743-194 247-581 247-466 0-735-297-269-296-269-809V0H581v3500h578v-544q207 316 486 472 280 156 646 156 603 0 912-373 310-373 310-1098" transform="scale(.01563)"/><path id="DejaVuSans-74" d="M1172 4494v-994h1184v-447H1172V1153q0-428 117-550t477-122h590V0h-590q-666 0-919 248-253 249-253 905v1900H172v447h422v994z" transform="scale(.01563)"/><path id="DejaVuSans-69" d="M603 3500h575V0H603zm0 1363h575v-729H603z" transform="scale(.01563)"/><path id="DejaVuSans-64" d="M2906 2969v1894h575V0h-575v525q-181-312-458-464-276-152-664-152-634 0-1033 506-398 507-398 1332t398 1331q399 506 1033 506 388 0 664-152 277-151 458-463M947 1747q0-634 261-995t717-361 718 361q263 361 263 995t-263 995q-262 361-718 361t-717-361-261-995" transform="scale(.01563)"/><path id="DejaVuSans-65" d="M3597 1894v-281H953q38-594 358-905t892-311q331 0 642 81t618 244V178Q3153 47 2828-22t-659-69q-838 0-1327 487-489 488-489 1320 0 859 464 1363 464 505 1252 505 706 0 1117-455 411-454 411-1235m-575 169q-6 471-264 752-258 282-683 282-481 0-770-272t-333-766z" transform="scale(.01563)"/><path id="DejaVuSans-44" d="M1259 4147V519h763q966 0 1414 437 448 438 448 1382 0 937-448 1373t-1414 436zm-631 519h1297q1356 0 1990-564 635-564 635-1764 0-1207-638-1773Q3275 0 1925 0H628z" transform="scale(.01563)"/><path id="DejaVuSans-6c" d="M603 4863h575V0H603z" transform="scale(.01563)"/><path id="DejaVuSans-6f" d="M1959 3097q-462 0-731-361t-269-989 267-989q268-361 733-361 460 0 728 362 269 363 269 988 0 622-269 986-268 364-728 364m0 487q750 0 1178-488 429-487 429-1349 0-859-429-1349Q2709-91 1959-91q-753 0-1180 489-426 490-426 1349 0 862 426 1349 427 488 1180 488" transform="scale(.01563)"/><path id="DejaVuSans-73" d="M2834 3397v-544q-243 125-506 187-262 63-544 63-428 0-642-131t-214-394q0-200 153-314t616-217l197-44q612-131 870-370t258-667q0-488-386-773Q2250-91 1575-91q-281 0-586 55T347 128v594q319-166 628-249 309-82 613-82 406 0 624 139 219 139 219 392 0 234-158 359-157 125-692 241l-200 47q-534 112-772 345-237 233-237 639 0 494 350 762 350 269 994 269 318 0 599-47 282-46 519-140" transform="scale(.01563)"/></defs><use xlink:href="#DejaVuSans-43"/><use xlink:href="#DejaVuSans-61" transform="translate(69.824)"/><use xlink:href="#DejaVuSans-6e" transform="translate(131.104)"/><use xlink:href="#DejaVuSans-74" transform="translate(194.482)"/><use xlink:href="#DejaVuSans-69" transform="translate(233.691)"/><use xlink:href="#DejaVuSans-64" transform="translate(261.475)"/><use xlink:href="#DejaVuSans-61" transform="translate(324.951)"/><use xlink:href="#DejaVuSans-64" transform="translate(386.23)"/><use xlink:href="#DejaVuSans-64" transform="translate(481.494)"/><use xlink:href="#DejaVuSans-65" transform="translate(544.97)"/><use xlink:href="#DejaVuSans-44" transform="translate(638.281)"/><use xlink:href="#DejaVuSans-65" transform="translate(715.283)"/><use xlink:href="#DejaVuSans-6c" transform="translate(776.807)"/><use xlink:href="#DejaVuSans-69" transform="translate(804.59)"/><use xlink:href="#DejaVuSans-74" transform="translate(832.373)"/><use xlink:href="#DejaVuSans-6f" transform="translate(871.582)"/><use xlink:href="#DejaVuSans-73" transform="translate(932.764)"/></g></g><g id="matplotlib.axis_2"><g id="ytick_1"><g id="line2d_15"><defs><path id="m41ce1d6f82" d="M0 0h-3.5" style="stroke:#fff;stroke-width:.8"/></defs><use xlink:href="#m41ce1d6f82" x="94.43" y="37.687" style="fill:#fff;stroke:#fff;stroke-width:.8"/></g><g id="text_9" style="fill:#fff" transform="matrix(.1 0 0 -.1 51.02 41.486)"><defs><path id="DejaVuSans-72" d="M2631 2963q-97 56-211 82-114 27-251 27-488 0-749-317t-261-911V0H581v3500h578v-544q182 319 472 473 291 155 707 155 59 0 131-8 72-7 159-23z" transform="scale(.01563)"/></defs><use xlink:href="#DejaVuSans-43"/><use xlink:href="#DejaVuSans-65" transform="translate(69.824)"/><use xlink:href="#DejaVuSans-6e" transform="translate(131.348)"/><use xlink:href="#DejaVuSans-74" transform="translate(194.727)"/><use xlink:href="#DejaVuSans-72" transform="translate(233.936)"/><use xlink:href="#DejaVuSans-61" transform="translate(275.049)"/><use xlink:href="#DejaVuSans-6c" transform="translate(336.328)"/></g></g><g id="ytick_2"><use xlink:href="#m41ce1d6f82" id="line2d_16" x="94.43" y="50.66" style="fill:#fff;stroke:#fff;stroke-width:.8"/><g id="text_10" style="fill:#fff" transform="matrix(.1 0 0 -.1 35.552 54.46)"><defs><path id="DejaVuSans-48" d="M628 4666h631V2753h2294v1913h631V0h-631v2222H1259V0H628z" transform="scale(.01563)"/><path id="DejaVuSans-79" d="M2059-325q-243-625-475-815-231-191-618-191H506v481h338q237 0 368 113 132 112 291 531l103 262L191 3500h609L1894 763l1094 2737h609z" transform="scale(.01563)"/><path id="DejaVuSans-77" d="M269 3500h575l719-2731 715 2731h678l719-2731 716 2731h575L4050 0h-678l-753 2869L1863 0h-679z" transform="scale(.01563)"/></defs><use xlink:href="#DejaVuSans-48"/><use xlink:href="#DejaVuSans-6f" transform="translate(75.195)"/><use xlink:href="#DejaVuSans-6c" transform="translate(136.377)"/><use xlink:href="#DejaVuSans-6c" transform="translate(164.16)"/><use xlink:href="#DejaVuSans-79" transform="translate(191.943)"/><use xlink:href="#DejaVuSans-77" transform="translate(251.123)"/><use xlink:href="#DejaVuSans-6f" transform="translate(332.91)"/><use xlink:href="#DejaVuSans-6f" transform="translate(394.092)"/><use xlink:href="#DejaVuSans-64" transform="translate(455.273)"/></g></g><g id="ytick_3"><use xlink:href="#m41ce1d6f82" id="line2d_17" x="94.43" y="63.633" style="fill:#fff;stroke:#fff;stroke-width:.8"/><g id="text_11" style="fill:#fff" transform="matrix(.1 0 0 -.1 30.888 67.433)"><defs><path id="DejaVuSans-37" d="M525 4666h3000v-269L1831 0h-659l1594 4134H525z" transform="scale(.01563)"/><path id="DejaVuSans-68" d="M3513 2113V0h-575v2094q0 497-194 743-194 247-581 247-466 0-735-297-269-296-269-809V0H581v4863h578V2956q207 316 486 472 280 156 646 156 603 0 912-373 310-373 310-1098" transform="scale(.01563)"/><path id="DejaVuSans-53" d="M3425 4513v-616q-359 172-678 256-319 85-616 85-515 0-795-200t-280-569q0-310 186-468 186-157 705-254l381-78q706-135 1042-474t336-907q0-679-455-1029Q2797-91 1919-91q-331 0-705 75-373 75-773 222v650q384-215 753-325 369-109 725-109 540 0 834 212 294 213 294 607 0 343-211 537t-692 291l-385 75q-706 140-1022 440-315 300-315 835 0 619 436 975t1201 356q329 0 669-60 341-59 697-177" transform="scale(.01563)"/></defs><use xlink:href="#DejaVuSans-37"/><use xlink:href="#DejaVuSans-37" transform="translate(63.623)"/><use xlink:href="#DejaVuSans-74" transform="translate(127.246)"/><use xlink:href="#DejaVuSans-68" transform="translate(166.455)"/><use xlink:href="#DejaVuSans-53" transform="translate(261.621)"/><use xlink:href="#DejaVuSans-74" transform="translate(325.098)"/><use xlink:href="#DejaVuSans-72" transform="translate(364.307)"/><use xlink:href="#DejaVuSans-65" transform="translate(403.17)"/><use xlink:href="#DejaVuSans-65" transform="translate(464.693)"/><use xlink:href="#DejaVuSans-74" transform="translate(526.217)"/></g></g><g id="ytick_4"><use xlink:href="#m41ce1d6f82" id="line2d_18" x="94.43" y="76.607" style="fill:#fff;stroke:#fff;stroke-width:.8"/><g id="text_12" style="fill:#fff" transform="matrix(.1 0 0 -.1 34.907 80.406)"><defs><path id="DejaVuSans-75" d="M544 1381v2119h575V1403q0-497 193-746 194-248 582-248 465 0 735 297 271 297 271 810v1984h575V0h-575v538q-209-319-486-474-276-155-642-155-603 0-916 375-312 375-312 1097m1447 2203" transform="scale(.01563)"/></defs><use xlink:href="#DejaVuSans-53"/><use xlink:href="#DejaVuSans-6f" transform="translate(63.477)"/><use xlink:href="#DejaVuSans-75" transform="translate(124.658)"/><use xlink:href="#DejaVuSans-74" transform="translate(188.037)"/><use xlink:href="#DejaVuSans-68" transform="translate(227.246)"/><use xlink:href="#DejaVuSans-77" transform="translate(290.625)"/><use xlink:href="#DejaVuSans-65" transform="translate(372.412)"/><use xlink:href="#DejaVuSans-73" transform="translate(433.936)"/><use xlink:href="#DejaVuSans-74" transform="translate(486.035)"/></g></g><g id="ytick_5"><use xlink:href="#m41ce1d6f82" id="line2d_19" x="94.43" y="89.58" style="fill:#fff;stroke:#fff;stroke-width:.8"/><g id="text_13" style="fill:#fff" transform="matrix(.1 0 0 -.1 36.957 93.38)"><use xlink:href="#DejaVuSans-53"/><use xlink:href="#DejaVuSans-6f" transform="translate(63.477)"/><use xlink:href="#DejaVuSans-75" transform="translate(124.658)"/><use xlink:href="#DejaVuSans-74" transform="translate(188.037)"/><use xlink:href="#DejaVuSans-68" transform="translate(227.246)"/><use xlink:href="#DejaVuSans-65" transform="translate(290.625)"/><use xlink:href="#DejaVuSans-61" transform="translate(352.148)"/><use xlink:href="#DejaVuSans-73" transform="translate(413.428)"/><use xlink:href="#DejaVuSans-74" transform="translate(465.527)"/></g></g><g id="ytick_6"><use xlink:href="#m41ce1d6f82" id="line2d_20" x="94.43" y="102.553" style="fill:#fff;stroke:#fff;stroke-width:.8"/><g id="text_14" style="fill:#fff" transform="matrix(.1 0 0 -.1 49.24 106.353)"><defs><path id="DejaVuSans-4e" d="M628 4666h850L3547 763v3903h612V0h-850L1241 3903V0H628z" transform="scale(.01563)"/></defs><use xlink:href="#DejaVuSans-4e"/><use xlink:href="#DejaVuSans-65" transform="translate(74.805)"/><use xlink:href="#DejaVuSans-77" transform="translate(136.328)"/><use xlink:href="#DejaVuSans-74" transform="translate(218.115)"/><use xlink:href="#DejaVuSans-6f" transform="translate(257.324)"/><use xlink:href="#DejaVuSans-6e" transform="translate(318.506)"/></g></g><g id="ytick_7"><use xlink:href="#m41ce1d6f82" id="line2d_21" x="94.43" y="115.527" style="fill:#fff;stroke:#fff;stroke-width:.8"/><g id="text_15" style="fill:#fff" transform="matrix(.1 0 0 -.1 46.496 119.326)"><defs><path id="DejaVuSans-4f" d="M2522 4238q-688 0-1093-513-404-512-404-1397 0-881 404-1394 405-512 1093-512 687 0 1089 512 402 513 402 1394 0 885-402 1397-402 513-1089 513m0 512q981 0 1568-658 588-658 588-1764 0-1103-588-1761Q3503-91 2522-91q-984 0-1574 656-589 657-589 1763t589 1764q590 658 1574 658" transform="scale(.01563)"/><path id="DejaVuSans-6d" d="M3328 2828q216 388 516 572t706 184q547 0 844-383 297-382 297-1088V0h-578v2094q0 503-179 746-178 244-543 244-447 0-707-297-259-296-259-809V0h-578v2094q0 506-178 748t-550 242q-441 0-701-298-259-298-259-808V0H581v3500h578v-544q197 322 472 475t653 153q382 0 649-194 267-193 395-562" transform="scale(.01563)"/><path id="DejaVuSans-70" d="M1159 525v-1856H581v4831h578v-531q182 312 458 463 277 152 661 152 638 0 1036-506 399-506 399-1331T3314 415Q2916-91 2278-91q-384 0-661 152-276 152-458 464m1957 1222q0 634-261 995t-717 361q-457 0-718-361t-261-995 261-995 718-361q456 0 717 361t261 995" transform="scale(.01563)"/><path id="DejaVuSans-63" d="M3122 3366v-538q-244 135-489 202t-495 67q-560 0-870-355-309-354-309-995t309-996q310-354 870-354 250 0 495 67t489 202V134Q2881 22 2623-34q-257-57-548-57-791 0-1257 497-465 497-465 1341 0 856 470 1346 471 491 1290 491 265 0 518-55 253-54 491-163" transform="scale(.01563)"/></defs><use xlink:href="#DejaVuSans-4f"/><use xlink:href="#DejaVuSans-6c" transform="translate(78.71)"/><use xlink:href="#DejaVuSans-79" transform="translate(106.494)"/><use xlink:href="#DejaVuSans-6d" transform="translate(165.674)"/><use xlink:href="#DejaVuSans-70" transform="translate(263.086)"/><use xlink:href="#DejaVuSans-69" transform="translate(326.563)"/><use xlink:href="#DejaVuSans-63" transform="translate(354.346)"/></g></g><g id="ytick_8"><use xlink:href="#m41ce1d6f82" id="line2d_22" x="94.43" y="128.5" style="fill:#fff;stroke:#fff;stroke-width:.8"/><g id="text_16" style="fill:#fff" transform="matrix(.1 0 0 -.1 55.649 132.3)"><defs><path id="DejaVuSans-50" d="M1259 4147V2394h794q441 0 681 228 241 228 241 650 0 419-241 647-240 228-681 228zm-631 519h1425q785 0 1186-355 402-355 402-1039 0-691-402-1044-401-353-1186-353h-794V0H628z" transform="scale(.01563)"/><path id="DejaVuSans-66" d="M2375 4863v-479h-550q-309 0-430-125-120-125-120-450v-309h947v-447h-947V0H697v3053H147v447h550v244q0 584 272 851 272 268 862 268z" transform="scale(.01563)"/></defs><use xlink:href="#DejaVuSans-50"/><use xlink:href="#DejaVuSans-61" transform="translate(55.803)"/><use xlink:href="#DejaVuSans-63" transform="translate(117.082)"/><use xlink:href="#DejaVuSans-69" transform="translate(172.063)"/><use xlink:href="#DejaVuSans-66" transform="translate(199.846)"/><use xlink:href="#DejaVuSans-69" transform="translate(235.05)"/><use xlink:href="#DejaVuSans-63" transform="translate(262.834)"/></g></g><g id="ytick_9"><use xlink:href="#m41ce1d6f82" id="line2d_23" x="94.43" y="141.473" style="fill:#fff;stroke:#fff;stroke-width:.8"/><g id="text_17" style="fill:#fff" transform="matrix(.1 0 0 -.1 44.33 145.273)"><defs><path id="DejaVuSans-52" d="M2841 2188q203-69 395-294t386-619L4263 0h-679l-596 1197q-232 469-449 622t-592 153h-688V0H628v4666h1425q800 0 1194-335 394-334 394-1009 0-441-205-732-205-290-595-402M1259 4147V2491h794q456 0 689 211t233 620-233 617-689 208z" transform="scale(.01563)"/></defs><use xlink:href="#DejaVuSans-52"/><use xlink:href="#DejaVuSans-61" transform="translate(67.232)"/><use xlink:href="#DejaVuSans-6d" transform="translate(128.512)"/><use xlink:href="#DejaVuSans-70" transform="translate(225.924)"/><use xlink:href="#DejaVuSans-61" transform="translate(289.4)"/><use xlink:href="#DejaVuSans-72" transform="translate(350.68)"/><use xlink:href="#DejaVuSans-74" transform="translate(391.793)"/></g></g><g id="ytick_10"><use xlink:href="#m41ce1d6f82" id="line2d_24" x="94.43" y="154.447" style="fill:#fff;stroke:#fff;stroke-width:.8"/><g id="text_18" style="fill:#fff" transform="matrix(.1 0 0 -.1 24.892 158.246)"><use xlink:href="#DejaVuSans-4e"/><use xlink:href="#DejaVuSans-48" transform="translate(106.592)"/><use xlink:href="#DejaVuSans-6f" transform="translate(181.787)"/><use xlink:href="#DejaVuSans-6c" transform="translate(242.969)"/><use xlink:href="#DejaVuSans-6c" transform="translate(270.752)"/><use xlink:href="#DejaVuSans-79" transform="translate(298.535)"/><use xlink:href="#DejaVuSans-77" transform="translate(357.715)"/><use xlink:href="#DejaVuSans-6f" transform="translate(439.502)"/><use xlink:href="#DejaVuSans-6f" transform="translate(500.684)"/><use xlink:href="#DejaVuSans-64" transform="translate(561.865)"/></g></g><g id="ytick_11"><use xlink:href="#m41ce1d6f82" id="line2d_25" x="94.43" y="167.42" style="fill:#fff;stroke:#fff;stroke-width:.8"/><g id="text_19" style="fill:#fff" transform="matrix(.1 0 0 -.1 47.847 171.22)"><defs><path id="DejaVuSans-57" d="M213 4666h637l981-3944 978 3944h710l981-3944 978 3944h641L4947 0h-794l-984 4050L2175 0h-794z" transform="scale(.01563)"/></defs><use xlink:href="#DejaVuSans-57"/><use xlink:href="#DejaVuSans-69" transform="translate(96.627)"/><use xlink:href="#DejaVuSans-6c" transform="translate(124.41)"/><use xlink:href="#DejaVuSans-73" transform="translate(152.193)"/><use xlink:href="#DejaVuSans-68" transform="translate(204.293)"/><use xlink:href="#DejaVuSans-69" transform="translate(267.672)"/><use xlink:href="#DejaVuSans-72" transform="translate(295.455)"/><use xlink:href="#DejaVuSans-65" transform="translate(334.318)"/></g></g><g id="ytick_12"><use xlink:href="#m41ce1d6f82" id="line2d_26" x="94.43" y="180.393" style="fill:#fff;stroke:#fff;stroke-width:.8"/><g id="text_20" style="fill:#fff" transform="matrix(.1 0 0 -.1 38.05 184.193)"><use xlink:href="#DejaVuSans-4e"/><use xlink:href="#DejaVuSans-6f" transform="translate(74.805)"/><use xlink:href="#DejaVuSans-72" transform="translate(135.986)"/><use xlink:href="#DejaVuSans-74" transform="translate(177.1)"/><use xlink:href="#DejaVuSans-68" transform="translate(216.309)"/><use xlink:href="#DejaVuSans-65" transform="translate(279.688)"/><use xlink:href="#DejaVuSans-61" transform="translate(341.21)"/><use xlink:href="#DejaVuSans-73" transform="translate(402.49)"/><use xlink:href="#DejaVuSans-74" transform="translate(454.59)"/></g></g><g id="ytick_13"><use xlink:href="#m41ce1d6f82" id="line2d_27" x="94.43" y="193.367" style="fill:#fff;stroke:#fff;stroke-width:.8"/><g id="text_21" style="fill:#fff" transform="matrix(.1 0 0 -.1 40.774 197.166)"><defs><path id="DejaVuSans-56" d="M1831 0 50 4666h659L2188 738l1481 3928h656L2547 0z" transform="scale(.01563)"/></defs><use xlink:href="#DejaVuSans-56"/><use xlink:href="#DejaVuSans-61" transform="translate(60.658)"/><use xlink:href="#DejaVuSans-6e" transform="translate(121.938)"/><use xlink:href="#DejaVuSans-4e" transform="translate(217.104)"/><use xlink:href="#DejaVuSans-75" transform="translate(291.908)"/><use xlink:href="#DejaVuSans-79" transform="translate(355.287)"/><use xlink:href="#DejaVuSans-73" transform="translate(414.467)"/></g></g><g id="ytick_14"><use xlink:href="#m41ce1d6f82" id="line2d_28" x="94.43" y="206.34" style="fill:#fff;stroke:#fff;stroke-width:.8"/><g id="text_22" style="fill:#fff" transform="matrix(.1 0 0 -.1 29.847 210.14)"><use xlink:href="#DejaVuSans-57"/><use xlink:href="#DejaVuSans-65" transform="translate(93.002)"/><use xlink:href="#DejaVuSans-73" transform="translate(154.525)"/><use xlink:href="#DejaVuSans-74" transform="translate(206.625)"/><use xlink:href="#DejaVuSans-56" transform="translate(277.621)"/><use xlink:href="#DejaVuSans-61" transform="translate(338.28)"/><use xlink:href="#DejaVuSans-6c" transform="translate(399.559)"/><use xlink:href="#DejaVuSans-6c" transform="translate(427.342)"/><use xlink:href="#DejaVuSans-65" transform="translate(455.125)"/><use xlink:href="#DejaVuSans-79" transform="translate(516.648)"/></g></g><g id="ytick_15"><use xlink:href="#m41ce1d6f82" id="line2d_29" x="94.43" y="219.313" style="fill:#fff;stroke:#fff;stroke-width:.8"/><g id="text_23" style="fill:#fff" transform="matrix(.1 0 0 -.1 45.613 223.113)"><defs><path id="DejaVuSans-54" d="M-19 4666h3947v-532H2272V0h-634v4134H-19z" transform="scale(.01563)"/><path id="DejaVuSans-67" d="M2906 1791q0 625-258 968-257 344-723 344-462 0-720-344-258-343-258-968 0-622 258-966t720-344q466 0 723 344 258 344 258 966m575-1357q0-893-397-1329-396-436-1215-436-303 0-572 45t-522 139v559q253-137 500-202 247-66 503-66 566 0 847 295t281 892v285q-178-310-456-463T1784 0Q1141 0 747 490 353 981 353 1791q0 812 394 1302 394 491 1037 491 388 0 666-153t456-462v531h575z" transform="scale(.01563)"/></defs><use xlink:href="#DejaVuSans-54"/><use xlink:href="#DejaVuSans-6f" transform="translate(44.084)"/><use xlink:href="#DejaVuSans-70" transform="translate(105.266)"/><use xlink:href="#DejaVuSans-61" transform="translate(168.742)"/><use xlink:href="#DejaVuSans-6e" transform="translate(230.021)"/><use xlink:href="#DejaVuSans-67" transform="translate(293.4)"/><use xlink:href="#DejaVuSans-61" transform="translate(356.877)"/></g></g><g id="ytick_16"><use xlink:href="#m41ce1d6f82" id="line2d_30" x="94.43" y="232.287" style="fill:#fff;stroke:#fff;stroke-width:.8"/><g id="text_24" style="fill:#fff" transform="matrix(.1 0 0 -.1 50.37 236.086)"><defs><path id="DejaVuSans-4d" d="M628 4666h941l1190-3175 1197 3175h941V0h-616v4097L3078 897h-634L1241 4097V0H628z" transform="scale(.01563)"/></defs><use xlink:href="#DejaVuSans-4d"/><use xlink:href="#DejaVuSans-69" transform="translate(86.28)"/><use xlink:href="#DejaVuSans-73" transform="translate(114.063)"/><use xlink:href="#DejaVuSans-73" transform="translate(166.162)"/><use xlink:href="#DejaVuSans-69" transform="translate(218.262)"/><use xlink:href="#DejaVuSans-6f" transform="translate(246.045)"/><use xlink:href="#DejaVuSans-6e" transform="translate(307.227)"/></g></g><g id="ytick_17"><use xlink:href="#m41ce1d6f82" id="line2d_31" x="94.43" y="245.26" style="fill:#fff;stroke:#fff;stroke-width:.8"/><g id="text_25" style="fill:#fff" transform="matrix(.1 0 0 -.1 53.093 249.06)"><defs><path id="DejaVuSans-62" d="M3116 1747q0 634-261 995t-717 361q-457 0-718-361t-261-995 261-995 718-361q456 0 717 361t261 995M1159 2969q182 312 458 463 277 152 661 152 638 0 1036-506 399-506 399-1331T3314 415Q2916-91 2278-91q-384 0-661 152-276 152-458 464V0H581v4863h578z" transform="scale(.01563)"/></defs><use xlink:href="#DejaVuSans-48"/><use xlink:href="#DejaVuSans-61" transform="translate(75.195)"/><use xlink:href="#DejaVuSans-72" transform="translate(136.475)"/><use xlink:href="#DejaVuSans-62" transform="translate(177.588)"/><use xlink:href="#DejaVuSans-6f" transform="translate(241.064)"/><use xlink:href="#DejaVuSans-72" transform="translate(302.246)"/></g></g><g id="ytick_18"><use xlink:href="#m41ce1d6f82" id="line2d_32" x="94.43" y="258.233" style="fill:#fff;stroke:#fff;stroke-width:.8"/><g id="text_26" style="fill:#fff" transform="matrix(.1 0 0 -.1 47.032 262.033)"><defs><path id="DejaVuSans-4c" d="M628 4666h631V531h2272V0H628z" transform="scale(.01563)"/><path id="DejaVuSans-41" d="m2188 4044-857-2322h1716zm-357 622h716L4325 0h-656l-425 1197H1141L716 0H50z" transform="scale(.01563)"/></defs><use xlink:href="#DejaVuSans-57"/><use xlink:href="#DejaVuSans-65" transform="translate(93.002)"/><use xlink:href="#DejaVuSans-73" transform="translate(154.525)"/><use xlink:href="#DejaVuSans-74" transform="translate(206.625)"/><use xlink:href="#DejaVuSans-4c" transform="translate(277.621)"/><use xlink:href="#DejaVuSans-41" transform="translate(335.584)"/></g></g><g id="ytick_19"><use xlink:href="#m41ce1d6f82" id="line2d_33" x="94.43" y="271.207" style="fill:#fff;stroke:#fff;stroke-width:.8"/><g id="text_27" style="fill:#fff" transform="matrix(.1 0 0 -.1 30.838 275.006)"><defs><path id="DejaVuSans-76" d="M191 3500h609L1894 563l1094 2937h609L2284 0h-781z" transform="scale(.01563)"/></defs><use xlink:href="#DejaVuSans-44"/><use xlink:href="#DejaVuSans-65" transform="translate(77.002)"/><use xlink:href="#DejaVuSans-76" transform="translate(138.525)"/><use xlink:href="#DejaVuSans-6f" transform="translate(197.705)"/><use xlink:href="#DejaVuSans-6e" transform="translate(258.887)"/><use xlink:href="#DejaVuSans-73" transform="translate(322.266)"/><use xlink:href="#DejaVuSans-68" transform="translate(374.365)"/><use xlink:href="#DejaVuSans-69" transform="translate(437.744)"/><use xlink:href="#DejaVuSans-72" transform="translate(465.527)"/><use xlink:href="#DejaVuSans-65" transform="translate(504.39)"/></g></g><g id="ytick_20"><use xlink:href="#m41ce1d6f82" id="line2d_34" x="94.43" y="284.18" style="fill:#fff;stroke:#fff;stroke-width:.8"/><g id="text_28" style="fill:#fff" transform="matrix(.1 0 0 -.1 31.953 287.98)"><defs><path id="DejaVuSans-6b" d="M581 4863h578V1991l1716 1509h734L1753 1863 3688 0h-750L1159 1709V0H581z" transform="scale(.01563)"/></defs><use xlink:href="#DejaVuSans-48"/><use xlink:href="#DejaVuSans-6f" transform="translate(75.195)"/><use xlink:href="#DejaVuSans-6c" transform="translate(136.377)"/><use xlink:href="#DejaVuSans-6c" transform="translate(164.16)"/><use xlink:href="#DejaVuSans-65" transform="translate(191.943)"/><use xlink:href="#DejaVuSans-6e" transform="translate(253.467)"/><use xlink:href="#DejaVuSans-62" transform="translate(316.846)"/><use xlink:href="#DejaVuSans-65" transform="translate(380.322)"/><use xlink:href="#DejaVuSans-63" transform="translate(441.846)"/><use xlink:href="#DejaVuSans-6b" transform="translate(496.826)"/></g></g><g id="ytick_21"><use xlink:href="#m41ce1d6f82" id="line2d_35" x="94.43" y="297.153" style="fill:#fff;stroke:#fff;stroke-width:.8"/><g id="text_29" style="fill:#fff" transform="matrix(.1 0 0 -.1 51.211 300.953)"><defs><path id="DejaVuSans-46" d="M628 4666h2681v-532H1259V2759h1850v-531H1259V0H628z" transform="scale(.01563)"/></defs><use xlink:href="#DejaVuSans-46"/><use xlink:href="#DejaVuSans-6f" transform="translate(53.895)"/><use xlink:href="#DejaVuSans-6f" transform="translate(115.076)"/><use xlink:href="#DejaVuSans-74" transform="translate(176.258)"/><use xlink:href="#DejaVuSans-68" transform="translate(215.467)"/><use xlink:href="#DejaVuSans-69" transform="translate(278.846)"/><use xlink:href="#DejaVuSans-6c" transform="translate(306.629)"/><use xlink:href="#DejaVuSans-6c" transform="translate(334.412)"/></g></g><g id="text_30" style="fill:#fff" transform="matrix(0 -.1 -.1 0 18.813 178.924)"><defs><path id="DejaVuSans-c1" d="m2188 4044-857-2322h1716zm-357 622h716L4325 0h-656l-425 1197H1141L716 0H50zm525 1255h578l-712-825h-479z" transform="scale(.01563)"/></defs><use xlink:href="#DejaVuSans-c1"/><use xlink:href="#DejaVuSans-72" transform="translate(68.408)"/><use xlink:href="#DejaVuSans-65" transform="translate(107.271)"/><use xlink:href="#DejaVuSans-61" transform="translate(168.795)"/></g></g><path id="patch_3" d="M94.43 32.497h338.638v10.379H94.43z" clip-path="url(#pfe6b3c4650)" style="fill:#111128"/><path id="patch_4" d="M94.43 45.47h275.961v10.38H94.43z" clip-path="url(#pfe6b3c4650)" style="fill:#242454"/><path id="patch_5" d="M94.43 58.444h261.545v10.379H94.43z" clip-path="url(#pfe6b3c4650)" style="fill:#343278"/><path id="patch_6" d="M94.43 71.417H334.4v10.379H94.43z" clip-path="url(#pfe6b3c4650)" style="fill:#42358d"/><path id="patch_7" d="M94.43 84.39h226.781v10.38H94.43z" clip-path="url(#pfe6b3c4650)" style="fill:#4f38a2"/><path id="patch_8" d="M94.43 97.364h219.01v10.379H94.43z" clip-path="url(#pfe6b3c4650)" style="fill:#5e3aa3"/><path id="patch_9" d="M94.43 110.337h218.5v10.379H94.43z" clip-path="url(#pfe6b3c4650)" style="fill:#723b8f"/><path id="patch_10" d="M94.43 123.31h195.903v10.38H94.43z" clip-path="url(#pfe6b3c4650)" style="fill:#873e7c"/><path id="patch_11" d="M94.43 136.284h190.177v10.379H94.43z" clip-path="url(#pfe6b3c4650)" style="fill:#a4466b"/><path id="patch_12" d="M94.43 149.257h189.666v10.379H94.43z" clip-path="url(#pfe6b3c4650)" style="fill:#c64f58"/><path id="patch_13" d="M94.43 162.23h175.454v10.38H94.43z" clip-path="url(#pfe6b3c4650)" style="fill:#e35541"/><path id="patch_14" d="M94.43 175.204h172.182v10.379H94.43z" clip-path="url(#pfe6b3c4650)" style="fill:#da6334"/><path id="patch_15" d="M94.43 188.177h166.558v10.379H94.43z" clip-path="url(#pfe6b3c4650)" style="fill:#d07226"/><path id="patch_16" d="M94.43 201.15h155.414v10.38H94.43z" clip-path="url(#pfe6b3c4650)" style="fill:#c9811f"/><path id="patch_17" d="M94.43 214.124h149.381v10.379H94.43z" clip-path="url(#pfe6b3c4650)" style="fill:#ca9427"/><path id="patch_18" d="M94.43 227.097h148.563v10.379H94.43z" clip-path="url(#pfe6b3c4650)" style="fill:#cba72f"/><path id="patch_19" d="M94.43 240.07h141.508v10.38H94.43z" clip-path="url(#pfe6b3c4650)" style="fill:#ceb743"/><path id="patch_20" d="M94.43 253.044h139.975v10.379H94.43z" clip-path="url(#pfe6b3c4650)" style="fill:#d3c665"/><path id="patch_21" d="M94.43 266.017h137.827v10.379H94.43z" clip-path="url(#pfe6b3c4650)" style="fill:#d8d686"/><path id="patch_22" d="M94.43 278.99h134.453v10.38H94.43z" clip-path="url(#pfe6b3c4650)" style="fill:#e3e3ac"/><path id="patch_23" d="M94.43 291.964h128.83v10.379H94.43z" clip-path="url(#pfe6b3c4650)" style="fill:#f2f2d7"/><path id="patch_24" d="M94.43 303.64V31.2" style="fill:none;stroke:#fff;stroke-width:.8;stroke-linejoin:miter;stroke-linecap:square"/><path id="patch_25" d="M450 303.64V31.2" style="fill:none;stroke:#fff;stroke-width:.8;stroke-linejoin:miter;stroke-linecap:square"/><path id="patch_26" d="M94.43 303.64H450" style="fill:none;stroke:#fff;stroke-width:.8;stroke-linejoin:miter;stroke-linecap:square"/><path id="patch_27" d="M94.43 31.2H450" style="fill:none;stroke:#fff;stroke-width:.8;stroke-linejoin:miter;stroke-linecap:square"/><g id="text_31" style="fill:#fff" transform="matrix(.1 0 0 -.1 351.271 40.446)"><defs><path id="DejaVuSans-Bold-33" d="M2981 2516q472-122 717-424 246-301 246-767 0-694-532-1055Q2881-91 1863-91q-360 0-721 58T428 141v928q338-169 670-255 333-86 655-86 478 0 733 165 255 166 255 476 0 319-261 483t-771 164h-481v775h506q454 0 675 142 222 142 222 433 0 268-216 415-215 147-609 147-290 0-587-66-297-65-591-193v881q356 100 706 150t688 50q909 0 1360-299 452-298 452-898 0-409-216-670-215-261-637-367" transform="scale(.01563)"/><path id="DejaVuSans-Bold-31" d="M750 831h1063v3016L722 3622v819l1084 225h1144V831h1063V0H750z" transform="scale(.01563)"/><path id="DejaVuSans-Bold-32" d="M1844 884h2053V0H506v884l1703 1504q229 206 338 403t109 409q0 328-220 528t-586 200q-281 0-616-120-334-120-715-358v1025q406 134 803 204 397 71 778 71 838 0 1302-369 464-368 464-1028 0-381-197-711-197-329-828-883z" transform="scale(.01563)"/></defs><use xlink:href="#DejaVuSans-Bold-33"/><use xlink:href="#DejaVuSans-Bold-33" transform="translate(69.58)"/><use xlink:href="#DejaVuSans-Bold-31" transform="translate(139.16)"/><use xlink:href="#DejaVuSans-Bold-32" transform="translate(208.74)"/></g><g id="text_32" transform="matrix(.1 0 0 -.1 288.595 53.42)"><defs><path id="DejaVuSans-Bold-36" d="M2316 2303q-316 0-474-205-158-204-158-614 0-409 158-614 158-204 474-204 318 0 476 204 158 205 158 614 0 410-158 614-158 205-476 205m1487 2241v-863q-297 141-560 208-262 67-512 67-537 0-837-299-300-298-350-885 206 153 446 229 241 77 526 77 715 0 1154-419 439-418 439-1096 0-750-491-1202Q3128-91 2303-91q-909 0-1408 614-498 615-498 1743 0 1156 583 1817t1598 661q322 0 625-50t600-150" transform="scale(.01563)"/><path id="DejaVuSans-Bold-39" d="M641 103v863q287-135 549-202 263-67 519-67 538 0 838 298 300 299 353 886-212-156-453-234t-522-78q-716 0-1155 417T331 3084q0 754 489 1207t1311 453q913 0 1413-616 500-615 500-1740 0-1157-585-1818Q2875-91 1856-91q-328 0-628 49Q928 6 641 103m1484 2247q316 0 475 204 159 205 159 615 0 406-159 612-159 207-475 207t-475-207q-159-206-159-612 0-410 159-615 159-204 475-204" transform="scale(.01563)"/></defs><use xlink:href="#DejaVuSans-Bold-32"/><use xlink:href="#DejaVuSans-Bold-36" transform="translate(69.58)"/><use xlink:href="#DejaVuSans-Bold-39" transform="translate(139.16)"/><use xlink:href="#DejaVuSans-Bold-39" transform="translate(208.74)"/></g><g id="text_33" transform="matrix(.1 0 0 -.1 274.178 66.393)"><defs><path id="DejaVuSans-Bold-35" d="M678 4666h2991v-885H1638v-722q137 38 276 58 139 21 289 21 853 0 1328-427t475-1189q0-756-517-1185Q2972-91 2053-91q-397 0-786 77T494 219v947q381-219 723-329 342-109 646-109 437 0 688 214 252 214 252 580 0 369-252 581-251 213-688 213-260 0-554-68-293-67-631-207z" transform="scale(.01563)"/><path id="DejaVuSans-Bold-38" d="M2228 2088q-337 0-519-185-181-184-181-528t181-527q182-182 519-182 335 0 513 182 178 183 178 527 0 347-178 530t-513 183m-878 396q-425 129-641 394-215 266-215 663 0 590 440 899 441 310 1294 310 847 0 1287-308 441-308 441-901 0-397-217-663-217-265-642-394 475-131 717-426t242-745q0-694-461-1049T2228-91q-909 0-1373 355T391 1313q0 450 242 745t717 426m281 935q0-278 155-428t442-150q281 0 434 150 154 150 154 428t-154 426q-153 149-434 149-287 0-442-150t-155-425" transform="scale(.01563)"/></defs><use xlink:href="#DejaVuSans-Bold-32"/><use xlink:href="#DejaVuSans-Bold-35" transform="translate(69.58)"/><use xlink:href="#DejaVuSans-Bold-35" transform="translate(139.16)"/><use xlink:href="#DejaVuSans-Bold-38" transform="translate(208.74)"/></g><g id="text_34" transform="matrix(.1 0 0 -.1 252.604 79.366)"><defs><path id="DejaVuSans-Bold-34" d="M2356 3675 1038 1722h1318zm-200 991h1338V1722h665V850h-665V0H2356v850H288v1031z" transform="scale(.01563)"/><path id="DejaVuSans-Bold-37" d="M428 4666h3516v-678L2125 0H953l1722 3781H428z" transform="scale(.01563)"/></defs><use xlink:href="#DejaVuSans-Bold-32"/><use xlink:href="#DejaVuSans-Bold-33" transform="translate(69.58)"/><use xlink:href="#DejaVuSans-Bold-34" transform="translate(139.16)"/><use xlink:href="#DejaVuSans-Bold-37" transform="translate(208.74)"/></g><g id="text_35" transform="matrix(.1 0 0 -.1 239.415 92.34)"><use xlink:href="#DejaVuSans-Bold-32"/><use xlink:href="#DejaVuSans-Bold-32" transform="translate(69.58)"/><use xlink:href="#DejaVuSans-Bold-31" transform="translate(139.16)"/><use xlink:href="#DejaVuSans-Bold-38" transform="translate(208.74)"/></g><g id="text_36" transform="matrix(.1 0 0 -.1 231.644 105.313)"><use xlink:href="#DejaVuSans-Bold-32"/><use xlink:href="#DejaVuSans-Bold-31" transform="translate(69.58)"/><use xlink:href="#DejaVuSans-Bold-34" transform="translate(139.16)"/><use xlink:href="#DejaVuSans-Bold-32" transform="translate(208.74)"/></g><g id="text_37" transform="matrix(.1 0 0 -.1 231.133 118.286)"><use xlink:href="#DejaVuSans-Bold-32"/><use xlink:href="#DejaVuSans-Bold-31" transform="translate(69.58)"/><use xlink:href="#DejaVuSans-Bold-33" transform="translate(139.16)"/><use xlink:href="#DejaVuSans-Bold-37" transform="translate(208.74)"/></g><g id="text_38" transform="matrix(.1 0 0 -.1 208.536 131.26)"><use xlink:href="#DejaVuSans-Bold-31"/><use xlink:href="#DejaVuSans-Bold-39" transform="translate(69.58)"/><use xlink:href="#DejaVuSans-Bold-31" transform="translate(139.16)"/><use xlink:href="#DejaVuSans-Bold-36" transform="translate(208.74)"/></g><g id="text_39" transform="matrix(.1 0 0 -.1 202.81 144.233)"><defs><path id="DejaVuSans-Bold-30" d="M2944 2338q0 875-164 1232-164 358-552 358-387 0-553-358-166-357-166-1232 0-885 166-1248 166-362 553-362 385 0 550 362 166 363 166 1248m1203-10q0-1159-500-1789T2228-91q-922 0-1422 630T306 2328q0 1163 500 1792 500 630 1422 630 919 0 1419-630 500-629 500-1792" transform="scale(.01563)"/></defs><use xlink:href="#DejaVuSans-Bold-31"/><use xlink:href="#DejaVuSans-Bold-38" transform="translate(69.58)"/><use xlink:href="#DejaVuSans-Bold-36" transform="translate(139.16)"/><use xlink:href="#DejaVuSans-Bold-30" transform="translate(208.74)"/></g><g id="text_40" transform="matrix(.1 0 0 -.1 202.3 157.206)"><use xlink:href="#DejaVuSans-Bold-31"/><use xlink:href="#DejaVuSans-Bold-38" transform="translate(69.58)"/><use xlink:href="#DejaVuSans-Bold-35" transform="translate(139.16)"/><use xlink:href="#DejaVuSans-Bold-35" transform="translate(208.74)"/></g><g id="text_41" transform="matrix(.1 0 0 -.1 188.087 170.18)"><use xlink:href="#DejaVuSans-Bold-31"/><use xlink:href="#DejaVuSans-Bold-37" transform="translate(69.58)"/><use xlink:href="#DejaVuSans-Bold-31" transform="translate(139.16)"/><use xlink:href="#DejaVuSans-Bold-36" transform="translate(208.74)"/></g><g id="text_42" transform="matrix(.1 0 0 -.1 184.815 183.153)"><use xlink:href="#DejaVuSans-Bold-31"/><use xlink:href="#DejaVuSans-Bold-36" transform="translate(69.58)"/><use xlink:href="#DejaVuSans-Bold-38" transform="translate(139.16)"/><use xlink:href="#DejaVuSans-Bold-34" transform="translate(208.74)"/></g><g id="text_43" transform="matrix(.1 0 0 -.1 179.192 196.126)"><use xlink:href="#DejaVuSans-Bold-31"/><use xlink:href="#DejaVuSans-Bold-36" transform="translate(69.58)"/><use xlink:href="#DejaVuSans-Bold-32" transform="translate(139.16)"/><use xlink:href="#DejaVuSans-Bold-39" transform="translate(208.74)"/></g><g id="text_44" transform="matrix(.1 0 0 -.1 168.047 209.1)"><use xlink:href="#DejaVuSans-Bold-31"/><use xlink:href="#DejaVuSans-Bold-35" transform="translate(69.58)"/><use xlink:href="#DejaVuSans-Bold-32" transform="translate(139.16)"/><use xlink:href="#DejaVuSans-Bold-30" transform="translate(208.74)"/></g><g id="text_45" transform="matrix(.1 0 0 -.1 162.014 222.073)"><use xlink:href="#DejaVuSans-Bold-31"/><use xlink:href="#DejaVuSans-Bold-34" transform="translate(69.58)"/><use xlink:href="#DejaVuSans-Bold-36" transform="translate(139.16)"/><use xlink:href="#DejaVuSans-Bold-31" transform="translate(208.74)"/></g><g id="text_46" transform="matrix(.1 0 0 -.1 161.197 235.046)"><use xlink:href="#DejaVuSans-Bold-31"/><use xlink:href="#DejaVuSans-Bold-34" transform="translate(69.58)"/><use xlink:href="#DejaVuSans-Bold-35" transform="translate(139.16)"/><use xlink:href="#DejaVuSans-Bold-33" transform="translate(208.74)"/></g><g id="text_47" transform="matrix(.1 0 0 -.1 154.142 248.02)"><use xlink:href="#DejaVuSans-Bold-31"/><use xlink:href="#DejaVuSans-Bold-33" transform="translate(69.58)"/><use xlink:href="#DejaVuSans-Bold-38" transform="translate(139.16)"/><use xlink:href="#DejaVuSans-Bold-34" transform="translate(208.74)"/></g><g id="text_48" transform="matrix(.1 0 0 -.1 152.608 260.993)"><use xlink:href="#DejaVuSans-Bold-31"/><use xlink:href="#DejaVuSans-Bold-33" transform="translate(69.58)"/><use xlink:href="#DejaVuSans-Bold-36" transform="translate(139.16)"/><use xlink:href="#DejaVuSans-Bold-39" transform="translate(208.74)"/></g><g id="text_49" transform="matrix(.1 0 0 -.1 150.46 273.966)"><use xlink:href="#DejaVuSans-Bold-31"/><use xlink:href="#DejaVuSans-Bold-33" transform="translate(69.58)"/><use xlink:href="#DejaVuSans-Bold-34" transform="translate(139.16)"/><use xlink:href="#DejaVuSans-Bold-38" transform="translate(208.74)"/></g><g id="text_50" transform="matrix(.1 0 0 -.1 147.087 286.94)"><use xlink:href="#DejaVuSans-Bold-31"/><use xlink:href="#DejaVuSans-Bold-33" transform="translate(69.58)"/><use xlink:href="#DejaVuSans-Bold-31" transform="translate(139.16)"/><use xlink:href="#DejaVuSans-Bold-35" transform="translate(208.74)"/></g><g id="text_51" transform="matrix(.1 0 0 -.1 141.463 299.913)"><use xlink:href="#DejaVuSans-Bold-31"/><use xlink:href="#DejaVuSans-Bold-32" transform="translate(69.58)"/><use xlink:href="#DejaVuSans-Bold-36" transform="translate(139.16)"/><use xlink:href="#DejaVuSans-Bold-30" transform="translate(208.74)"/></g><g id="text_52" style="fill:#fff" transform="matrix(.15 0 0 -.15 91.856 25.2)"><defs><path id="DejaVuSans-Bold-44" d="M1791 3756V909h431q737 0 1126 366 390 366 390 1063 0 693-388 1055-387 363-1128 363zM588 4666h1268q1063 0 1583-152 520-151 892-514 328-316 487-729 160-412 160-933 0-529-160-943-159-414-487-729-375-363-900-515Q2906 0 1856 0H588z" transform="scale(.01563)"/><path id="DejaVuSans-Bold-65" d="M4031 1759v-318H1416q40-394 284-591t681-197q353 0 723 105 371 105 762 317V213Q3469 63 3072-14t-794-77q-950 0-1477 483-526 483-526 1355 0 856 517 1346 517 491 1424 491 825 0 1320-497 495-496 495-1328m-1150 372q0 319-186 514-186 196-486 196-325 0-528-183t-253-527z" transform="scale(.01563)"/><path id="DejaVuSans-Bold-6c" d="M538 4863h1118V0H538z" transform="scale(.01563)"/><path id="DejaVuSans-Bold-69" d="M538 3500h1118V0H538zm0 1363h1118v-913H538z" transform="scale(.01563)"/><path id="DejaVuSans-Bold-74" d="M1759 4494v-994h1154v-800H1759V1216q0-244 97-330t385-86h575V0h-960q-662 0-939 276-276 277-276 940v1484H84v800h557v994z" transform="scale(.01563)"/><path id="DejaVuSans-Bold-6f" d="M2203 2784q-372 0-567-267t-195-770 195-771q195-267 567-267 366 0 559 267 194 268 194 771t-194 770q-193 267-559 267m0 800q903 0 1411-488 508-487 508-1349 0-863-508-1351Q3106-91 2203-91q-906 0-1417 487-511 488-511 1351 0 862 511 1349 511 488 1417 488" transform="scale(.01563)"/><path id="DejaVuSans-Bold-73" d="M3272 3391v-850q-359 150-694 225-334 75-631 75-319 0-474-80-154-80-154-245 0-135 117-207 117-71 420-106l197-28q860-109 1156-359 297-250 297-785 0-559-413-841Q2681-91 1863-91q-347 0-718 55-370 55-761 164v850q335-162 686-244 352-81 714-81 329 0 494 90 166 91 166 270 0 150-114 223t-455 114l-197 25q-747 94-1047 347t-300 769q0 556 381 824 382 269 1169 269 310 0 650-47 341-46 741-146" transform="scale(.01563)"/><path id="DejaVuSans-Bold-4e" d="M588 4666h1343l1697-3200v3200h1141V0H3425L1728 3200V0H588z" transform="scale(.01563)"/><path id="DejaVuSans-Bold-63" d="M3366 3391v-913q-228 156-458 231t-477 75q-468 0-729-273t-261-764 261-765q261-273 729-273 263 0 499 78 236 79 436 232V103Q3103 6 2833-42q-270-49-542-49-947 0-1482 486-534 486-534 1352t534 1351q535 486 1482 486 275 0 542-48t533-145" transform="scale(.01563)"/><path id="DejaVuSans-Bold-75" d="M500 1363v2137h1125v-350q0-284-3-714t-3-573q0-422 22-608t75-271q68-109 179-169 111-59 255-59 350 0 550 269t200 747v1728h1119V0H2900v506q-253-306-536-452-283-145-623-145-607 0-924 372T500 1363" transform="scale(.01563)"/><path id="DejaVuSans-Bold-72" d="M3138 2547q-147 69-293 101-145 33-292 33-431 0-664-277-233-276-233-791V0H538v3500h1118v-575q216 344 495 501 280 158 671 158 56 0 121-5 66-4 191-20z" transform="scale(.01563)"/><path id="DejaVuSans-Bold-6e" d="M4056 2131V0H2931v1631q0 453-20 625t-70 253q-66 110-179 171-112 61-256 61-350 0-550-271-200-270-200-748V0H538v3500h1118v-512q253 306 537 451 285 145 629 145 606 0 920-372 314-371 314-1081" transform="scale(.01563)"/><path id="DejaVuSans-Bold-70" d="M1656 506v-1837H538v4831h1118v-512q232 306 513 451t647 145q647 0 1062-514 416-514 416-1323T3878 423Q3463-91 2816-91q-366 0-647 145-281 146-513 452m744 2266q-359 0-552-264-192-264-192-761t192-761q193-264 552-264t548 262q190 263 190 763t-190 762q-189 263-548 263" transform="scale(.01563)"/><path id="DejaVuSans-Bold-c1" d="M3419 850H1538L1241 0H31l1728 4666h1435L4922 0H3713zm-1581 866h1278l-638 1856zm721 4205h885l-891-825h-612z" transform="scale(.01563)"/><path id="DejaVuSans-Bold-61" d="M2106 1575q-350 0-527-119-176-118-176-350 0-212 142-333 143-120 396-120 315 0 531 226 216 227 216 568v128zm1710 422V0H2688v519q-225-319-507-465-281-145-684-145-544 0-883 317-339 318-339 824 0 616 423 903 424 288 1330 288h660v87q0 266-210 389-209 124-653 124-359 0-669-72-309-72-575-216v853q360 88 722 133 363 45 725 45 947 0 1367-373 421-373 421-1214" transform="scale(.01563)"/><path id="DejaVuSans-Bold-28" d="M2413-844h-929Q1006-72 778 623q-228 696-228 1380 0 685 229 1386 230 702 705 1467h929q-400-740-600-1448t-200-1399q0-690 198-1400 198-709 602-1453" transform="scale(.01563)"/><path id="DejaVuSans-Bold-3a" d="M716 3500h1128V2291H716zm0-2291h1128V0H716z" transform="scale(.01563)"/><path id="DejaVuSans-Bold-2d" d="M347 2297h1962v-909H347z" transform="scale(.01563)"/><path id="DejaVuSans-Bold-29" d="M513-844q400 744 600 1453 200 710 200 1400 0 691-200 1399T513 4856h928q475-765 704-1467 230-701 230-1386 0-684-228-1380-228-695-706-1467z" transform="scale(.01563)"/></defs><use xlink:href="#DejaVuSans-Bold-44"/><use xlink:href="#DejaVuSans-Bold-65" transform="translate(83.008)"/><use xlink:href="#DejaVuSans-Bold-6c" transform="translate(150.83)"/><use xlink:href="#DejaVuSans-Bold-69" transform="translate(185.107)"/><use xlink:href="#DejaVuSans-Bold-74" transform="translate(219.385)"/><use xlink:href="#DejaVuSans-Bold-6f" transform="translate(267.188)"/><use xlink:href="#DejaVuSans-Bold-73" transform="translate(335.889)"/><use xlink:href="#DejaVuSans-Bold-4e" transform="translate(430.225)"/><use xlink:href="#DejaVuSans-Bold-6f" transform="translate(513.916)"/><use xlink:href="#DejaVuSans-Bold-63" transform="translate(582.617)"/><use xlink:href="#DejaVuSans-Bold-74" transform="translate(641.895)"/><use xlink:href="#DejaVuSans-Bold-75" transform="translate(689.697)"/><use xlink:href="#DejaVuSans-Bold-72" transform="translate(760.889)"/><use xlink:href="#DejaVuSans-Bold-6e" transform="translate(810.205)"/><use xlink:href="#DejaVuSans-Bold-6f" transform="translate(881.396)"/><use xlink:href="#DejaVuSans-Bold-73" transform="translate(950.098)"/><use xlink:href="#DejaVuSans-Bold-70" transform="translate(1044.434)"/><use xlink:href="#DejaVuSans-Bold-6f" transform="translate(1116.016)"/><use xlink:href="#DejaVuSans-Bold-72" transform="translate(1184.717)"/><use xlink:href="#DejaVuSans-Bold-c1" transform="translate(1268.848)"/><use xlink:href="#DejaVuSans-Bold-72" transform="translate(1346.24)"/><use xlink:href="#DejaVuSans-Bold-65" transform="translate(1395.557)"/><use xlink:href="#DejaVuSans-Bold-61" transform="translate(1463.379)"/><use xlink:href="#DejaVuSans-Bold-28" transform="translate(1565.674)"/><use xlink:href="#DejaVuSans-Bold-32" transform="translate(1611.377)"/><use xlink:href="#DejaVuSans-Bold-32" transform="translate(1680.957)"/><use xlink:href="#DejaVuSans-Bold-3a" transform="translate(1750.537)"/><use xlink:href="#DejaVuSans-Bold-30" transform="translate(1790.527)"/><use xlink:href="#DejaVuSans-Bold-30" transform="translate(1860.107)"/><use xlink:href="#DejaVuSans-Bold-2d" transform="translate(1964.502)"/><use xlink:href="#DejaVuSans-Bold-30" transform="translate(2040.82)"/><use xlink:href="#DejaVuSans-Bold-33" transform="translate(2110.4)"/><use xlink:href="#DejaVuSans-Bold-3a" transform="translate(2179.98)"/><use xlink:href="#DejaVuSans-Bold-35" transform="translate(2219.97)"/><use xlink:href="#DejaVuSans-Bold-39" transform="translate(2289.55)"/><use xlink:href="#DejaVuSans-Bold-29" transform="translate(2359.13)"/></g></g></g><defs><clipPath id="pfe6b3c4650"><path d="M94.43 31.2H450v272.44H94.43z"/></clipPath></defs></svg>