<svg xmlns="http://www.w3.org/2000/svg" xmlns:xlink="http://www.w3.org/1999/xlink" width="614.4" height="460.8" viewBox="0 0 460.8 345.6"><defs><style>*{stroke-linejoin:round;stroke-linecap:butt}</style></defs><g id="figure_1"><path id="patch_1" d="M0 345.6h460.8V0H0z"/><g id="axes_1"><path id="patch_2" d="M130.947 104.372a126.5 126.5 0 0 0-11.275 15.742L227.87 185.7z" style="fill:#040228;opacity:.5;stroke:#040228;stroke-linejoin:miter"/><path id="patch_3" d="M119.672 120.114a126.53 126.53 0 0 0-7.727 116.276L227.87 185.7z" style="fill:#190131;opacity:.5;stroke:#190131;stroke-linejoin:miter"/><path id="patch_4" d="M107.54 248.251a126.53 126.53 0 0 0 121.736 75.7 126.5 126.5 0 0 0 48.932-12.321l-54.742-114.07z" style="fill:#290332;opacity:.5;stroke:#290332;stroke-linejoin:miter"/><path id="patch_5" d="M282.613 299.769a126.56 126.56 0 0 0 61.284-63.61 126.56 126.56 0 0 0 4.737-88.202L227.87 185.7z" style="fill:#370f2a;opacity:.5;stroke:#370f2a;stroke-linejoin:miter"/><path id="patch_6" d="M348.634 147.957a126.53 126.53 0 0 0-82.332-82.803L227.87 185.7z" style="fill:#421b1f;opacity:.5;stroke:#421b1f;stroke-linejoin:miter"/><path id="patch_7" d="M266.302 65.154a126.53 126.53 0 0 0-84.625 2.756L227.87 185.7z" style="fill:#492816;opacity:.5;stroke:#492816;stroke-linejoin:miter"/><path id="patch_8" d="M181.677 67.91a126.5 126.5 0 0 0-50.73 36.462L227.87 185.7z" style="fill:#4c380d;opacity:.5;stroke:#4c380d;stroke-linejoin:miter"/><path id="patch_9" d="M133.478 101.841a126.5 126.5 0 0 0-11.275 15.743L230.4 183.17z" style="fill:#0d0887"/><path id="patch_10" d="M122.203 117.584a126.53 126.53 0 0 0-7.728 116.276l115.926-50.69z" style="fill:#5302a3"/><path id="patch_11" d="M110.07 245.721a126.53 126.53 0 0 0 121.736 75.7 126.5 126.5 0 0 0 48.932-12.322L225.996 195.03z" style="fill:#8a09a5"/><path id="patch_12" d="M285.143 297.238a126.56 126.56 0 0 0 61.285-63.61 126.56 126.56 0 0 0 4.736-88.202L230.401 183.17z" style="fill:#b7318a"/><path id="patch_13" d="M351.164 145.426a126.53 126.53 0 0 0-82.331-82.802L230.4 183.17z" style="fill:#da5b69"/><path id="patch_14" d="M268.833 62.624a126.53 126.53 0 0 0-84.626 2.756l46.194 117.79z" style="fill:#f3874a"/><path id="patch_15" d="M184.207 65.38a126.5 126.5 0 0 0-50.73 36.461l96.924 81.329z" style="fill:#feba2c"/><g id="text_1" style="fill:#fff" transform="matrix(.12 0 0 -.12 90.018 105.44)"><defs><path id="DejaVuSans-30" d="M2034 4250q-487 0-733-480-245-479-245-1442 0-959 245-1439 246-480 733-480 491 0 736 480 246 480 246 1439 0 963-246 1442-245 480-736 480m0 500q785 0 1199-621 414-620 414-1801 0-1178-414-1799Q2819-91 2034-91q-784 0-1198 620-414 621-414 1799 0 1181 414 1801 414 621 1198 621" transform="scale(.01563)"/><path id="DejaVuSans-2d" d="M313 2009h1684v-512H313z" transform="scale(.01563)"/><path id="DejaVuSans-31" d="M794 531h1031v3560L703 3866v575l1116 225h631V531h1031V0H794z" transform="scale(.01563)"/><path id="DejaVuSans-37" d="M525 4666h3000v-269L1831 0h-659l1594 4134H525z" transform="scale(.01563)"/></defs><use xlink:href="#DejaVuSans-30"/><use xlink:href="#DejaVuSans-2d" transform="translate(63.623)"/><use xlink:href="#DejaVuSans-31" transform="translate(99.707)"/><use xlink:href="#DejaVuSans-37" transform="translate(163.33)"/></g><g id="text_2" transform="matrix(.07 0 0 -.07 143.547 129.846)"><defs><path id="DejaVuSans-Bold-32" d="M1844 884h2053V0H506v884l1703 1504q229 206 338 403t109 409q0 328-220 528t-586 200q-281 0-616-120-334-120-715-358v1025q406 134 803 204 397 71 778 71 838 0 1302-369 464-368 464-1028 0-381-197-711-197-329-828-883z" transform="scale(.01563)"/><path id="DejaVuSans-Bold-2e" d="M653 1209h1125V0H653z" transform="scale(.01563)"/><path id="DejaVuSans-Bold-34" d="M2356 3675 1038 1722h1318zm-200 991h1338V1722h665V850h-665V0H2356v850H288v1031z" transform="scale(.01563)"/><path id="DejaVuSans-Bold-25" d="M4959 1925q-221 0-343-192t-122-549q0-359 120-551t345-192 344 192 119 551q0 357-121 549-120 192-342 192m0 525q582 0 916-338 334-337 334-928 0-590-334-933-334-342-916-342-581 0-917 342-336 343-336 933 0 588 336 927t917 339M2094-91h-691l2916 4841h694zm-641 4841q581 0 914-339t333-930q0-590-333-931t-914-341-914 341-333 931q0 591 333 930t914 339m0-525q-225 0-347-194-122-193-122-550 0-359 122-555 122-195 347-195t345 195q121 196 121 555 0 357-122 550-122 194-344 194" transform="scale(.01563)"/></defs><use xlink:href="#DejaVuSans-Bold-32"/><use xlink:href="#DejaVuSans-Bold-2e" transform="translate(69.58)"/><use xlink:href="#DejaVuSans-Bold-34" transform="translate(107.568)"/><use xlink:href="#DejaVuSans-Bold-25" transform="translate(177.148)"/></g><g id="text_3" style="fill:#fff" transform="matrix(.12 0 0 -.12 56.661 177.252)"><defs><path id="DejaVuSans-38" d="M2034 2216q-450 0-708-241-257-241-257-662 0-422 257-663 258-241 708-241t709 242q260 243 260 662 0 421-258 662-257 241-711 241m-631 268q-406 100-633 378-226 279-226 679 0 559 398 884 399 325 1092 325 697 0 1094-325t397-884q0-400-227-679-226-278-629-378 456-106 710-416 255-309 255-755 0-679-414-1042Q2806-91 2034-91q-771 0-1186 362-414 363-414 1042 0 446 256 755 257 310 713 416m-231 997q0-362 226-565 227-203 636-203 407 0 636 203 230 203 230 565 0 363-230 566-229 203-636 203-409 0-636-203-226-203-226-566" transform="scale(.01563)"/><path id="DejaVuSans-32" d="M1228 531h2203V0H469v531q359 372 979 998 621 627 780 809 303 340 423 576 121 236 121 464 0 372-261 606-261 235-680 235-297 0-627-103-329-103-704-313v638q381 153 712 231 332 78 607 78 725 0 1156-363 431-362 431-968 0-288-108-546-107-257-392-607-78-91-497-524-418-433-1181-1211" transform="scale(.01563)"/><path id="DejaVuSans-35" d="M691 4666h2478v-532H1269V2991q137 47 274 70 138 23 276 23 781 0 1237-428 457-428 457-1159 0-753-469-1171Q2575-91 1722-91q-294 0-599 50Q819 9 494 109v635q281-153 581-228t634-75q541 0 856 284 316 284 316 772 0 487-316 771-315 285-856 285-253 0-505-56-251-56-513-175z" transform="scale(.01563)"/></defs><use xlink:href="#DejaVuSans-31"/><use xlink:href="#DejaVuSans-38" transform="translate(63.623)"/><use xlink:href="#DejaVuSans-2d" transform="translate(127.246)"/><use xlink:href="#DejaVuSans-32" transform="translate(163.33)"/><use xlink:href="#DejaVuSans-35" transform="translate(226.953)"/></g><g id="text_4" transform="matrix(.07 0 0 -.07 123.575 178.808)"><defs><path id="DejaVuSans-Bold-31" d="M750 831h1063v3016L722 3622v819l1084 225h1144V831h1063V0H750z" transform="scale(.01563)"/><path id="DejaVuSans-Bold-35" d="M678 4666h2991v-885H1638v-722q137 38 276 58 139 21 289 21 853 0 1328-427t475-1189q0-756-517-1185Q2972-91 2053-91q-397 0-786 77T494 219v947q381-219 723-329 342-109 646-109 437 0 688 214 252 214 252 580 0 369-252 581-251 213-688 213-260 0-554-68-293-67-631-207z" transform="scale(.01563)"/></defs><use xlink:href="#DejaVuSans-Bold-31"/><use xlink:href="#DejaVuSans-Bold-35" transform="translate(69.58)"/><use xlink:href="#DejaVuSans-Bold-2e" transform="translate(139.16)"/><use xlink:href="#DejaVuSans-Bold-32" transform="translate(177.148)"/><use xlink:href="#DejaVuSans-Bold-25" transform="translate(246.729)"/></g><g id="text_5" style="fill:#fff" transform="matrix(.12 0 0 -.12 142.676 328.812)"><defs><path id="DejaVuSans-36" d="M2113 2584q-425 0-674-291-248-290-248-796 0-503 248-796 249-292 674-292t673 292q248 293 248 796 0 506-248 796-248 291-673 291m1253 1979v-575q-238 112-480 171-242 60-480 60-625 0-955-422-329-422-376-1275 184 272 462 417 279 145 613 145 703 0 1111-427 408-426 408-1160 0-719-425-1154Q2819-91 2113-91q-810 0-1238 620-428 621-428 1799 0 1106 525 1764t1409 658q238 0 480-47t505-140" transform="scale(.01563)"/><path id="DejaVuSans-33" d="M2597 2516q453-97 707-404 255-306 255-756 0-690-475-1069Q2609-91 1734-91q-293 0-604 58T488 141v609q262-153 574-231 313-78 654-78 593 0 904 234t311 681q0 413-289 645-289 233-804 233h-544v519h569q465 0 712 186t247 536q0 359-255 551-254 193-729 193-260 0-557-57-297-56-653-174v562q360 100 674 150t592 50q719 0 1137-327 419-326 419-882 0-388-222-655t-631-370" transform="scale(.01563)"/><path id="DejaVuSans-34" d="M2419 4116 825 1625h1594zm-166 550h794V1625h666v-525h-666V0h-628v1100H313v609z" transform="scale(.01563)"/></defs><use xlink:href="#DejaVuSans-32"/><use xlink:href="#DejaVuSans-36" transform="translate(63.623)"/><use xlink:href="#DejaVuSans-2d" transform="translate(127.246)"/><use xlink:href="#DejaVuSans-33" transform="translate(163.33)"/><use xlink:href="#DejaVuSans-34" transform="translate(226.953)"/></g><g id="text_6" transform="matrix(.07 0 0 -.07 180.82 285.92)"><defs><path id="DejaVuSans-Bold-36" d="M2316 2303q-316 0-474-205-158-204-158-614 0-409 158-614 158-204 474-204 318 0 476 204 158 205 158 614 0 410-158 614-158 205-476 205m1487 2241v-863q-297 141-560 208-262 67-512 67-537 0-837-299-300-298-350-885 206 153 446 229 241 77 526 77 715 0 1154-419 439-418 439-1096 0-750-491-1202Q3128-91 2303-91q-909 0-1408 614-498 615-498 1743 0 1156 583 1817t1598 661q322 0 625-50t600-150" transform="scale(.01563)"/></defs><use xlink:href="#DejaVuSans-Bold-32"/><use xlink:href="#DejaVuSans-Bold-35" transform="translate(69.58)"/><use xlink:href="#DejaVuSans-Bold-2e" transform="translate(139.16)"/><use xlink:href="#DejaVuSans-Bold-36" transform="translate(177.148)"/><use xlink:href="#DejaVuSans-Bold-25" transform="translate(246.729)"/></g><g id="text_7" style="fill:#fff" transform="matrix(.12 0 0 -.12 358.03 241.986)"><use xlink:href="#DejaVuSans-33"/><use xlink:href="#DejaVuSans-35" transform="translate(63.623)"/><use xlink:href="#DejaVuSans-2d" transform="translate(127.246)"/><use xlink:href="#DejaVuSans-34" transform="translate(163.33)"/><use xlink:href="#DejaVuSans-34" transform="translate(226.953)"/></g><g id="text_8" transform="matrix(.07 0 0 -.07 305.279 222.945)"><defs><path id="DejaVuSans-Bold-37" d="M428 4666h3516v-678L2125 0H953l1722 3781H428z" transform="scale(.01563)"/></defs><use xlink:href="#DejaVuSans-Bold-32"/><use xlink:href="#DejaVuSans-Bold-32" transform="translate(69.58)"/><use xlink:href="#DejaVuSans-Bold-2e" transform="translate(139.16)"/><use xlink:href="#DejaVuSans-Bold-37" transform="translate(177.148)"/><use xlink:href="#DejaVuSans-Bold-25" transform="translate(246.729)"/></g><g id="text_9" style="fill:#fff" transform="matrix(.12 0 0 -.12 329.094 88.35)"><use xlink:href="#DejaVuSans-34"/><use xlink:href="#DejaVuSans-35" transform="translate(63.623)"/><use xlink:href="#DejaVuSans-2d" transform="translate(127.246)"/><use xlink:href="#DejaVuSans-35" transform="translate(163.33)"/><use xlink:href="#DejaVuSans-34" transform="translate(226.953)"/></g><g id="text_10" transform="matrix(.07 0 0 -.07 285.55 118.193)"><defs><path id="DejaVuSans-Bold-33" d="M2981 2516q472-122 717-424 246-301 246-767 0-694-532-1055Q2881-91 1863-91q-360 0-721 58T428 141v928q338-169 670-255 333-86 655-86 478 0 733 165 255 166 255 476 0 319-261 483t-771 164h-481v775h506q454 0 675 142 222 142 222 433 0 268-216 415-215 147-609 147-290 0-587-66-297-65-591-193v881q356 100 706 150t688 50q909 0 1360-299 452-298 452-898 0-409-216-670-215-261-637-367" transform="scale(.01563)"/></defs><use xlink:href="#DejaVuSans-Bold-31"/><use xlink:href="#DejaVuSans-Bold-35" transform="translate(69.58)"/><use xlink:href="#DejaVuSans-Bold-2e" transform="translate(139.16)"/><use xlink:href="#DejaVuSans-Bold-33" transform="translate(177.148)"/><use xlink:href="#DejaVuSans-Bold-25" transform="translate(246.729)"/></g><g id="text_11" style="fill:#fff" transform="matrix(.12 0 0 -.12 191.001 47.378)"><use xlink:href="#DejaVuSans-35"/><use xlink:href="#DejaVuSans-35" transform="translate(63.623)"/><use xlink:href="#DejaVuSans-2d" transform="translate(127.246)"/><use xlink:href="#DejaVuSans-36" transform="translate(163.33)"/><use xlink:href="#DejaVuSans-34" transform="translate(226.953)"/></g><g id="text_12" transform="matrix(.07 0 0 -.07 215.17 90.258)"><defs><path id="DejaVuSans-Bold-30" d="M2944 2338q0 875-164 1232-164 358-552 358-387 0-553-358-166-357-166-1232 0-885 166-1248 166-362 553-362 385 0 550 362 166 363 166 1248m1203-10q0-1159-500-1789T2228-91q-922 0-1422 630T306 2328q0 1163 500 1792 500 630 1422 630 919 0 1419-630 500-629 500-1792" transform="scale(.01563)"/><path id="DejaVuSans-Bold-39" d="M641 103v863q287-135 549-202 263-67 519-67 538 0 838 298 300 299 353 886-212-156-453-234t-522-78q-716 0-1155 417T331 3084q0 754 489 1207t1311 453q913 0 1413-616 500-615 500-1740 0-1157-585-1818Q2875-91 1856-91q-328 0-628 49Q928 6 641 103m1484 2247q316 0 475 204 159 205 159 615 0 406-159 612-159 207-475 207t-475-207q-159-206-159-612 0-410 159-615 159-204 475-204" transform="scale(.01563)"/></defs><use xlink:href="#DejaVuSans-Bold-31"/><use xlink:href="#DejaVuSans-Bold-30" transform="translate(69.58)"/><use xlink:href="#DejaVuSans-Bold-2e" transform="translate(139.16)"/><use xlink:href="#DejaVuSans-Bold-39" transform="translate(177.148)"/><use xlink:href="#DejaVuSans-Bold-25" transform="translate(246.729)"/></g><g id="text_13" style="fill:#fff" transform="matrix(.12 0 0 -.12 123.847 73.468)"><defs><path id="DejaVuSans-2b" d="M2944 4013V2272h1740v-531H2944V0h-525v1741H678v531h1741v1741z" transform="scale(.01563)"/></defs><use xlink:href="#DejaVuSans-36"/><use xlink:href="#DejaVuSans-35" transform="translate(63.623)"/><use xlink:href="#DejaVuSans-2b" transform="translate(127.246)"/></g><g id="text_14" transform="matrix(.07 0 0 -.07 165.31 108.047)"><use xlink:href="#DejaVuSans-Bold-37"/><use xlink:href="#DejaVuSans-Bold-2e" transform="translate(69.58)"/><use xlink:href="#DejaVuSans-Bold-39" transform="translate(107.568)"/><use xlink:href="#DejaVuSans-Bold-25" transform="translate(177.148)"/></g><g id="text_15" style="fill:#fff" transform="matrix(.16 0 0 -.16 40.085 23.4)"><defs><path id="DejaVuSans-Bold-44" d="M1791 3756V909h431q737 0 1126 366 390 366 390 1063 0 693-388 1055-387 363-1128 363zM588 4666h1268q1063 0 1583-152 520-151 892-514 328-316 487-729 160-412 160-933 0-529-160-943-159-414-487-729-375-363-900-515Q2906 0 1856 0H588z" transform="scale(.01563)"/><path id="DejaVuSans-Bold-69" d="M538 3500h1118V0H538zm0 1363h1118v-913H538z" transform="scale(.01563)"/><path id="DejaVuSans-Bold-73" d="M3272 3391v-850q-359 150-694 225-334 75-631 75-319 0-474-80-154-80-154-245 0-135 117-207 117-71 420-106l197-28q860-109 1156-359 297-250 297-785 0-559-413-841Q2681-91 1863-91q-347 0-718 55-370 55-761 164v850q335-162 686-244 352-81 714-81 329 0 494 90 166 91 166 270 0 150-114 223t-455 114l-197 25q-747 94-1047 347t-300 769q0 556 381 824 382 269 1169 269 310 0 650-47 341-46 741-146" transform="scale(.01563)"/><path id="DejaVuSans-Bold-74" d="M1759 4494v-994h1154v-800H1759V1216q0-244 97-330t385-86h575V0h-960q-662 0-939 276-276 277-276 940v1484H84v800h557v994z" transform="scale(.01563)"/><path id="DejaVuSans-Bold-72" d="M3138 2547q-147 69-293 101-145 33-292 33-431 0-664-277-233-276-233-791V0H538v3500h1118v-575q216 344 495 501 280 158 671 158 56 0 121-5 66-4 191-20z" transform="scale(.01563)"/><path id="DejaVuSans-Bold-62" d="M2400 722q359 0 548 262 190 263 190 763t-190 762q-189 263-548 263t-552-264q-192-264-192-761t192-761q193-264 552-264m-744 2266q232 306 513 451t647 145q647 0 1062-514 416-514 416-1323T3878 423Q3463-91 2816-91q-366 0-647 145-281 146-513 452V0H538v4863h1118z" transform="scale(.01563)"/><path id="DejaVuSans-Bold-75" d="M500 1363v2137h1125v-350q0-284-3-714t-3-573q0-422 22-608t75-271q68-109 179-169 111-59 255-59 350 0 550 269t200 747v1728h1119V0H2900v506q-253-306-536-452-283-145-623-145-607 0-924 372T500 1363" transform="scale(.01563)"/><path id="DejaVuSans-Bold-63" d="M3366 3391v-913q-228 156-458 231t-477 75q-468 0-729-273t-261-764 261-765q261-273 729-273 263 0 499 78 236 79 436 232V103Q3103 6 2833-42q-270-49-542-49-947 0-1482 486-534 486-534 1352t534 1351q535 486 1482 486 275 0 542-48t533-145" transform="scale(.01563)"/><path id="DejaVuSans-Bold-f3" d="M2203 2784q-372 0-567-267t-195-770 195-771q195-267 567-267 366 0 559 267 194 268 194 771t-194 770q-193 267-559 267m0 800q903 0 1411-488 508-487 508-1349 0-863-508-1351Q3106-91 2203-91q-906 0-1417 487-511 488-511 1351 0 862 511 1349 511 488 1417 488m491 1535h884L2425 3944h-612z" transform="scale(.01563)"/><path id="DejaVuSans-Bold-6e" d="M4056 2131V0H2931v1631q0 453-20 625t-70 253q-66 110-179 171-112 61-256 61-350 0-550-271-200-270-200-748V0H538v3500h1118v-512q253 306 537 451 285 145 629 145 606 0 920-372 314-371 314-1081" transform="scale(.01563)"/><path id="DejaVuSans-Bold-64" d="M2919 2988v1875h1125V0H2919v506q-231-309-510-453-278-144-643-144-647 0-1063 514-415 515-415 1324t415 1323q416 514 1063 514 362 0 642-145t511-451M2181 722q360 0 549 262 189 263 189 763t-189 762q-189 263-549 263-356 0-545-263-189-262-189-762t189-763q189-262 545-262" transform="scale(.01563)"/><path id="DejaVuSans-Bold-65" d="M4031 1759v-318H1416q40-394 284-591t681-197q353 0 723 105 371 105 762 317V213Q3469 63 3072-14t-794-77q-950 0-1477 483-526 483-526 1355 0 856 517 1346 517 491 1424 491 825 0 1320-497 495-496 495-1328m-1150 372q0 319-186 514-186 196-486 196-325 0-528-183t-253-527z" transform="scale(.01563)"/><path id="DejaVuSans-Bold-6c" d="M538 4863h1118V0H538z" transform="scale(.01563)"/><path id="DejaVuSans-Bold-6f" d="M2203 2784q-372 0-567-267t-195-770 195-771q195-267 567-267 366 0 559 267 194 268 194 771t-194 770q-193 267-559 267m0 800q903 0 1411-488 508-487 508-1349 0-863-508-1351Q3106-91 2203-91q-906 0-1417 487-511 488-511 1351 0 862 511 1349 511 488 1417 488" transform="scale(.01563)"/><path id="DejaVuSans-Bold-70" d="M1656 506v-1837H538v4831h1118v-512q232 306 513 451t647 145q647 0 1062-514 416-514 416-1323T3878 423Q3463-91 2816-91q-366 0-647 145-281 146-513 452m744 2266q-359 0-552-264-192-264-192-761t192-761q193-264 552-264t548 262q190 263 190 763t-190 762q-189 263-548 263" transform="scale(.01563)"/><path id="DejaVuSans-Bold-47" d="M4781 347q-450-219-934-329Q3363-91 2847-91q-1166 0-1847 652T319 2328q0 1128 693 1775 694 647 1901 647 465 0 891-88 427-87 805-259v-965q-390 221-776 330-386 110-774 110-718 0-1107-402-389-401-389-1148 0-740 375-1144 375-403 1065-403 188 0 349 23 161 24 289 74v906h-735v807h1875z" transform="scale(.01563)"/><path id="DejaVuSans-Bold-45" d="M588 4666h3246v-910H1791v-868h1922v-910H1791V909h2112V0H588z" transform="scale(.01563)"/><path id="DejaVuSans-Bold-61" d="M2106 1575q-350 0-527-119-176-118-176-350 0-212 142-333 143-120 396-120 315 0 531 226 216 227 216 568v128zm1710 422V0H2688v519q-225-319-507-465-281-145-684-145-544 0-883 317-339 318-339 824 0 616 423 903 424 288 1330 288h660v87q0 266-210 389-209 124-653 124-359 0-669-72-309-72-575-216v853q360 88 722 133 363 45 725 45 947 0 1367-373 421-373 421-1214" transform="scale(.01563)"/></defs><use xlink:href="#DejaVuSans-Bold-44"/><use xlink:href="#DejaVuSans-Bold-69" transform="translate(83.008)"/><use xlink:href="#DejaVuSans-Bold-73" transform="translate(117.285)"/><use xlink:href="#DejaVuSans-Bold-74" transform="translate(176.807)"/><use xlink:href="#DejaVuSans-Bold-72" transform="translate(224.61)"/><use xlink:href="#DejaVuSans-Bold-69" transform="translate(273.926)"/><use xlink:href="#DejaVuSans-Bold-62" transform="translate(308.203)"/><use xlink:href="#DejaVuSans-Bold-75" transform="translate(379.785)"/><use xlink:href="#DejaVuSans-Bold-63" transform="translate(450.977)"/><use xlink:href="#DejaVuSans-Bold-69" transform="translate(510.254)"/><use xlink:href="#DejaVuSans-Bold-f3" transform="translate(544.531)"/><use xlink:href="#DejaVuSans-Bold-6e" transform="translate(613.232)"/><use xlink:href="#DejaVuSans-Bold-64" transform="translate(719.238)"/><use xlink:href="#DejaVuSans-Bold-65" transform="translate(790.82)"/><use xlink:href="#DejaVuSans-Bold-44" transform="translate(893.457)"/><use xlink:href="#DejaVuSans-Bold-65" transform="translate(976.465)"/><use xlink:href="#DejaVuSans-Bold-6c" transform="translate(1044.287)"/><use xlink:href="#DejaVuSans-Bold-69" transform="translate(1078.564)"/><use xlink:href="#DejaVuSans-Bold-74" transform="translate(1112.842)"/><use xlink:href="#DejaVuSans-Bold-6f" transform="translate(1160.645)"/><use xlink:href="#DejaVuSans-Bold-73" transform="translate(1229.346)"/><use xlink:href="#DejaVuSans-Bold-70" transform="translate(1323.682)"/><use xlink:href="#DejaVuSans-Bold-6f" transform="translate(1395.264)"/><use xlink:href="#DejaVuSans-Bold-72" transform="translate(1463.965)"/><use xlink:href="#DejaVuSans-Bold-47" transform="translate(1548.096)"/><use xlink:href="#DejaVuSans-Bold-72" transform="translate(1630.176)"/><use xlink:href="#DejaVuSans-Bold-75" transform="translate(1679.492)"/><use xlink:href="#DejaVuSans-Bold-70" transform="translate(1750.684)"/><use xlink:href="#DejaVuSans-Bold-6f" transform="translate(1822.266)"/><use xlink:href="#DejaVuSans-Bold-64" transform="translate(1925.781)"/><use xlink:href="#DejaVuSans-Bold-65" transform="translate(1997.363)"/><use xlink:href="#DejaVuSans-Bold-45" transform="translate(2100)"/><use xlink:href="#DejaVuSans-Bold-64" transform="translate(2168.31)"/><use xlink:href="#DejaVuSans-Bold-61" transform="translate(2239.893)"/><use xlink:href="#DejaVuSans-Bold-64" transform="translate(2307.373)"/></g></g></g></svg>