<svg xmlns="http://www.w3.org/2000/svg" xmlns:xlink="http://www.w3.org/1999/xlink" width="614.4" height="460.8" viewBox="0 0 460.8 345.6"><defs><style>*{stroke-linejoin:round;stroke-linecap:butt}</style></defs><g id="figure_1"><path id="patch_1" d="M0 345.6h460.8V0H0z"/><g id="axes_1"><path id="patch_2" d="M57.6 307.584h357.12V41.472H57.6z"/><g id="matplotlib.axis_1"><g id="xtick_1"><g id="line2d_1"><defs><path id="m749fb01284" d="M0 0v3.5" style="stroke:#fff;stroke-width:.8"/></defs><use xlink:href="#m749fb01284" x="65.04" y="307.584" style="fill:#fff;stroke:#fff;stroke-width:.8"/></g><g id="text_1" style="fill:#fff" transform="matrix(.1 0 0 -.1 61.859 322.182)"><defs><path id="DejaVuSans-30" d="M2034 4250q-487 0-733-480-245-479-245-1442 0-959 245-1439 246-480 733-480 491 0 736 480 246 480 246 1439 0 963-246 1442-245 480-736 480m0 500q785 0 1199-621 414-620 414-1801 0-1178-414-1799Q2819-91 2034-91q-784 0-1198 620-414 621-414 1799 0 1181 414 1801 414 621 1198 621" transform="scale(.01563)"/></defs><use xlink:href="#DejaVuSans-30"/></g></g><g id="xtick_2"><use xlink:href="#m749fb01284" id="line2d_2" x="79.92" y="307.584" style="fill:#fff;stroke:#fff;stroke-width:.8"/><g id="text_2" style="fill:#fff" transform="matrix(.1 0 0 -.1 76.739 322.182)"><defs><path id="DejaVuSans-31" d="M794 531h1031v3560L703 3866v575l1116 225h631V531h1031V0H794z" transform="scale(.01563)"/></defs><use xlink:href="#DejaVuSans-31"/></g></g><g id="xtick_3"><use xlink:href="#m749fb01284" id="line2d_3" x="94.8" y="307.584" style="fill:#fff;stroke:#fff;stroke-width:.8"/><g id="text_3" style="fill:#fff" transform="matrix(.1 0 0 -.1 91.619 322.182)"><defs><path id="DejaVuSans-32" d="M1228 531h2203V0H469v531q359 372 979 998 621 627 780 809 303 340 423 576 121 236 121 464 0 372-261 606-261 235-680 235-297 0-627-103-329-103-704-313v638q381 153 712 231 332 78 607 78 725 0 1156-363 431-362 431-968 0-288-108-546-107-257-392-607-78-91-497-524-418-433-1181-1211" transform="scale(.01563)"/></defs><use xlink:href="#DejaVuSans-32"/></g></g><g id="xtick_4"><use xlink:href="#m749fb01284" id="line2d_4" x="109.68" y="307.584" style="fill:#fff;stroke:#fff;stroke-width:.8"/><g id="text_4" style="fill:#fff" transform="matrix(.1 0 0 -.1 106.499 322.182)"><defs><path id="DejaVuSans-33" d="M2597 2516q453-97 707-404 255-306 255-756 0-690-475-1069Q2609-91 1734-91q-293 0-604 58T488 141v609q262-153 574-231 313-78 654-78 593 0 904 234t311 681q0 413-289 645-289 233-804 233h-544v519h569q465 0 712 186t247 536q0 359-255 551-254 193-729 193-260 0-557-57-297-56-653-174v562q360 100 674 150t592 50q719 0 1137-327 419-326 419-882 0-388-222-655t-631-370" transform="scale(.01563)"/></defs><use xlink:href="#DejaVuSans-33"/></g></g><g id="xtick_5"><use xlink:href="#m749fb01284" id="line2d_5" x="124.56" y="307.584" style="fill:#fff;stroke:#fff;stroke-width:.8"/><g id="text_5" style="fill:#fff" transform="matrix(.1 0 0 -.1 121.379 322.182)"><defs><path id="DejaVuSans-34" d="M2419 4116 825 1625h1594zm-166 550h794V1625h666v-525h-666V0h-628v1100H313v609z" transform="scale(.01563)"/></defs><use xlink:href="#DejaVuSans-34"/></g></g><g id="xtick_6"><use xlink:href="#m749fb01284" id="line2d_6" x="139.44" y="307.584" style="fill:#fff;stroke:#fff;stroke-width:.8"/><g id="text_6" style="fill:#fff" transform="matrix(.1 0 0 -.1 136.259 322.182)"><defs><path id="DejaVuSans-35" d="M691 4666h2478v-532H1269V2991q137 47 274 70 138 23 276 23 781 0 1237-428 457-428 457-1159 0-753-469-1171Q2575-91 1722-91q-294 0-599 50Q819 9 494 109v635q281-153 581-228t634-75q541 0 856 284 316 284 316 772 0 487-316 771-315 285-856 285-253 0-505-56-251-56-513-175z" transform="scale(.01563)"/></defs><use xlink:href="#DejaVuSans-35"/></g></g><g id="xtick_7"><use xlink:href="#m749fb01284" id="line2d_7" x="154.32" y="307.584" style="fill:#fff;stroke:#fff;stroke-width:.8"/><g id="text_7" style="fill:#fff" transform="matrix(.1 0 0 -.1 151.139 322.182)"><defs><path id="DejaVuSans-36" d="M2113 2584q-425 0-674-291-248-290-248-796 0-503 248-796 249-292 674-292t673 292q248 293 248 796 0 506-248 796-248 291-673 291m1253 1979v-575q-238 112-480 171-242 60-480 60-625 0-955-422-329-422-376-1275 184 272 462 417 279 145 613 145 703 0 1111-427 408-426 408-1160 0-719-425-1154Q2819-91 2113-91q-810 0-1238 620-428 621-428 1799 0 1106 525 1764t1409 658q238 0 480-47t505-140" transform="scale(.01563)"/></defs><use xlink:href="#DejaVuSans-36"/></g></g><g id="xtick_8"><use xlink:href="#m749fb01284" id="line2d_8" x="169.2" y="307.584" style="fill:#fff;stroke:#fff;stroke-width:.8"/><g id="text_8" style="fill:#fff" transform="matrix(.1 0 0 -.1 166.019 322.182)"><defs><path id="DejaVuSans-37" d="M525 4666h3000v-269L1831 0h-659l1594 4134H525z" transform="scale(.01563)"/></defs><use xlink:href="#DejaVuSans-37"/></g></g><g id="xtick_9"><use xlink:href="#m749fb01284" id="line2d_9" x="184.08" y="307.584" style="fill:#fff;stroke:#fff;stroke-width:.8"/><g id="text_9" style="fill:#fff" transform="matrix(.1 0 0 -.1 180.899 322.182)"><defs><path id="DejaVuSans-38" d="M2034 2216q-450 0-708-241-257-241-257-662 0-422 257-663 258-241 708-241t709 242q260 243 260 662 0 421-258 662-257 241-711 241m-631 268q-406 100-633 378-226 279-226 679 0 559 398 884 399 325 1092 325 697 0 1094-325t397-884q0-400-227-679-226-278-629-378 456-106 710-416 255-309 255-755 0-679-414-1042Q2806-91 2034-91q-771 0-1186 362-414 363-414 1042 0 446 256 755 257 310 713 416m-231 997q0-362 226-565 227-203 636-203 407 0 636 203 230 203 230 565 0 363-230 566-229 203-636 203-409 0-636-203-226-203-226-566" transform="scale(.01563)"/></defs><use xlink:href="#DejaVuSans-38"/></g></g><g id="xtick_10"><use xlink:href="#m749fb01284" id="line2d_10" x="198.96" y="307.584" style="fill:#fff;stroke:#fff;stroke-width:.8"/><g id="text_10" style="fill:#fff" transform="matrix(.1 0 0 -.1 195.779 322.182)"><defs><path id="DejaVuSans-39" d="M703 97v575q238-113 481-172 244-59 479-59 625 0 954 420 330 420 377 1277-181-269-460-413-278-144-615-144-700 0-1108 423-408 424-408 1159 0 718 425 1152 425 435 1131 435 810 0 1236-621 427-620 427-1801 0-1103-524-1761Q2575-91 1691-91q-238 0-482 47Q966 3 703 97m1256 1978q425 0 673 290 249 291 249 798 0 503-249 795-248 292-673 292t-673-292-248-795q0-507 248-798 248-290 673-290" transform="scale(.01563)"/></defs><use xlink:href="#DejaVuSans-39"/></g></g><g id="xtick_11"><use xlink:href="#m749fb01284" id="line2d_11" x="213.84" y="307.584" style="fill:#fff;stroke:#fff;stroke-width:.8"/><g id="text_11" style="fill:#fff" transform="matrix(.1 0 0 -.1 207.477 322.182)"><use xlink:href="#DejaVuSans-31"/><use xlink:href="#DejaVuSans-30" transform="translate(63.623)"/></g></g><g id="xtick_12"><use xlink:href="#m749fb01284" id="line2d_12" x="228.72" y="307.584" style="fill:#fff;stroke:#fff;stroke-width:.8"/><g id="text_12" style="fill:#fff" transform="matrix(.1 0 0 -.1 222.357 322.182)"><use xlink:href="#DejaVuSans-31"/><use xlink:href="#DejaVuSans-31" transform="translate(63.623)"/></g></g><g id="xtick_13"><use xlink:href="#m749fb01284" id="line2d_13" x="243.6" y="307.584" style="fill:#fff;stroke:#fff;stroke-width:.8"/><g id="text_13" style="fill:#fff" transform="matrix(.1 0 0 -.1 237.238 322.182)"><use xlink:href="#DejaVuSans-31"/><use xlink:href="#DejaVuSans-32" transform="translate(63.623)"/></g></g><g id="xtick_14"><use xlink:href="#m749fb01284" id="line2d_14" x="258.48" y="307.584" style="fill:#fff;stroke:#fff;stroke-width:.8"/><g id="text_14" style="fill:#fff" transform="matrix(.1 0 0 -.1 252.118 322.182)"><use xlink:href="#DejaVuSans-31"/><use xlink:href="#DejaVuSans-33" transform="translate(63.623)"/></g></g><g id="xtick_15"><use xlink:href="#m749fb01284" id="line2d_15" x="273.36" y="307.584" style="fill:#fff;stroke:#fff;stroke-width:.8"/><g id="text_15" style="fill:#fff" transform="matrix(.1 0 0 -.1 266.998 322.182)"><use xlink:href="#DejaVuSans-31"/><use xlink:href="#DejaVuSans-34" transform="translate(63.623)"/></g></g><g id="xtick_16"><use xlink:href="#m749fb01284" id="line2d_16" x="288.24" y="307.584" style="fill:#fff;stroke:#fff;stroke-width:.8"/><g id="text_16" style="fill:#fff" transform="matrix(.1 0 0 -.1 281.877 322.182)"><use xlink:href="#DejaVuSans-31"/><use xlink:href="#DejaVuSans-35" transform="translate(63.623)"/></g></g><g id="xtick_17"><use xlink:href="#m749fb01284" id="line2d_17" x="303.12" y="307.584" style="fill:#fff;stroke:#fff;stroke-width:.8"/><g id="text_17" style="fill:#fff" transform="matrix(.1 0 0 -.1 296.757 322.182)"><use xlink:href="#DejaVuSans-31"/><use xlink:href="#DejaVuSans-36" transform="translate(63.623)"/></g></g><g id="xtick_18"><use xlink:href="#m749fb01284" id="line2d_18" x="318" y="307.584" style="fill:#fff;stroke:#fff;stroke-width:.8"/><g id="text_18" style="fill:#fff" transform="matrix(.1 0 0 -.1 311.637 322.182)"><use xlink:href="#DejaVuSans-31"/><use xlink:href="#DejaVuSans-37" transform="translate(63.623)"/></g></g><g id="xtick_19"><use xlink:href="#m749fb01284" id="line2d_19" x="332.88" y="307.584" style="fill:#fff;stroke:#fff;stroke-width:.8"/><g id="text_19" style="fill:#fff" transform="matrix(.1 0 0 -.1 326.517 322.182)"><use xlink:href="#DejaVuSans-31"/><use xlink:href="#DejaVuSans-38" transform="translate(63.623)"/></g></g><g id="xtick_20"><use xlink:href="#m749fb01284" id="line2d_20" x="347.76" y="307.584" style="fill:#fff;stroke:#fff;stroke-width:.8"/><g id="text_20" style="fill:#fff" transform="matrix(.1 0 0 -.1 341.397 322.182)"><use xlink:href="#DejaVuSans-31"/><use xlink:href="#DejaVuSans-39" transform="translate(63.623)"/></g></g><g id="xtick_21"><use xlink:href="#m749fb01284" id="line2d_21" x="362.64" y="307.584" style="fill:#fff;stroke:#fff;stroke-width:.8"/><g id="text_21" style="fill:#fff" transform="matrix(.1 0 0 -.1 356.277 322.182)"><use xlink:href="#DejaVuSans-32"/><use xlink:href="#DejaVuSans-30" transform="translate(63.623)"/></g></g><g id="xtick_22"><use xlink:href="#m749fb01284" id="line2d_22" x="377.52" y="307.584" style="fill:#fff;stroke:#fff;stroke-width:.8"/><g id="text_22" style="fill:#fff" transform="matrix(.1 0 0 -.1 371.158 322.182)"><use xlink:href="#DejaVuSans-32"/><use xlink:href="#DejaVuSans-31" transform="translate(63.623)"/></g></g><g id="xtick_23"><use xlink:href="#m749fb01284" id="line2d_23" x="392.4" y="307.584" style="fill:#fff;stroke:#fff;stroke-width:.8"/><g id="text_23" style="fill:#fff" transform="matrix(.1 0 0 -.1 386.038 322.182)"><use xlink:href="#DejaVuSans-32"/><use xlink:href="#DejaVuSans-32" transform="translate(63.623)"/></g></g><g id="xtick_24"><use xlink:href="#m749fb01284" id="line2d_24" x="407.28" y="307.584" style="fill:#fff;stroke:#fff;stroke-width:.8"/><g id="text_24" style="fill:#fff" transform="matrix(.1 0 0 -.1 400.918 322.182)"><use xlink:href="#DejaVuSans-32"/><use xlink:href="#DejaVuSans-33" transform="translate(63.623)"/></g></g><g id="text_25" style="fill:#fff" transform="matrix(.12 0 0 -.12 221.708 337.38)"><defs><path id="DejaVuSans-48" d="M628 4666h631V2753h2294v1913h631V0h-631v2222H1259V0H628z" transform="scale(.01563)"/><path id="DejaVuSans-6f" d="M1959 3097q-462 0-731-361t-269-989 267-989q268-361 733-361 460 0 728 362 269 363 269 988 0 622-269 986-268 364-728 364m0 487q750 0 1178-488 429-487 429-1349 0-859-429-1349Q2709-91 1959-91q-753 0-1180 489-426 490-426 1349 0 862 426 1349 427 488 1180 488" transform="scale(.01563)"/><path id="DejaVuSans-75" d="M544 1381v2119h575V1403q0-497 193-746 194-248 582-248 465 0 735 297 271 297 271 810v1984h575V0h-575v538q-209-319-486-474-276-155-642-155-603 0-916 375-312 375-312 1097m1447 2203" transform="scale(.01563)"/><path id="DejaVuSans-72" d="M2631 2963q-97 56-211 82-114 27-251 27-488 0-749-317t-261-911V0H581v3500h578v-544q182 319 472 473 291 155 707 155 59 0 131-8 72-7 159-23z" transform="scale(.01563)"/></defs><use xlink:href="#DejaVuSans-48"/><use xlink:href="#DejaVuSans-6f" transform="translate(75.195)"/><use xlink:href="#DejaVuSans-75" transform="translate(136.377)"/><use xlink:href="#DejaVuSans-72" transform="translate(199.756)"/></g></g><g id="matplotlib.axis_2"><g id="ytick_1"><path id="line2d_25" d="M57.6 307.584h357.12" clip-path="url(#p060f5dbd4b)" style="fill:none;stroke-dasharray:2.96,1.28;stroke-dashoffset:0;stroke:#fff;stroke-opacity:.7;stroke-width:.8"/><g id="line2d_26"><defs><path id="meb116e7f40" d="M0 0h-3.5" style="stroke:#fff;stroke-width:.8"/></defs><use xlink:href="#meb116e7f40" x="57.6" y="307.584" style="fill:#fff;stroke:#fff;stroke-width:.8"/></g><use xlink:href="#DejaVuSans-30" id="text_26" style="fill:#fff" transform="matrix(.1 0 0 -.1 44.237 311.383)"/></g><g id="ytick_2"><path id="line2d_27" d="M57.6 270.485h357.12" clip-path="url(#p060f5dbd4b)" style="fill:none;stroke-dasharray:2.96,1.28;stroke-dashoffset:0;stroke:#fff;stroke-opacity:.7;stroke-width:.8"/><use xlink:href="#meb116e7f40" id="line2d_28" x="57.6" y="270.485" style="fill:#fff;stroke:#fff;stroke-width:.8"/><g id="text_27" style="fill:#fff" transform="matrix(.1 0 0 -.1 25.15 274.284)"><use xlink:href="#DejaVuSans-32"/><use xlink:href="#DejaVuSans-30" transform="translate(63.623)"/><use xlink:href="#DejaVuSans-30" transform="translate(127.246)"/><use xlink:href="#DejaVuSans-30" transform="translate(190.87)"/></g></g><g id="ytick_3"><path id="line2d_29" d="M57.6 233.387h357.12" clip-path="url(#p060f5dbd4b)" style="fill:none;stroke-dasharray:2.96,1.28;stroke-dashoffset:0;stroke:#fff;stroke-opacity:.7;stroke-width:.8"/><use xlink:href="#meb116e7f40" id="line2d_30" x="57.6" y="233.387" style="fill:#fff;stroke:#fff;stroke-width:.8"/><g id="text_28" style="fill:#fff" transform="matrix(.1 0 0 -.1 25.15 237.186)"><use xlink:href="#DejaVuSans-34"/><use xlink:href="#DejaVuSans-30" transform="translate(63.623)"/><use xlink:href="#DejaVuSans-30" transform="translate(127.246)"/><use xlink:href="#DejaVuSans-30" transform="translate(190.87)"/></g></g><g id="ytick_4"><path id="line2d_31" d="M57.6 196.288h357.12" clip-path="url(#p060f5dbd4b)" style="fill:none;stroke-dasharray:2.96,1.28;stroke-dashoffset:0;stroke:#fff;stroke-opacity:.7;stroke-width:.8"/><use xlink:href="#meb116e7f40" id="line2d_32" x="57.6" y="196.288" style="fill:#fff;stroke:#fff;stroke-width:.8"/><g id="text_29" style="fill:#fff" transform="matrix(.1 0 0 -.1 25.15 200.087)"><use xlink:href="#DejaVuSans-36"/><use xlink:href="#DejaVuSans-30" transform="translate(63.623)"/><use xlink:href="#DejaVuSans-30" transform="translate(127.246)"/><use xlink:href="#DejaVuSans-30" transform="translate(190.87)"/></g></g><g id="ytick_5"><path id="line2d_33" d="M57.6 159.19h357.12" clip-path="url(#p060f5dbd4b)" style="fill:none;stroke-dasharray:2.96,1.28;stroke-dashoffset:0;stroke:#fff;stroke-opacity:.7;stroke-width:.8"/><use xlink:href="#meb116e7f40" id="line2d_34" x="57.6" y="159.189" style="fill:#fff;stroke:#fff;stroke-width:.8"/><g id="text_30" style="fill:#fff" transform="matrix(.1 0 0 -.1 25.15 162.988)"><use xlink:href="#DejaVuSans-38"/><use xlink:href="#DejaVuSans-30" transform="translate(63.623)"/><use xlink:href="#DejaVuSans-30" transform="translate(127.246)"/><use xlink:href="#DejaVuSans-30" transform="translate(190.87)"/></g></g><g id="ytick_6"><path id="line2d_35" d="M57.6 122.09h357.12" clip-path="url(#p060f5dbd4b)" style="fill:none;stroke-dasharray:2.96,1.28;stroke-dashoffset:0;stroke:#fff;stroke-opacity:.7;stroke-width:.8"/><use xlink:href="#meb116e7f40" id="line2d_36" x="57.6" y="122.09" style="fill:#fff;stroke:#fff;stroke-width:.8"/><g id="text_31" style="fill:#fff" transform="matrix(.1 0 0 -.1 18.788 125.89)"><use xlink:href="#DejaVuSans-31"/><use xlink:href="#DejaVuSans-30" transform="translate(63.623)"/><use xlink:href="#DejaVuSans-30" transform="translate(127.246)"/><use xlink:href="#DejaVuSans-30" transform="translate(190.87)"/><use xlink:href="#DejaVuSans-30" transform="translate(254.492)"/></g></g><g id="ytick_7"><path id="line2d_37" d="M57.6 84.992h357.12" clip-path="url(#p060f5dbd4b)" style="fill:none;stroke-dasharray:2.96,1.28;stroke-dashoffset:0;stroke:#fff;stroke-opacity:.7;stroke-width:.8"/><use xlink:href="#meb116e7f40" id="line2d_38" x="57.6" y="84.992" style="fill:#fff;stroke:#fff;stroke-width:.8"/><g id="text_32" style="fill:#fff" transform="matrix(.1 0 0 -.1 18.788 88.79)"><use xlink:href="#DejaVuSans-31"/><use xlink:href="#DejaVuSans-32" transform="translate(63.623)"/><use xlink:href="#DejaVuSans-30" transform="translate(127.246)"/><use xlink:href="#DejaVuSans-30" transform="translate(190.87)"/><use xlink:href="#DejaVuSans-30" transform="translate(254.492)"/></g></g><g id="ytick_8"><path id="line2d_39" d="M57.6 47.893h357.12" clip-path="url(#p060f5dbd4b)" style="fill:none;stroke-dasharray:2.96,1.28;stroke-dashoffset:0;stroke:#fff;stroke-opacity:.7;stroke-width:.8"/><use xlink:href="#meb116e7f40" id="line2d_40" x="57.6" y="47.893" style="fill:#fff;stroke:#fff;stroke-width:.8"/><g id="text_33" style="fill:#fff" transform="matrix(.1 0 0 -.1 18.788 51.692)"><use xlink:href="#DejaVuSans-31"/><use xlink:href="#DejaVuSans-34" transform="translate(63.623)"/><use xlink:href="#DejaVuSans-30" transform="translate(127.246)"/><use xlink:href="#DejaVuSans-30" transform="translate(190.87)"/><use xlink:href="#DejaVuSans-30" transform="translate(254.492)"/></g></g><g id="text_34" style="fill:#fff" transform="matrix(0 -.12 -.12 0 12.292 205.524)"><defs><path id="DejaVuSans-46" d="M628 4666h2681v-532H1259V2759h1850v-531H1259V0H628z" transform="scale(.01563)"/><path id="DejaVuSans-65" d="M3597 1894v-281H953q38-594 358-905t892-311q331 0 642 81t618 244V178Q3153 47 2828-22t-659-69q-838 0-1327 487-489 488-489 1320 0 859 464 1363 464 505 1252 505 706 0 1117-455 411-454 411-1235m-575 169q-6 471-264 752-258 282-683 282-481 0-770-272t-333-766z" transform="scale(.01563)"/><path id="DejaVuSans-71" d="M947 1747q0-634 261-995t717-361 718 361q263 361 263 995t-263 995q-262 361-718 361t-717-361-261-995M2906 525q-181-312-458-464-276-152-664-152-634 0-1033 506-398 507-398 1332t398 1331q399 506 1033 506 388 0 664-152 277-151 458-463v531h575v-4831h-575z" transform="scale(.01563)"/><path id="DejaVuSans-6e" d="M3513 2113V0h-575v2094q0 497-194 743-194 247-581 247-466 0-735-297-269-296-269-809V0H581v3500h578v-544q207 316 486 472 280 156 646 156 603 0 912-373 310-373 310-1098" transform="scale(.01563)"/><path id="DejaVuSans-63" d="M3122 3366v-538q-244 135-489 202t-495 67q-560 0-870-355-309-354-309-995t309-996q310-354 870-354 250 0 495 67t489 202V134Q2881 22 2623-34q-257-57-548-57-791 0-1257 497-465 497-465 1341 0 856 470 1346 471 491 1290 491 265 0 518-55 253-54 491-163" transform="scale(.01563)"/><path id="DejaVuSans-79" d="M2059-325q-243-625-475-815-231-191-618-191H506v481h338q237 0 368 113 132 112 291 531l103 262L191 3500h609L1894 763l1094 2737h609z" transform="scale(.01563)"/></defs><use xlink:href="#DejaVuSans-46"/><use xlink:href="#DejaVuSans-72" transform="translate(50.27)"/><use xlink:href="#DejaVuSans-65" transform="translate(89.133)"/><use xlink:href="#DejaVuSans-71" transform="translate(150.656)"/><use xlink:href="#DejaVuSans-75" transform="translate(214.133)"/><use xlink:href="#DejaVuSans-65" transform="translate(277.512)"/><use xlink:href="#DejaVuSans-6e" transform="translate(339.035)"/><use xlink:href="#DejaVuSans-63" transform="translate(402.414)"/><use xlink:href="#DejaVuSans-79" transform="translate(457.395)"/></g></g><path id="patch_3" d="M59.088 307.584h11.904V145.685H59.088z" clip-path="url(#p060f5dbd4b)" style="fill:#107010"/><path id="patch_4" d="M73.968 307.584h11.904V199.33H73.968z" clip-path="url(#p060f5dbd4b)" style="fill:#107010"/><path id="patch_5" d="M88.848 307.584h11.904V219.92H88.848z" clip-path="url(#p060f5dbd4b)" style="fill:#107010"/><path id="patch_6" d="M103.728 307.584h11.904v-73.14h-11.904z" clip-path="url(#p060f5dbd4b)" style="fill:#107010"/><path id="patch_7" d="M118.608 307.584h11.904v-60.063h-11.904z" clip-path="url(#p060f5dbd4b)" style="fill:#107010"/><path id="patch_8" d="M133.488 307.584h11.904v-58.82h-11.904z" clip-path="url(#p060f5dbd4b)" style="fill:#107010"/><path id="patch_9" d="M148.368 307.584h11.904V203.318h-11.904z" clip-path="url(#p060f5dbd4b)" style="fill:#107010"/><path id="patch_10" d="M163.248 307.584h11.904V207.362h-11.904z" clip-path="url(#p060f5dbd4b)" style="fill:#107010"/><path id="patch_11" d="M178.128 307.584h11.904V168.037h-11.904z" clip-path="url(#p060f5dbd4b)" style="fill:#107010"/><path id="patch_12" d="M193.008 307.584h11.904V176.032h-11.904z" clip-path="url(#p060f5dbd4b)" style="fill:#107010"/><path id="patch_13" d="M207.888 307.584h11.904V151.027h-11.904z" clip-path="url(#p060f5dbd4b)" style="fill:#107010"/><path id="patch_14" d="M222.768 307.584h11.904V144.591h-11.904z" clip-path="url(#p060f5dbd4b)" style="fill:#107010"/><path id="patch_15" d="M252.528 307.584h11.904V150.397h-11.904z" clip-path="url(#p060f5dbd4b)" style="fill:#107010"/><path id="patch_16" d="M267.408 307.584h11.904v-164.57h-11.904z" clip-path="url(#p060f5dbd4b)" style="fill:#107010"/><path id="patch_17" d="M282.288 307.584h11.904V133.35h-11.904z" clip-path="url(#p060f5dbd4b)" style="fill:#107010"/><path id="patch_18" d="M297.168 307.584h11.904v-171.1h-11.904z" clip-path="url(#p060f5dbd4b)" style="fill:#107010"/><path id="patch_19" d="M312.048 307.584h11.904V122.758h-11.904z" clip-path="url(#p060f5dbd4b)" style="fill:#107010"/><path id="patch_20" d="M326.928 307.584h11.904V119.772h-11.904z" clip-path="url(#p060f5dbd4b)" style="fill:#107010"/><path id="patch_21" d="M341.808 307.584h11.904V135.78h-11.904z" clip-path="url(#p060f5dbd4b)" style="fill:#107010"/><path id="patch_22" d="M356.688 307.584h11.904V129.9h-11.904z" clip-path="url(#p060f5dbd4b)" style="fill:#107010"/><path id="patch_23" d="M371.568 307.584h11.904V146.186h-11.904z" clip-path="url(#p060f5dbd4b)" style="fill:#107010"/><path id="patch_24" d="M386.448 307.584h11.904V149.339h-11.904z" clip-path="url(#p060f5dbd4b)" style="fill:#107010"/><path id="patch_25" d="M401.328 307.584h11.904V169.966h-11.904z" clip-path="url(#p060f5dbd4b)" style="fill:#107010"/><path id="patch_26" d="M237.648 307.584h11.904V54.144h-11.904z" clip-path="url(#p060f5dbd4b)" style="fill:#2020df"/><path id="patch_27" d="M57.6 307.584V41.472" style="fill:none;stroke:#fff;stroke-width:.8;stroke-linejoin:miter;stroke-linecap:square"/><path id="patch_28" d="M414.72 307.584V41.472" style="fill:none;stroke:#fff;stroke-width:.8;stroke-linejoin:miter;stroke-linecap:square"/><path id="patch_29" d="M57.6 307.584h357.12" style="fill:none;stroke:#fff;stroke-width:.8;stroke-linejoin:miter;stroke-linecap:square"/><path id="patch_30" d="M57.6 41.472h357.12" style="fill:none;stroke:#fff;stroke-width:.8;stroke-linejoin:miter;stroke-linecap:square"/><g id="text_35"><g style="fill:#fff" transform="matrix(.08 0 0 -.08 194.611 71.346)"><defs><path id="DejaVuSans-Bold-50" d="M588 4666h1996q891 0 1367-396 477-395 477-1126 0-735-477-1130-476-395-1367-395h-793V0H588zm1203-872V2491h665q350 0 541 170t191 483q0 312-191 481t-541 169z" transform="scale(.01563)"/><path id="DejaVuSans-Bold-69" d="M538 3500h1118V0H538zm0 1363h1118v-913H538z" transform="scale(.01563)"/><path id="DejaVuSans-Bold-63" d="M3366 3391v-913q-228 156-458 231t-477 75q-468 0-729-273t-261-764 261-765q261-273 729-273 263 0 499 78 236 79 436 232V103Q3103 6 2833-42q-270-49-542-49-947 0-1482 486-534 486-534 1352t534 1351q535 486 1482 486 275 0 542-48t533-145" transform="scale(.01563)"/><path id="DejaVuSans-Bold-6f" d="M2203 2784q-372 0-567-267t-195-770 195-771q195-267 567-267 366 0 559 267 194 268 194 771t-194 770q-193 267-559 267m0 800q903 0 1411-488 508-487 508-1349 0-863-508-1351Q3106-91 2203-91q-906 0-1417 487-511 488-511 1351 0 862 511 1349 511 488 1417 488" transform="scale(.01563)"/><path id="DejaVuSans-Bold-31" d="M750 831h1063v3016L722 3622v819l1084 225h1144V831h1063V0H750z" transform="scale(.01563)"/><path id="DejaVuSans-Bold-32" d="M1844 884h2053V0H506v884l1703 1504q229 206 338 403t109 409q0 328-220 528t-586 200q-281 0-616-120-334-120-715-358v1025q406 134 803 204 397 71 778 71 838 0 1302-369 464-368 464-1028 0-381-197-711-197-329-828-883z" transform="scale(.01563)"/><path id="DejaVuSans-Bold-68" d="M4056 2131V0H2931v1625q0 459-20 631t-70 253q-66 110-179 171-112 61-256 61-350 0-550-271-200-270-200-748V0H538v4863h1118V2988q253 306 537 451 285 145 629 145 606 0 920-372 314-371 314-1081" transform="scale(.01563)"/></defs><use xlink:href="#DejaVuSans-Bold-50"/><use xlink:href="#DejaVuSans-Bold-69" transform="translate(73.291)"/><use xlink:href="#DejaVuSans-Bold-63" transform="translate(107.568)"/><use xlink:href="#DejaVuSans-Bold-6f" transform="translate(166.846)"/><use xlink:href="#DejaVuSans-Bold-31" transform="translate(270.361)"/><use xlink:href="#DejaVuSans-Bold-32" transform="translate(339.941)"/><use xlink:href="#DejaVuSans-Bold-68" transform="translate(409.521)"/></g><g style="fill:#fff" transform="matrix(.08 0 0 -.08 196.268 80.304)"><defs><path id="DejaVuSans-Bold-28" d="M2413-844h-929Q1006-72 778 623q-228 696-228 1380 0 685 229 1386 230 702 705 1467h929q-400-740-600-1448t-200-1399q0-690 198-1400 198-709 602-1453" transform="scale(.01563)"/><path id="DejaVuSans-Bold-33" d="M2981 2516q472-122 717-424 246-301 246-767 0-694-532-1055Q2881-91 1863-91q-360 0-721 58T428 141v928q338-169 670-255 333-86 655-86 478 0 733 165 255 166 255 476 0 319-261 483t-771 164h-481v775h506q454 0 675 142 222 142 222 433 0 268-216 415-215 147-609 147-290 0-587-66-297-65-591-193v881q356 100 706 150t688 50q909 0 1360-299 452-298 452-898 0-409-216-670-215-261-637-367" transform="scale(.01563)"/><path id="DejaVuSans-Bold-36" d="M2316 2303q-316 0-474-205-158-204-158-614 0-409 158-614 158-204 474-204 318 0 476 204 158 205 158 614 0 410-158 614-158 205-476 205m1487 2241v-863q-297 141-560 208-262 67-512 67-537 0-837-299-300-298-350-885 206 153 446 229 241 77 526 77 715 0 1154-419 439-418 439-1096 0-750-491-1202Q3128-91 2303-91q-909 0-1408 614-498 615-498 1743 0 1156 583 1817t1598 661q322 0 625-50t600-150" transform="scale(.01563)"/><path id="DejaVuSans-Bold-29" d="M513-844q400 744 600 1453 200 710 200 1400 0 691-200 1399T513 4856h928q475-765 704-1467 230-701 230-1386 0-684-228-1380-228-695-706-1467z" transform="scale(.01563)"/></defs><use xlink:href="#DejaVuSans-Bold-28"/><use xlink:href="#DejaVuSans-Bold-31" transform="translate(45.703)"/><use xlink:href="#DejaVuSans-Bold-33" transform="translate(115.283)"/><use xlink:href="#DejaVuSans-Bold-36" transform="translate(184.863)"/><use xlink:href="#DejaVuSans-Bold-36" transform="translate(254.443)"/><use xlink:href="#DejaVuSans-Bold-33" transform="translate(324.023)"/><use xlink:href="#DejaVuSans-Bold-29" transform="translate(393.604)"/></g></g><g id="text_36" style="fill:#fff" transform="matrix(.16 0 0 -.16 134.309 35.472)"><defs><path id="DejaVuSans-43" d="M4122 4306v-665q-319 297-680 443-361 147-767 147-800 0-1225-489t-425-1414q0-922 425-1411t1225-489q406 0 767 147t680 444V359q-331-225-702-338-370-112-782-112-1060 0-1670 648-609 649-609 1771 0 1125 609 1773 610 649 1670 649 418 0 788-111 371-111 696-333" transform="scale(.01563)"/><path id="DejaVuSans-69" d="M603 3500h575V0H603zm0 1363h575v-729H603z" transform="scale(.01563)"/><path id="DejaVuSans-6d" d="M3328 2828q216 388 516 572t706 184q547 0 844-383 297-382 297-1088V0h-578v2094q0 503-179 746-178 244-543 244-447 0-707-297-259-296-259-809V0h-578v2094q0 506-178 748t-550 242q-441 0-701-298-259-298-259-808V0H581v3500h578v-544q197 322 472 475t653 153q382 0 649-194 267-193 395-562" transform="scale(.01563)"/><path id="DejaVuSans-62" d="M3116 1747q0 634-261 995t-717 361q-457 0-718-361t-261-995 261-995 718-361q456 0 717 361t261 995M1159 2969q182 312 458 463 277 152 661 152 638 0 1036-506 399-506 399-1331T3314 415Q2916-91 2278-91q-384 0-661 152-276 152-458 464V0H581v4863h578z" transform="scale(.01563)"/></defs><use xlink:href="#DejaVuSans-43"/><use xlink:href="#DejaVuSans-72" transform="translate(69.824)"/><use xlink:href="#DejaVuSans-69" transform="translate(110.938)"/><use xlink:href="#DejaVuSans-6d" transform="translate(138.72)"/><use xlink:href="#DejaVuSans-65" transform="translate(236.133)"/><use xlink:href="#DejaVuSans-46" transform="translate(329.443)"/><use xlink:href="#DejaVuSans-72" transform="translate(379.713)"/><use xlink:href="#DejaVuSans-65" transform="translate(418.576)"/><use xlink:href="#DejaVuSans-71" transform="translate(480.1)"/><use xlink:href="#DejaVuSans-75" transform="translate(543.576)"/><use xlink:href="#DejaVuSans-65" transform="translate(606.955)"/><use xlink:href="#DejaVuSans-6e" transform="translate(668.479)"/><use xlink:href="#DejaVuSans-63" transform="translate(731.857)"/><use xlink:href="#DejaVuSans-79" transform="translate(786.838)"/><use xlink:href="#DejaVuSans-62" transform="translate(877.805)"/><use xlink:href="#DejaVuSans-79" transform="translate(941.281)"/><use xlink:href="#DejaVuSans-48" transform="translate(1032.248)"/><use xlink:href="#DejaVuSans-6f" transform="translate(1107.443)"/><use xlink:href="#DejaVuSans-75" transform="translate(1168.625)"/><use xlink:href="#DejaVuSans-72" transform="translate(1232.004)"/></g></g></g><defs><clipPath id="p060f5dbd4b"><path d="M57.6 41.472h357.12v266.112H57.6z"/></clipPath></defs></svg>