<?xml version="1.0" encoding="utf-8" standalone="no"?>
<!DOCTYPE svg PUBLIC "-//W3C//DTD SVG 1.1//EN"
  "http://www.w3.org/Graphics/SVG/1.1/DTD/svg11.dtd">
<svg xmlns:xlink="http://www.w3.org/1999/xlink" width="576pt" height="432pt" viewBox="0 0 576 432" xmlns="http://www.w3.org/2000/svg" version="1.1">
 <metadata>
  <rdf:RDF xmlns:dc="http://purl.org/dc/elements/1.1/" xmlns:cc="http://creativecommons.org/ns#" xmlns:rdf="http://www.w3.org/1999/02/22-rdf-syntax-ns#">
   <cc:Work>
    <dc:type rdf:resource="http://purl.org/dc/dcmitype/StillImage"/>
    <dc:date>2025-12-03T23:32:32.029862</dc:date>
    <dc:format>image/svg+xml</dc:format>
    <dc:creator>
     <cc:Agent>
      <dc:title>Matplotlib v3.10.7, https://matplotlib.org/</dc:title>
     </cc:Agent>
    </dc:creator>
   </cc:Work>
  </rdf:RDF>
 </metadata>
 <defs>
  <style type="text/css">*{stroke-linejoin: round; stroke-linecap: butt}</style>
 </defs>
 <g id="figure_1">
  <g id="patch_1">
   <path d="M 0 432 
L 576 432 
L 576 0 
L 0 0 
z
" style="fill: #ffffff"/>
  </g>
  <g id="axes_1">
   <g id="patch_2">
    <path d="M 72 384.48 
L 518.4 384.48 
L 518.4 51.84 
L 72 51.84 
z
" style="fill: #ffffff"/>
   </g>
   <g id="patch_3">
    <path d="M 92.290909 384.48 
L 125.418924 384.48 
L 125.418924 67.68 
L 92.290909 67.68 
z
" clip-path="url(#pec1784dbe4)" style="fill: #1f77b4"/>
   </g>
   <g id="patch_4">
    <path d="M 133.700928 384.48 
L 166.828942 384.48 
L 166.828942 82.899403 
L 133.700928 82.899403 
z
" clip-path="url(#pec1784dbe4)" style="fill: #1f77b4"/>
   </g>
   <g id="patch_5">
    <path d="M 175.110946 384.48 
L 208.238961 384.48 
L 208.238961 82.899403 
L 175.110946 82.899403 
z
" clip-path="url(#pec1784dbe4)" style="fill: #1f77b4"/>
   </g>
   <g id="patch_6">
    <path d="M 216.520965 384.48 
L 249.64898 384.48 
L 249.64898 87.036716 
L 216.520965 87.036716 
z
" clip-path="url(#pec1784dbe4)" style="fill: #1f77b4"/>
   </g>
   <g id="patch_7">
    <path d="M 257.930983 384.48 
L 291.058998 384.48 
L 291.058998 91.765075 
L 257.930983 91.765075 
z
" clip-path="url(#pec1784dbe4)" style="fill: #1f77b4"/>
   </g>
   <g id="patch_8">
    <path d="M 299.341002 384.48 
L 332.469017 384.48 
L 332.469017 96.788955 
L 299.341002 96.788955 
z
" clip-path="url(#pec1784dbe4)" style="fill: #1f77b4"/>
   </g>
   <g id="patch_9">
    <path d="M 340.75102 384.48 
L 373.879035 384.48 
L 373.879035 101.665075 
L 340.75102 101.665075 
z
" clip-path="url(#pec1784dbe4)" style="fill: #1f77b4"/>
   </g>
   <g id="patch_10">
    <path d="M 382.161039 384.48 
L 415.289054 384.48 
L 415.289054 104.324776 
L 382.161039 104.324776 
z
" clip-path="url(#pec1784dbe4)" style="fill: #1f77b4"/>
   </g>
   <g id="patch_11">
    <path d="M 423.571058 384.48 
L 456.699072 384.48 
L 456.699072 105.359104 
L 423.571058 105.359104 
z
" clip-path="url(#pec1784dbe4)" style="fill: #1f77b4"/>
   </g>
   <g id="patch_12">
    <path d="M 464.981076 384.48 
L 498.109091 384.48 
L 498.109091 105.359104 
L 464.981076 105.359104 
z
" clip-path="url(#pec1784dbe4)" style="fill: #1f77b4"/>
   </g>
   <g id="matplotlib.axis_1">
    <g id="xtick_1">
     <g id="line2d_1">
      <defs>
       <path id="mbf7beaab03" d="M 0 0 
L 0 3.5 
" style="stroke: #000000; stroke-width: 0.8"/>
      </defs>
      <g>
       <use xlink:href="#mbf7beaab03" x="108.854917" y="384.48" style="stroke: #000000; stroke-width: 0.8"/>
      </g>
     </g>
     <g id="text_1">
      <!-- Stuyvesant High School -->
      <g transform="translate(111.614292 510.212813) rotate(-90) scale(0.1 -0.1)">
       <defs>
        <path id="DejaVuSans-53" d="M 3425 4513 
L 3425 3897 
Q 3066 4069 2747 4153 
Q 2428 4238 2131 4238 
Q 1616 4238 1336 4038 
Q 1056 3838 1056 3469 
Q 1056 3159 1242 3001 
Q 1428 2844 1947 2747 
L 2328 2669 
Q 3034 2534 3370 2195 
Q 3706 1856 3706 1288 
Q 3706 609 3251 259 
Q 2797 -91 1919 -91 
Q 1588 -91 1214 -16 
Q 841 59 441 206 
L 441 856 
Q 825 641 1194 531 
Q 1563 422 1919 422 
Q 2459 422 2753 634 
Q 3047 847 3047 1241 
Q 3047 1584 2836 1778 
Q 2625 1972 2144 2069 
L 1759 2144 
Q 1053 2284 737 2584 
Q 422 2884 422 3419 
Q 422 4038 858 4394 
Q 1294 4750 2059 4750 
Q 2388 4750 2728 4690 
Q 3069 4631 3425 4513 
z
" transform="scale(0.015625)"/>
        <path id="DejaVuSans-74" d="M 1172 4494 
L 1172 3500 
L 2356 3500 
L 2356 3053 
L 1172 3053 
L 1172 1153 
Q 1172 725 1289 603 
Q 1406 481 1766 481 
L 2356 481 
L 2356 0 
L 1766 0 
Q 1100 0 847 248 
Q 594 497 594 1153 
L 594 3053 
L 172 3053 
L 172 3500 
L 594 3500 
L 594 4494 
L 1172 4494 
z
" transform="scale(0.015625)"/>
        <path id="DejaVuSans-75" d="M 544 1381 
L 544 3500 
L 1119 3500 
L 1119 1403 
Q 1119 906 1312 657 
Q 1506 409 1894 409 
Q 2359 409 2629 706 
Q 2900 1003 2900 1516 
L 2900 3500 
L 3475 3500 
L 3475 0 
L 2900 0 
L 2900 538 
Q 2691 219 2414 64 
Q 2138 -91 1772 -91 
Q 1169 -91 856 284 
Q 544 659 544 1381 
z
M 1991 3584 
L 1991 3584 
z
" transform="scale(0.015625)"/>
        <path id="DejaVuSans-79" d="M 2059 -325 
Q 1816 -950 1584 -1140 
Q 1353 -1331 966 -1331 
L 506 -1331 
L 506 -850 
L 844 -850 
Q 1081 -850 1212 -737 
Q 1344 -625 1503 -206 
L 1606 56 
L 191 3500 
L 800 3500 
L 1894 763 
L 2988 3500 
L 3597 3500 
L 2059 -325 
z
" transform="scale(0.015625)"/>
        <path id="DejaVuSans-76" d="M 191 3500 
L 800 3500 
L 1894 563 
L 2988 3500 
L 3597 3500 
L 2284 0 
L 1503 0 
L 191 3500 
z
" transform="scale(0.015625)"/>
        <path id="DejaVuSans-65" d="M 3597 1894 
L 3597 1613 
L 953 1613 
Q 991 1019 1311 708 
Q 1631 397 2203 397 
Q 2534 397 2845 478 
Q 3156 559 3463 722 
L 3463 178 
Q 3153 47 2828 -22 
Q 2503 -91 2169 -91 
Q 1331 -91 842 396 
Q 353 884 353 1716 
Q 353 2575 817 3079 
Q 1281 3584 2069 3584 
Q 2775 3584 3186 3129 
Q 3597 2675 3597 1894 
z
M 3022 2063 
Q 3016 2534 2758 2815 
Q 2500 3097 2075 3097 
Q 1594 3097 1305 2825 
Q 1016 2553 972 2059 
L 3022 2063 
z
" transform="scale(0.015625)"/>
        <path id="DejaVuSans-73" d="M 2834 3397 
L 2834 2853 
Q 2591 2978 2328 3040 
Q 2066 3103 1784 3103 
Q 1356 3103 1142 2972 
Q 928 2841 928 2578 
Q 928 2378 1081 2264 
Q 1234 2150 1697 2047 
L 1894 2003 
Q 2506 1872 2764 1633 
Q 3022 1394 3022 966 
Q 3022 478 2636 193 
Q 2250 -91 1575 -91 
Q 1294 -91 989 -36 
Q 684 19 347 128 
L 347 722 
Q 666 556 975 473 
Q 1284 391 1588 391 
Q 1994 391 2212 530 
Q 2431 669 2431 922 
Q 2431 1156 2273 1281 
Q 2116 1406 1581 1522 
L 1381 1569 
Q 847 1681 609 1914 
Q 372 2147 372 2553 
Q 372 3047 722 3315 
Q 1072 3584 1716 3584 
Q 2034 3584 2315 3537 
Q 2597 3491 2834 3397 
z
" transform="scale(0.015625)"/>
        <path id="DejaVuSans-61" d="M 2194 1759 
Q 1497 1759 1228 1600 
Q 959 1441 959 1056 
Q 959 750 1161 570 
Q 1363 391 1709 391 
Q 2188 391 2477 730 
Q 2766 1069 2766 1631 
L 2766 1759 
L 2194 1759 
z
M 3341 1997 
L 3341 0 
L 2766 0 
L 2766 531 
Q 2569 213 2275 61 
Q 1981 -91 1556 -91 
Q 1019 -91 701 211 
Q 384 513 384 1019 
Q 384 1609 779 1909 
Q 1175 2209 1959 2209 
L 2766 2209 
L 2766 2266 
Q 2766 2663 2505 2880 
Q 2244 3097 1772 3097 
Q 1472 3097 1187 3025 
Q 903 2953 641 2809 
L 641 3341 
Q 956 3463 1253 3523 
Q 1550 3584 1831 3584 
Q 2591 3584 2966 3190 
Q 3341 2797 3341 1997 
z
" transform="scale(0.015625)"/>
        <path id="DejaVuSans-6e" d="M 3513 2113 
L 3513 0 
L 2938 0 
L 2938 2094 
Q 2938 2591 2744 2837 
Q 2550 3084 2163 3084 
Q 1697 3084 1428 2787 
Q 1159 2491 1159 1978 
L 1159 0 
L 581 0 
L 581 3500 
L 1159 3500 
L 1159 2956 
Q 1366 3272 1645 3428 
Q 1925 3584 2291 3584 
Q 2894 3584 3203 3211 
Q 3513 2838 3513 2113 
z
" transform="scale(0.015625)"/>
        <path id="DejaVuSans-20" transform="scale(0.015625)"/>
        <path id="DejaVuSans-48" d="M 628 4666 
L 1259 4666 
L 1259 2753 
L 3553 2753 
L 3553 4666 
L 4184 4666 
L 4184 0 
L 3553 0 
L 3553 2222 
L 1259 2222 
L 1259 0 
L 628 0 
L 628 4666 
z
" transform="scale(0.015625)"/>
        <path id="DejaVuSans-69" d="M 603 3500 
L 1178 3500 
L 1178 0 
L 603 0 
L 603 3500 
z
M 603 4863 
L 1178 4863 
L 1178 4134 
L 603 4134 
L 603 4863 
z
" transform="scale(0.015625)"/>
        <path id="DejaVuSans-67" d="M 2906 1791 
Q 2906 2416 2648 2759 
Q 2391 3103 1925 3103 
Q 1463 3103 1205 2759 
Q 947 2416 947 1791 
Q 947 1169 1205 825 
Q 1463 481 1925 481 
Q 2391 481 2648 825 
Q 2906 1169 2906 1791 
z
M 3481 434 
Q 3481 -459 3084 -895 
Q 2688 -1331 1869 -1331 
Q 1566 -1331 1297 -1286 
Q 1028 -1241 775 -1147 
L 775 -588 
Q 1028 -725 1275 -790 
Q 1522 -856 1778 -856 
Q 2344 -856 2625 -561 
Q 2906 -266 2906 331 
L 2906 616 
Q 2728 306 2450 153 
Q 2172 0 1784 0 
Q 1141 0 747 490 
Q 353 981 353 1791 
Q 353 2603 747 3093 
Q 1141 3584 1784 3584 
Q 2172 3584 2450 3431 
Q 2728 3278 2906 2969 
L 2906 3500 
L 3481 3500 
L 3481 434 
z
" transform="scale(0.015625)"/>
        <path id="DejaVuSans-68" d="M 3513 2113 
L 3513 0 
L 2938 0 
L 2938 2094 
Q 2938 2591 2744 2837 
Q 2550 3084 2163 3084 
Q 1697 3084 1428 2787 
Q 1159 2491 1159 1978 
L 1159 0 
L 581 0 
L 581 4863 
L 1159 4863 
L 1159 2956 
Q 1366 3272 1645 3428 
Q 1925 3584 2291 3584 
Q 2894 3584 3203 3211 
Q 3513 2838 3513 2113 
z
" transform="scale(0.015625)"/>
        <path id="DejaVuSans-63" d="M 3122 3366 
L 3122 2828 
Q 2878 2963 2633 3030 
Q 2388 3097 2138 3097 
Q 1578 3097 1268 2742 
Q 959 2388 959 1747 
Q 959 1106 1268 751 
Q 1578 397 2138 397 
Q 2388 397 2633 464 
Q 2878 531 3122 666 
L 3122 134 
Q 2881 22 2623 -34 
Q 2366 -91 2075 -91 
Q 1284 -91 818 406 
Q 353 903 353 1747 
Q 353 2603 823 3093 
Q 1294 3584 2113 3584 
Q 2378 3584 2631 3529 
Q 2884 3475 3122 3366 
z
" transform="scale(0.015625)"/>
        <path id="DejaVuSans-6f" d="M 1959 3097 
Q 1497 3097 1228 2736 
Q 959 2375 959 1747 
Q 959 1119 1226 758 
Q 1494 397 1959 397 
Q 2419 397 2687 759 
Q 2956 1122 2956 1747 
Q 2956 2369 2687 2733 
Q 2419 3097 1959 3097 
z
M 1959 3584 
Q 2709 3584 3137 3096 
Q 3566 2609 3566 1747 
Q 3566 888 3137 398 
Q 2709 -91 1959 -91 
Q 1206 -91 779 398 
Q 353 888 353 1747 
Q 353 2609 779 3096 
Q 1206 3584 1959 3584 
z
" transform="scale(0.015625)"/>
        <path id="DejaVuSans-6c" d="M 603 4863 
L 1178 4863 
L 1178 0 
L 603 0 
L 603 4863 
z
" transform="scale(0.015625)"/>
       </defs>
       <use xlink:href="#DejaVuSans-53"/>
       <use xlink:href="#DejaVuSans-74" transform="translate(63.476562 0)"/>
       <use xlink:href="#DejaVuSans-75" transform="translate(102.685547 0)"/>
       <use xlink:href="#DejaVuSans-79" transform="translate(166.064453 0)"/>
       <use xlink:href="#DejaVuSans-76" transform="translate(225.244141 0)"/>
       <use xlink:href="#DejaVuSans-65" transform="translate(284.423828 0)"/>
       <use xlink:href="#DejaVuSans-73" transform="translate(345.947266 0)"/>
       <use xlink:href="#DejaVuSans-61" transform="translate(398.046875 0)"/>
       <use xlink:href="#DejaVuSans-6e" transform="translate(459.326172 0)"/>
       <use xlink:href="#DejaVuSans-74" transform="translate(522.705078 0)"/>
       <use xlink:href="#DejaVuSans-20" transform="translate(561.914062 0)"/>
       <use xlink:href="#DejaVuSans-48" transform="translate(593.701172 0)"/>
       <use xlink:href="#DejaVuSans-69" transform="translate(668.896484 0)"/>
       <use xlink:href="#DejaVuSans-67" transform="translate(696.679688 0)"/>
       <use xlink:href="#DejaVuSans-68" transform="translate(760.15625 0)"/>
       <use xlink:href="#DejaVuSans-20" transform="translate(823.535156 0)"/>
       <use xlink:href="#DejaVuSans-53" transform="translate(855.322266 0)"/>
       <use xlink:href="#DejaVuSans-63" transform="translate(918.798828 0)"/>
       <use xlink:href="#DejaVuSans-68" transform="translate(973.779297 0)"/>
       <use xlink:href="#DejaVuSans-6f" transform="translate(1037.158203 0)"/>
       <use xlink:href="#DejaVuSans-6f" transform="translate(1098.339844 0)"/>
       <use xlink:href="#DejaVuSans-6c" transform="translate(1159.521484 0)"/>
      </g>
     </g>
    </g>
    <g id="xtick_2">
     <g id="line2d_2">
      <g>
       <use xlink:href="#mbf7beaab03" x="150.264935" y="384.48" style="stroke: #000000; stroke-width: 0.8"/>
      </g>
     </g>
     <g id="text_2">
      <!-- Bronx High School of Science -->
      <g transform="translate(153.02431 537.905) rotate(-90) scale(0.1 -0.1)">
       <defs>
        <path id="DejaVuSans-42" d="M 1259 2228 
L 1259 519 
L 2272 519 
Q 2781 519 3026 730 
Q 3272 941 3272 1375 
Q 3272 1813 3026 2020 
Q 2781 2228 2272 2228 
L 1259 2228 
z
M 1259 4147 
L 1259 2741 
L 2194 2741 
Q 2656 2741 2882 2914 
Q 3109 3088 3109 3444 
Q 3109 3797 2882 3972 
Q 2656 4147 2194 4147 
L 1259 4147 
z
M 628 4666 
L 2241 4666 
Q 2963 4666 3353 4366 
Q 3744 4066 3744 3513 
Q 3744 3084 3544 2831 
Q 3344 2578 2956 2516 
Q 3422 2416 3680 2098 
Q 3938 1781 3938 1306 
Q 3938 681 3513 340 
Q 3088 0 2303 0 
L 628 0 
L 628 4666 
z
" transform="scale(0.015625)"/>
        <path id="DejaVuSans-72" d="M 2631 2963 
Q 2534 3019 2420 3045 
Q 2306 3072 2169 3072 
Q 1681 3072 1420 2755 
Q 1159 2438 1159 1844 
L 1159 0 
L 581 0 
L 581 3500 
L 1159 3500 
L 1159 2956 
Q 1341 3275 1631 3429 
Q 1922 3584 2338 3584 
Q 2397 3584 2469 3576 
Q 2541 3569 2628 3553 
L 2631 2963 
z
" transform="scale(0.015625)"/>
        <path id="DejaVuSans-78" d="M 3513 3500 
L 2247 1797 
L 3578 0 
L 2900 0 
L 1881 1375 
L 863 0 
L 184 0 
L 1544 1831 
L 300 3500 
L 978 3500 
L 1906 2253 
L 2834 3500 
L 3513 3500 
z
" transform="scale(0.015625)"/>
        <path id="DejaVuSans-66" d="M 2375 4863 
L 2375 4384 
L 1825 4384 
Q 1516 4384 1395 4259 
Q 1275 4134 1275 3809 
L 1275 3500 
L 2222 3500 
L 2222 3053 
L 1275 3053 
L 1275 0 
L 697 0 
L 697 3053 
L 147 3053 
L 147 3500 
L 697 3500 
L 697 3744 
Q 697 4328 969 4595 
Q 1241 4863 1831 4863 
L 2375 4863 
z
" transform="scale(0.015625)"/>
       </defs>
       <use xlink:href="#DejaVuSans-42"/>
       <use xlink:href="#DejaVuSans-72" transform="translate(68.603516 0)"/>
       <use xlink:href="#DejaVuSans-6f" transform="translate(107.466797 0)"/>
       <use xlink:href="#DejaVuSans-6e" transform="translate(168.648438 0)"/>
       <use xlink:href="#DejaVuSans-78" transform="translate(232.027344 0)"/>
       <use xlink:href="#DejaVuSans-20" transform="translate(291.207031 0)"/>
       <use xlink:href="#DejaVuSans-48" transform="translate(322.994141 0)"/>
       <use xlink:href="#DejaVuSans-69" transform="translate(398.189453 0)"/>
       <use xlink:href="#DejaVuSans-67" transform="translate(425.972656 0)"/>
       <use xlink:href="#DejaVuSans-68" transform="translate(489.449219 0)"/>
       <use xlink:href="#DejaVuSans-20" transform="translate(552.828125 0)"/>
       <use xlink:href="#DejaVuSans-53" transform="translate(584.615234 0)"/>
       <use xlink:href="#DejaVuSans-63" transform="translate(648.091797 0)"/>
       <use xlink:href="#DejaVuSans-68" transform="translate(703.072266 0)"/>
       <use xlink:href="#DejaVuSans-6f" transform="translate(766.451172 0)"/>
       <use xlink:href="#DejaVuSans-6f" transform="translate(827.632812 0)"/>
       <use xlink:href="#DejaVuSans-6c" transform="translate(888.814453 0)"/>
       <use xlink:href="#DejaVuSans-20" transform="translate(916.597656 0)"/>
       <use xlink:href="#DejaVuSans-6f" transform="translate(948.384766 0)"/>
       <use xlink:href="#DejaVuSans-66" transform="translate(1009.566406 0)"/>
       <use xlink:href="#DejaVuSans-20" transform="translate(1044.771484 0)"/>
       <use xlink:href="#DejaVuSans-53" transform="translate(1076.558594 0)"/>
       <use xlink:href="#DejaVuSans-63" transform="translate(1140.035156 0)"/>
       <use xlink:href="#DejaVuSans-69" transform="translate(1195.015625 0)"/>
       <use xlink:href="#DejaVuSans-65" transform="translate(1222.798828 0)"/>
       <use xlink:href="#DejaVuSans-6e" transform="translate(1284.322266 0)"/>
       <use xlink:href="#DejaVuSans-63" transform="translate(1347.701172 0)"/>
       <use xlink:href="#DejaVuSans-65" transform="translate(1402.681641 0)"/>
      </g>
     </g>
    </g>
    <g id="xtick_3">
     <g id="line2d_3">
      <g>
       <use xlink:href="#mbf7beaab03" x="191.674954" y="384.48" style="stroke: #000000; stroke-width: 0.8"/>
      </g>
     </g>
     <g id="text_3">
      <!-- Staten Island Technical High School -->
      <g transform="translate(194.434329 568.853438) rotate(-90) scale(0.1 -0.1)">
       <defs>
        <path id="DejaVuSans-49" d="M 628 4666 
L 1259 4666 
L 1259 0 
L 628 0 
L 628 4666 
z
" transform="scale(0.015625)"/>
        <path id="DejaVuSans-64" d="M 2906 2969 
L 2906 4863 
L 3481 4863 
L 3481 0 
L 2906 0 
L 2906 525 
Q 2725 213 2448 61 
Q 2172 -91 1784 -91 
Q 1150 -91 751 415 
Q 353 922 353 1747 
Q 353 2572 751 3078 
Q 1150 3584 1784 3584 
Q 2172 3584 2448 3432 
Q 2725 3281 2906 2969 
z
M 947 1747 
Q 947 1113 1208 752 
Q 1469 391 1925 391 
Q 2381 391 2643 752 
Q 2906 1113 2906 1747 
Q 2906 2381 2643 2742 
Q 2381 3103 1925 3103 
Q 1469 3103 1208 2742 
Q 947 2381 947 1747 
z
" transform="scale(0.015625)"/>
        <path id="DejaVuSans-54" d="M -19 4666 
L 3928 4666 
L 3928 4134 
L 2272 4134 
L 2272 0 
L 1638 0 
L 1638 4134 
L -19 4134 
L -19 4666 
z
" transform="scale(0.015625)"/>
       </defs>
       <use xlink:href="#DejaVuSans-53"/>
       <use xlink:href="#DejaVuSans-74" transform="translate(63.476562 0)"/>
       <use xlink:href="#DejaVuSans-61" transform="translate(102.685547 0)"/>
       <use xlink:href="#DejaVuSans-74" transform="translate(163.964844 0)"/>
       <use xlink:href="#DejaVuSans-65" transform="translate(203.173828 0)"/>
       <use xlink:href="#DejaVuSans-6e" transform="translate(264.697266 0)"/>
       <use xlink:href="#DejaVuSans-20" transform="translate(328.076172 0)"/>
       <use xlink:href="#DejaVuSans-49" transform="translate(359.863281 0)"/>
       <use xlink:href="#DejaVuSans-73" transform="translate(389.355469 0)"/>
       <use xlink:href="#DejaVuSans-6c" transform="translate(441.455078 0)"/>
       <use xlink:href="#DejaVuSans-61" transform="translate(469.238281 0)"/>
       <use xlink:href="#DejaVuSans-6e" transform="translate(530.517578 0)"/>
       <use xlink:href="#DejaVuSans-64" transform="translate(593.896484 0)"/>
       <use xlink:href="#DejaVuSans-20" transform="translate(657.373047 0)"/>
       <use xlink:href="#DejaVuSans-54" transform="translate(689.160156 0)"/>
       <use xlink:href="#DejaVuSans-65" transform="translate(733.244141 0)"/>
       <use xlink:href="#DejaVuSans-63" transform="translate(794.767578 0)"/>
       <use xlink:href="#DejaVuSans-68" transform="translate(849.748047 0)"/>
       <use xlink:href="#DejaVuSans-6e" transform="translate(913.126953 0)"/>
       <use xlink:href="#DejaVuSans-69" transform="translate(976.505859 0)"/>
       <use xlink:href="#DejaVuSans-63" transform="translate(1004.289062 0)"/>
       <use xlink:href="#DejaVuSans-61" transform="translate(1059.269531 0)"/>
       <use xlink:href="#DejaVuSans-6c" transform="translate(1120.548828 0)"/>
       <use xlink:href="#DejaVuSans-20" transform="translate(1148.332031 0)"/>
       <use xlink:href="#DejaVuSans-48" transform="translate(1180.119141 0)"/>
       <use xlink:href="#DejaVuSans-69" transform="translate(1255.314453 0)"/>
       <use xlink:href="#DejaVuSans-67" transform="translate(1283.097656 0)"/>
       <use xlink:href="#DejaVuSans-68" transform="translate(1346.574219 0)"/>
       <use xlink:href="#DejaVuSans-20" transform="translate(1409.953125 0)"/>
       <use xlink:href="#DejaVuSans-53" transform="translate(1441.740234 0)"/>
       <use xlink:href="#DejaVuSans-63" transform="translate(1505.216797 0)"/>
       <use xlink:href="#DejaVuSans-68" transform="translate(1560.197266 0)"/>
       <use xlink:href="#DejaVuSans-6f" transform="translate(1623.576172 0)"/>
       <use xlink:href="#DejaVuSans-6f" transform="translate(1684.757812 0)"/>
       <use xlink:href="#DejaVuSans-6c" transform="translate(1745.939453 0)"/>
      </g>
     </g>
    </g>
    <g id="xtick_4">
     <g id="line2d_4">
      <g>
       <use xlink:href="#mbf7beaab03" x="233.084972" y="384.48" style="stroke: #000000; stroke-width: 0.8"/>
      </g>
     </g>
     <g id="text_4">
      <!-- High School of American Studies at Lehman College -->
      <g transform="translate(235.844347 651.687813) rotate(-90) scale(0.1 -0.1)">
       <defs>
        <path id="DejaVuSans-41" d="M 2188 4044 
L 1331 1722 
L 3047 1722 
L 2188 4044 
z
M 1831 4666 
L 2547 4666 
L 4325 0 
L 3669 0 
L 3244 1197 
L 1141 1197 
L 716 0 
L 50 0 
L 1831 4666 
z
" transform="scale(0.015625)"/>
        <path id="DejaVuSans-6d" d="M 3328 2828 
Q 3544 3216 3844 3400 
Q 4144 3584 4550 3584 
Q 5097 3584 5394 3201 
Q 5691 2819 5691 2113 
L 5691 0 
L 5113 0 
L 5113 2094 
Q 5113 2597 4934 2840 
Q 4756 3084 4391 3084 
Q 3944 3084 3684 2787 
Q 3425 2491 3425 1978 
L 3425 0 
L 2847 0 
L 2847 2094 
Q 2847 2600 2669 2842 
Q 2491 3084 2119 3084 
Q 1678 3084 1418 2786 
Q 1159 2488 1159 1978 
L 1159 0 
L 581 0 
L 581 3500 
L 1159 3500 
L 1159 2956 
Q 1356 3278 1631 3431 
Q 1906 3584 2284 3584 
Q 2666 3584 2933 3390 
Q 3200 3197 3328 2828 
z
" transform="scale(0.015625)"/>
        <path id="DejaVuSans-4c" d="M 628 4666 
L 1259 4666 
L 1259 531 
L 3531 531 
L 3531 0 
L 628 0 
L 628 4666 
z
" transform="scale(0.015625)"/>
        <path id="DejaVuSans-43" d="M 4122 4306 
L 4122 3641 
Q 3803 3938 3442 4084 
Q 3081 4231 2675 4231 
Q 1875 4231 1450 3742 
Q 1025 3253 1025 2328 
Q 1025 1406 1450 917 
Q 1875 428 2675 428 
Q 3081 428 3442 575 
Q 3803 722 4122 1019 
L 4122 359 
Q 3791 134 3420 21 
Q 3050 -91 2638 -91 
Q 1578 -91 968 557 
Q 359 1206 359 2328 
Q 359 3453 968 4101 
Q 1578 4750 2638 4750 
Q 3056 4750 3426 4639 
Q 3797 4528 4122 4306 
z
" transform="scale(0.015625)"/>
       </defs>
       <use xlink:href="#DejaVuSans-48"/>
       <use xlink:href="#DejaVuSans-69" transform="translate(75.195312 0)"/>
       <use xlink:href="#DejaVuSans-67" transform="translate(102.978516 0)"/>
       <use xlink:href="#DejaVuSans-68" transform="translate(166.455078 0)"/>
       <use xlink:href="#DejaVuSans-20" transform="translate(229.833984 0)"/>
       <use xlink:href="#DejaVuSans-53" transform="translate(261.621094 0)"/>
       <use xlink:href="#DejaVuSans-63" transform="translate(325.097656 0)"/>
       <use xlink:href="#DejaVuSans-68" transform="translate(380.078125 0)"/>
       <use xlink:href="#DejaVuSans-6f" transform="translate(443.457031 0)"/>
       <use xlink:href="#DejaVuSans-6f" transform="translate(504.638672 0)"/>
       <use xlink:href="#DejaVuSans-6c" transform="translate(565.820312 0)"/>
       <use xlink:href="#DejaVuSans-20" transform="translate(593.603516 0)"/>
       <use xlink:href="#DejaVuSans-6f" transform="translate(625.390625 0)"/>
       <use xlink:href="#DejaVuSans-66" transform="translate(686.572266 0)"/>
       <use xlink:href="#DejaVuSans-20" transform="translate(721.777344 0)"/>
       <use xlink:href="#DejaVuSans-41" transform="translate(753.564453 0)"/>
       <use xlink:href="#DejaVuSans-6d" transform="translate(821.972656 0)"/>
       <use xlink:href="#DejaVuSans-65" transform="translate(919.384766 0)"/>
       <use xlink:href="#DejaVuSans-72" transform="translate(980.908203 0)"/>
       <use xlink:href="#DejaVuSans-69" transform="translate(1022.021484 0)"/>
       <use xlink:href="#DejaVuSans-63" transform="translate(1049.804688 0)"/>
       <use xlink:href="#DejaVuSans-61" transform="translate(1104.785156 0)"/>
       <use xlink:href="#DejaVuSans-6e" transform="translate(1166.064453 0)"/>
       <use xlink:href="#DejaVuSans-20" transform="translate(1229.443359 0)"/>
       <use xlink:href="#DejaVuSans-53" transform="translate(1261.230469 0)"/>
       <use xlink:href="#DejaVuSans-74" transform="translate(1324.707031 0)"/>
       <use xlink:href="#DejaVuSans-75" transform="translate(1363.916016 0)"/>
       <use xlink:href="#DejaVuSans-64" transform="translate(1427.294922 0)"/>
       <use xlink:href="#DejaVuSans-69" transform="translate(1490.771484 0)"/>
       <use xlink:href="#DejaVuSans-65" transform="translate(1518.554688 0)"/>
       <use xlink:href="#DejaVuSans-73" transform="translate(1580.078125 0)"/>
       <use xlink:href="#DejaVuSans-20" transform="translate(1632.177734 0)"/>
       <use xlink:href="#DejaVuSans-61" transform="translate(1663.964844 0)"/>
       <use xlink:href="#DejaVuSans-74" transform="translate(1725.244141 0)"/>
       <use xlink:href="#DejaVuSans-20" transform="translate(1764.453125 0)"/>
       <use xlink:href="#DejaVuSans-4c" transform="translate(1796.240234 0)"/>
       <use xlink:href="#DejaVuSans-65" transform="translate(1850.203125 0)"/>
       <use xlink:href="#DejaVuSans-68" transform="translate(1911.726562 0)"/>
       <use xlink:href="#DejaVuSans-6d" transform="translate(1975.105469 0)"/>
       <use xlink:href="#DejaVuSans-61" transform="translate(2072.517578 0)"/>
       <use xlink:href="#DejaVuSans-6e" transform="translate(2133.796875 0)"/>
       <use xlink:href="#DejaVuSans-20" transform="translate(2197.175781 0)"/>
       <use xlink:href="#DejaVuSans-43" transform="translate(2228.962891 0)"/>
       <use xlink:href="#DejaVuSans-6f" transform="translate(2298.787109 0)"/>
       <use xlink:href="#DejaVuSans-6c" transform="translate(2359.96875 0)"/>
       <use xlink:href="#DejaVuSans-6c" transform="translate(2387.751953 0)"/>
       <use xlink:href="#DejaVuSans-65" transform="translate(2415.535156 0)"/>
       <use xlink:href="#DejaVuSans-67" transform="translate(2477.058594 0)"/>
       <use xlink:href="#DejaVuSans-65" transform="translate(2540.535156 0)"/>
      </g>
     </g>
    </g>
    <g id="xtick_5">
     <g id="line2d_5">
      <g>
       <use xlink:href="#mbf7beaab03" x="274.494991" y="384.48" style="stroke: #000000; stroke-width: 0.8"/>
      </g>
     </g>
     <g id="text_5">
      <!-- Townsend Harris High School -->
      <g transform="translate(277.254366 535.972188) rotate(-90) scale(0.1 -0.1)">
       <defs>
        <path id="DejaVuSans-77" d="M 269 3500 
L 844 3500 
L 1563 769 
L 2278 3500 
L 2956 3500 
L 3675 769 
L 4391 3500 
L 4966 3500 
L 4050 0 
L 3372 0 
L 2619 2869 
L 1863 0 
L 1184 0 
L 269 3500 
z
" transform="scale(0.015625)"/>
       </defs>
       <use xlink:href="#DejaVuSans-54"/>
       <use xlink:href="#DejaVuSans-6f" transform="translate(44.083984 0)"/>
       <use xlink:href="#DejaVuSans-77" transform="translate(105.265625 0)"/>
       <use xlink:href="#DejaVuSans-6e" transform="translate(187.052734 0)"/>
       <use xlink:href="#DejaVuSans-73" transform="translate(250.431641 0)"/>
       <use xlink:href="#DejaVuSans-65" transform="translate(302.53125 0)"/>
       <use xlink:href="#DejaVuSans-6e" transform="translate(364.054688 0)"/>
       <use xlink:href="#DejaVuSans-64" transform="translate(427.433594 0)"/>
       <use xlink:href="#DejaVuSans-20" transform="translate(490.910156 0)"/>
       <use xlink:href="#DejaVuSans-48" transform="translate(522.697266 0)"/>
       <use xlink:href="#DejaVuSans-61" transform="translate(597.892578 0)"/>
       <use xlink:href="#DejaVuSans-72" transform="translate(659.171875 0)"/>
       <use xlink:href="#DejaVuSans-72" transform="translate(698.535156 0)"/>
       <use xlink:href="#DejaVuSans-69" transform="translate(739.648438 0)"/>
       <use xlink:href="#DejaVuSans-73" transform="translate(767.431641 0)"/>
       <use xlink:href="#DejaVuSans-20" transform="translate(819.53125 0)"/>
       <use xlink:href="#DejaVuSans-48" transform="translate(851.318359 0)"/>
       <use xlink:href="#DejaVuSans-69" transform="translate(926.513672 0)"/>
       <use xlink:href="#DejaVuSans-67" transform="translate(954.296875 0)"/>
       <use xlink:href="#DejaVuSans-68" transform="translate(1017.773438 0)"/>
       <use xlink:href="#DejaVuSans-20" transform="translate(1081.152344 0)"/>
       <use xlink:href="#DejaVuSans-53" transform="translate(1112.939453 0)"/>
       <use xlink:href="#DejaVuSans-63" transform="translate(1176.416016 0)"/>
       <use xlink:href="#DejaVuSans-68" transform="translate(1231.396484 0)"/>
       <use xlink:href="#DejaVuSans-6f" transform="translate(1294.775391 0)"/>
       <use xlink:href="#DejaVuSans-6f" transform="translate(1355.957031 0)"/>
       <use xlink:href="#DejaVuSans-6c" transform="translate(1417.138672 0)"/>
      </g>
     </g>
    </g>
    <g id="xtick_6">
     <g id="line2d_6">
      <g>
       <use xlink:href="#mbf7beaab03" x="315.905009" y="384.48" style="stroke: #000000; stroke-width: 0.8"/>
      </g>
     </g>
     <g id="text_6">
      <!-- Queens High School for the Sciences at York College -->
      <g transform="translate(318.664384 653.453438) rotate(-90) scale(0.1 -0.1)">
       <defs>
        <path id="DejaVuSans-51" d="M 2522 4238 
Q 1834 4238 1429 3725 
Q 1025 3213 1025 2328 
Q 1025 1447 1429 934 
Q 1834 422 2522 422 
Q 3209 422 3611 934 
Q 4013 1447 4013 2328 
Q 4013 3213 3611 3725 
Q 3209 4238 2522 4238 
z
M 3406 84 
L 4238 -825 
L 3475 -825 
L 2784 -78 
Q 2681 -84 2626 -87 
Q 2572 -91 2522 -91 
Q 1538 -91 948 567 
Q 359 1225 359 2328 
Q 359 3434 948 4092 
Q 1538 4750 2522 4750 
Q 3503 4750 4090 4092 
Q 4678 3434 4678 2328 
Q 4678 1516 4351 937 
Q 4025 359 3406 84 
z
" transform="scale(0.015625)"/>
        <path id="DejaVuSans-59" d="M -13 4666 
L 666 4666 
L 1959 2747 
L 3244 4666 
L 3922 4666 
L 2272 2222 
L 2272 0 
L 1638 0 
L 1638 2222 
L -13 4666 
z
" transform="scale(0.015625)"/>
        <path id="DejaVuSans-6b" d="M 581 4863 
L 1159 4863 
L 1159 1991 
L 2875 3500 
L 3609 3500 
L 1753 1863 
L 3688 0 
L 2938 0 
L 1159 1709 
L 1159 0 
L 581 0 
L 581 4863 
z
" transform="scale(0.015625)"/>
       </defs>
       <use xlink:href="#DejaVuSans-51"/>
       <use xlink:href="#DejaVuSans-75" transform="translate(78.710938 0)"/>
       <use xlink:href="#DejaVuSans-65" transform="translate(142.089844 0)"/>
       <use xlink:href="#DejaVuSans-65" transform="translate(203.613281 0)"/>
       <use xlink:href="#DejaVuSans-6e" transform="translate(265.136719 0)"/>
       <use xlink:href="#DejaVuSans-73" transform="translate(328.515625 0)"/>
       <use xlink:href="#DejaVuSans-20" transform="translate(380.615234 0)"/>
       <use xlink:href="#DejaVuSans-48" transform="translate(412.402344 0)"/>
       <use xlink:href="#DejaVuSans-69" transform="translate(487.597656 0)"/>
       <use xlink:href="#DejaVuSans-67" transform="translate(515.380859 0)"/>
       <use xlink:href="#DejaVuSans-68" transform="translate(578.857422 0)"/>
       <use xlink:href="#DejaVuSans-20" transform="translate(642.236328 0)"/>
       <use xlink:href="#DejaVuSans-53" transform="translate(674.023438 0)"/>
       <use xlink:href="#DejaVuSans-63" transform="translate(737.5 0)"/>
       <use xlink:href="#DejaVuSans-68" transform="translate(792.480469 0)"/>
       <use xlink:href="#DejaVuSans-6f" transform="translate(855.859375 0)"/>
       <use xlink:href="#DejaVuSans-6f" transform="translate(917.041016 0)"/>
       <use xlink:href="#DejaVuSans-6c" transform="translate(978.222656 0)"/>
       <use xlink:href="#DejaVuSans-20" transform="translate(1006.005859 0)"/>
       <use xlink:href="#DejaVuSans-66" transform="translate(1037.792969 0)"/>
       <use xlink:href="#DejaVuSans-6f" transform="translate(1072.998047 0)"/>
       <use xlink:href="#DejaVuSans-72" transform="translate(1134.179688 0)"/>
       <use xlink:href="#DejaVuSans-20" transform="translate(1175.292969 0)"/>
       <use xlink:href="#DejaVuSans-74" transform="translate(1207.080078 0)"/>
       <use xlink:href="#DejaVuSans-68" transform="translate(1246.289062 0)"/>
       <use xlink:href="#DejaVuSans-65" transform="translate(1309.667969 0)"/>
       <use xlink:href="#DejaVuSans-20" transform="translate(1371.191406 0)"/>
       <use xlink:href="#DejaVuSans-53" transform="translate(1402.978516 0)"/>
       <use xlink:href="#DejaVuSans-63" transform="translate(1466.455078 0)"/>
       <use xlink:href="#DejaVuSans-69" transform="translate(1521.435547 0)"/>
       <use xlink:href="#DejaVuSans-65" transform="translate(1549.21875 0)"/>
       <use xlink:href="#DejaVuSans-6e" transform="translate(1610.742188 0)"/>
       <use xlink:href="#DejaVuSans-63" transform="translate(1674.121094 0)"/>
       <use xlink:href="#DejaVuSans-65" transform="translate(1729.101562 0)"/>
       <use xlink:href="#DejaVuSans-73" transform="translate(1790.625 0)"/>
       <use xlink:href="#DejaVuSans-20" transform="translate(1842.724609 0)"/>
       <use xlink:href="#DejaVuSans-61" transform="translate(1874.511719 0)"/>
       <use xlink:href="#DejaVuSans-74" transform="translate(1935.791016 0)"/>
       <use xlink:href="#DejaVuSans-20" transform="translate(1975 0)"/>
       <use xlink:href="#DejaVuSans-59" transform="translate(2006.787109 0)"/>
       <use xlink:href="#DejaVuSans-6f" transform="translate(2054.621094 0)"/>
       <use xlink:href="#DejaVuSans-72" transform="translate(2115.802734 0)"/>
       <use xlink:href="#DejaVuSans-6b" transform="translate(2156.916016 0)"/>
       <use xlink:href="#DejaVuSans-20" transform="translate(2214.826172 0)"/>
       <use xlink:href="#DejaVuSans-43" transform="translate(2246.613281 0)"/>
       <use xlink:href="#DejaVuSans-6f" transform="translate(2316.4375 0)"/>
       <use xlink:href="#DejaVuSans-6c" transform="translate(2377.619141 0)"/>
       <use xlink:href="#DejaVuSans-6c" transform="translate(2405.402344 0)"/>
       <use xlink:href="#DejaVuSans-65" transform="translate(2433.185547 0)"/>
       <use xlink:href="#DejaVuSans-67" transform="translate(2494.708984 0)"/>
       <use xlink:href="#DejaVuSans-65" transform="translate(2558.185547 0)"/>
      </g>
     </g>
    </g>
    <g id="xtick_7">
     <g id="line2d_7">
      <g>
       <use xlink:href="#mbf7beaab03" x="357.315028" y="384.48" style="stroke: #000000; stroke-width: 0.8"/>
      </g>
     </g>
     <g id="text_7">
      <!-- Bard High School Early College -->
      <g transform="translate(360.074403 546.2175) rotate(-90) scale(0.1 -0.1)">
       <defs>
        <path id="DejaVuSans-45" d="M 628 4666 
L 3578 4666 
L 3578 4134 
L 1259 4134 
L 1259 2753 
L 3481 2753 
L 3481 2222 
L 1259 2222 
L 1259 531 
L 3634 531 
L 3634 0 
L 628 0 
L 628 4666 
z
" transform="scale(0.015625)"/>
       </defs>
       <use xlink:href="#DejaVuSans-42"/>
       <use xlink:href="#DejaVuSans-61" transform="translate(68.603516 0)"/>
       <use xlink:href="#DejaVuSans-72" transform="translate(129.882812 0)"/>
       <use xlink:href="#DejaVuSans-64" transform="translate(169.246094 0)"/>
       <use xlink:href="#DejaVuSans-20" transform="translate(232.722656 0)"/>
       <use xlink:href="#DejaVuSans-48" transform="translate(264.509766 0)"/>
       <use xlink:href="#DejaVuSans-69" transform="translate(339.705078 0)"/>
       <use xlink:href="#DejaVuSans-67" transform="translate(367.488281 0)"/>
       <use xlink:href="#DejaVuSans-68" transform="translate(430.964844 0)"/>
       <use xlink:href="#DejaVuSans-20" transform="translate(494.34375 0)"/>
       <use xlink:href="#DejaVuSans-53" transform="translate(526.130859 0)"/>
       <use xlink:href="#DejaVuSans-63" transform="translate(589.607422 0)"/>
       <use xlink:href="#DejaVuSans-68" transform="translate(644.587891 0)"/>
       <use xlink:href="#DejaVuSans-6f" transform="translate(707.966797 0)"/>
       <use xlink:href="#DejaVuSans-6f" transform="translate(769.148438 0)"/>
       <use xlink:href="#DejaVuSans-6c" transform="translate(830.330078 0)"/>
       <use xlink:href="#DejaVuSans-20" transform="translate(858.113281 0)"/>
       <use xlink:href="#DejaVuSans-45" transform="translate(889.900391 0)"/>
       <use xlink:href="#DejaVuSans-61" transform="translate(953.083984 0)"/>
       <use xlink:href="#DejaVuSans-72" transform="translate(1014.363281 0)"/>
       <use xlink:href="#DejaVuSans-6c" transform="translate(1055.476562 0)"/>
       <use xlink:href="#DejaVuSans-79" transform="translate(1083.259766 0)"/>
       <use xlink:href="#DejaVuSans-20" transform="translate(1142.439453 0)"/>
       <use xlink:href="#DejaVuSans-43" transform="translate(1174.226562 0)"/>
       <use xlink:href="#DejaVuSans-6f" transform="translate(1244.050781 0)"/>
       <use xlink:href="#DejaVuSans-6c" transform="translate(1305.232422 0)"/>
       <use xlink:href="#DejaVuSans-6c" transform="translate(1333.015625 0)"/>
       <use xlink:href="#DejaVuSans-65" transform="translate(1360.798828 0)"/>
       <use xlink:href="#DejaVuSans-67" transform="translate(1422.322266 0)"/>
       <use xlink:href="#DejaVuSans-65" transform="translate(1485.798828 0)"/>
      </g>
     </g>
    </g>
    <g id="xtick_8">
     <g id="line2d_8">
      <g>
       <use xlink:href="#mbf7beaab03" x="398.725046" y="384.48" style="stroke: #000000; stroke-width: 0.8"/>
      </g>
     </g>
     <g id="text_8">
      <!-- Brooklyn Technical High School -->
      <g transform="translate(401.484421 546.925313) rotate(-90) scale(0.1 -0.1)">
       <use xlink:href="#DejaVuSans-42"/>
       <use xlink:href="#DejaVuSans-72" transform="translate(68.603516 0)"/>
       <use xlink:href="#DejaVuSans-6f" transform="translate(107.466797 0)"/>
       <use xlink:href="#DejaVuSans-6f" transform="translate(168.648438 0)"/>
       <use xlink:href="#DejaVuSans-6b" transform="translate(229.830078 0)"/>
       <use xlink:href="#DejaVuSans-6c" transform="translate(287.740234 0)"/>
       <use xlink:href="#DejaVuSans-79" transform="translate(315.523438 0)"/>
       <use xlink:href="#DejaVuSans-6e" transform="translate(374.703125 0)"/>
       <use xlink:href="#DejaVuSans-20" transform="translate(438.082031 0)"/>
       <use xlink:href="#DejaVuSans-54" transform="translate(469.869141 0)"/>
       <use xlink:href="#DejaVuSans-65" transform="translate(513.953125 0)"/>
       <use xlink:href="#DejaVuSans-63" transform="translate(575.476562 0)"/>
       <use xlink:href="#DejaVuSans-68" transform="translate(630.457031 0)"/>
       <use xlink:href="#DejaVuSans-6e" transform="translate(693.835938 0)"/>
       <use xlink:href="#DejaVuSans-69" transform="translate(757.214844 0)"/>
       <use xlink:href="#DejaVuSans-63" transform="translate(784.998047 0)"/>
       <use xlink:href="#DejaVuSans-61" transform="translate(839.978516 0)"/>
       <use xlink:href="#DejaVuSans-6c" transform="translate(901.257812 0)"/>
       <use xlink:href="#DejaVuSans-20" transform="translate(929.041016 0)"/>
       <use xlink:href="#DejaVuSans-48" transform="translate(960.828125 0)"/>
       <use xlink:href="#DejaVuSans-69" transform="translate(1036.023438 0)"/>
       <use xlink:href="#DejaVuSans-67" transform="translate(1063.806641 0)"/>
       <use xlink:href="#DejaVuSans-68" transform="translate(1127.283203 0)"/>
       <use xlink:href="#DejaVuSans-20" transform="translate(1190.662109 0)"/>
       <use xlink:href="#DejaVuSans-53" transform="translate(1222.449219 0)"/>
       <use xlink:href="#DejaVuSans-63" transform="translate(1285.925781 0)"/>
       <use xlink:href="#DejaVuSans-68" transform="translate(1340.90625 0)"/>
       <use xlink:href="#DejaVuSans-6f" transform="translate(1404.285156 0)"/>
       <use xlink:href="#DejaVuSans-6f" transform="translate(1465.466797 0)"/>
       <use xlink:href="#DejaVuSans-6c" transform="translate(1526.648438 0)"/>
      </g>
     </g>
    </g>
    <g id="xtick_9">
     <g id="line2d_9">
      <g>
       <use xlink:href="#mbf7beaab03" x="440.135065" y="384.48" style="stroke: #000000; stroke-width: 0.8"/>
      </g>
     </g>
     <g id="text_9">
      <!-- Eleanor Roosevelt High School -->
      <g transform="translate(442.89444 544.012812) rotate(-90) scale(0.1 -0.1)">
       <defs>
        <path id="DejaVuSans-52" d="M 2841 2188 
Q 3044 2119 3236 1894 
Q 3428 1669 3622 1275 
L 4263 0 
L 3584 0 
L 2988 1197 
Q 2756 1666 2539 1819 
Q 2322 1972 1947 1972 
L 1259 1972 
L 1259 0 
L 628 0 
L 628 4666 
L 2053 4666 
Q 2853 4666 3247 4331 
Q 3641 3997 3641 3322 
Q 3641 2881 3436 2590 
Q 3231 2300 2841 2188 
z
M 1259 4147 
L 1259 2491 
L 2053 2491 
Q 2509 2491 2742 2702 
Q 2975 2913 2975 3322 
Q 2975 3731 2742 3939 
Q 2509 4147 2053 4147 
L 1259 4147 
z
" transform="scale(0.015625)"/>
       </defs>
       <use xlink:href="#DejaVuSans-45"/>
       <use xlink:href="#DejaVuSans-6c" transform="translate(63.183594 0)"/>
       <use xlink:href="#DejaVuSans-65" transform="translate(90.966797 0)"/>
       <use xlink:href="#DejaVuSans-61" transform="translate(152.490234 0)"/>
       <use xlink:href="#DejaVuSans-6e" transform="translate(213.769531 0)"/>
       <use xlink:href="#DejaVuSans-6f" transform="translate(277.148438 0)"/>
       <use xlink:href="#DejaVuSans-72" transform="translate(338.330078 0)"/>
       <use xlink:href="#DejaVuSans-20" transform="translate(379.443359 0)"/>
       <use xlink:href="#DejaVuSans-52" transform="translate(411.230469 0)"/>
       <use xlink:href="#DejaVuSans-6f" transform="translate(476.212891 0)"/>
       <use xlink:href="#DejaVuSans-6f" transform="translate(537.394531 0)"/>
       <use xlink:href="#DejaVuSans-73" transform="translate(598.576172 0)"/>
       <use xlink:href="#DejaVuSans-65" transform="translate(650.675781 0)"/>
       <use xlink:href="#DejaVuSans-76" transform="translate(712.199219 0)"/>
       <use xlink:href="#DejaVuSans-65" transform="translate(771.378906 0)"/>
       <use xlink:href="#DejaVuSans-6c" transform="translate(832.902344 0)"/>
       <use xlink:href="#DejaVuSans-74" transform="translate(860.685547 0)"/>
       <use xlink:href="#DejaVuSans-20" transform="translate(899.894531 0)"/>
       <use xlink:href="#DejaVuSans-48" transform="translate(931.681641 0)"/>
       <use xlink:href="#DejaVuSans-69" transform="translate(1006.876953 0)"/>
       <use xlink:href="#DejaVuSans-67" transform="translate(1034.660156 0)"/>
       <use xlink:href="#DejaVuSans-68" transform="translate(1098.136719 0)"/>
       <use xlink:href="#DejaVuSans-20" transform="translate(1161.515625 0)"/>
       <use xlink:href="#DejaVuSans-53" transform="translate(1193.302734 0)"/>
       <use xlink:href="#DejaVuSans-63" transform="translate(1256.779297 0)"/>
       <use xlink:href="#DejaVuSans-68" transform="translate(1311.759766 0)"/>
       <use xlink:href="#DejaVuSans-6f" transform="translate(1375.138672 0)"/>
       <use xlink:href="#DejaVuSans-6f" transform="translate(1436.320312 0)"/>
       <use xlink:href="#DejaVuSans-6c" transform="translate(1497.501953 0)"/>
      </g>
     </g>
    </g>
    <g id="xtick_10">
     <g id="line2d_10">
      <g>
       <use xlink:href="#mbf7beaab03" x="481.545083" y="384.48" style="stroke: #000000; stroke-width: 0.8"/>
      </g>
     </g>
     <g id="text_10">
      <!-- High School for Mathematics, Science, and Engineering at City College -->
      <g transform="translate(484.304458 745.359688) rotate(-90) scale(0.1 -0.1)">
       <defs>
        <path id="DejaVuSans-4d" d="M 628 4666 
L 1569 4666 
L 2759 1491 
L 3956 4666 
L 4897 4666 
L 4897 0 
L 4281 0 
L 4281 4097 
L 3078 897 
L 2444 897 
L 1241 4097 
L 1241 0 
L 628 0 
L 628 4666 
z
" transform="scale(0.015625)"/>
        <path id="DejaVuSans-2c" d="M 750 794 
L 1409 794 
L 1409 256 
L 897 -744 
L 494 -744 
L 750 256 
L 750 794 
z
" transform="scale(0.015625)"/>
       </defs>
       <use xlink:href="#DejaVuSans-48"/>
       <use xlink:href="#DejaVuSans-69" transform="translate(75.195312 0)"/>
       <use xlink:href="#DejaVuSans-67" transform="translate(102.978516 0)"/>
       <use xlink:href="#DejaVuSans-68" transform="translate(166.455078 0)"/>
       <use xlink:href="#DejaVuSans-20" transform="translate(229.833984 0)"/>
       <use xlink:href="#DejaVuSans-53" transform="translate(261.621094 0)"/>
       <use xlink:href="#DejaVuSans-63" transform="translate(325.097656 0)"/>
       <use xlink:href="#DejaVuSans-68" transform="translate(380.078125 0)"/>
       <use xlink:href="#DejaVuSans-6f" transform="translate(443.457031 0)"/>
       <use xlink:href="#DejaVuSans-6f" transform="translate(504.638672 0)"/>
       <use xlink:href="#DejaVuSans-6c" transform="translate(565.820312 0)"/>
       <use xlink:href="#DejaVuSans-20" transform="translate(593.603516 0)"/>
       <use xlink:href="#DejaVuSans-66" transform="translate(625.390625 0)"/>
       <use xlink:href="#DejaVuSans-6f" transform="translate(660.595703 0)"/>
       <use xlink:href="#DejaVuSans-72" transform="translate(721.777344 0)"/>
       <use xlink:href="#DejaVuSans-20" transform="translate(762.890625 0)"/>
       <use xlink:href="#DejaVuSans-4d" transform="translate(794.677734 0)"/>
       <use xlink:href="#DejaVuSans-61" transform="translate(880.957031 0)"/>
       <use xlink:href="#DejaVuSans-74" transform="translate(942.236328 0)"/>
       <use xlink:href="#DejaVuSans-68" transform="translate(981.445312 0)"/>
       <use xlink:href="#DejaVuSans-65" transform="translate(1044.824219 0)"/>
       <use xlink:href="#DejaVuSans-6d" transform="translate(1106.347656 0)"/>
       <use xlink:href="#DejaVuSans-61" transform="translate(1203.759766 0)"/>
       <use xlink:href="#DejaVuSans-74" transform="translate(1265.039062 0)"/>
       <use xlink:href="#DejaVuSans-69" transform="translate(1304.248047 0)"/>
       <use xlink:href="#DejaVuSans-63" transform="translate(1332.03125 0)"/>
       <use xlink:href="#DejaVuSans-73" transform="translate(1387.011719 0)"/>
       <use xlink:href="#DejaVuSans-2c" transform="translate(1439.111328 0)"/>
       <use xlink:href="#DejaVuSans-20" transform="translate(1470.898438 0)"/>
       <use xlink:href="#DejaVuSans-53" transform="translate(1502.685547 0)"/>
       <use xlink:href="#DejaVuSans-63" transform="translate(1566.162109 0)"/>
       <use xlink:href="#DejaVuSans-69" transform="translate(1621.142578 0)"/>
       <use xlink:href="#DejaVuSans-65" transform="translate(1648.925781 0)"/>
       <use xlink:href="#DejaVuSans-6e" transform="translate(1710.449219 0)"/>
       <use xlink:href="#DejaVuSans-63" transform="translate(1773.828125 0)"/>
       <use xlink:href="#DejaVuSans-65" transform="translate(1828.808594 0)"/>
       <use xlink:href="#DejaVuSans-2c" transform="translate(1890.332031 0)"/>
       <use xlink:href="#DejaVuSans-20" transform="translate(1922.119141 0)"/>
       <use xlink:href="#DejaVuSans-61" transform="translate(1953.90625 0)"/>
       <use xlink:href="#DejaVuSans-6e" transform="translate(2015.185547 0)"/>
       <use xlink:href="#DejaVuSans-64" transform="translate(2078.564453 0)"/>
       <use xlink:href="#DejaVuSans-20" transform="translate(2142.041016 0)"/>
       <use xlink:href="#DejaVuSans-45" transform="translate(2173.828125 0)"/>
       <use xlink:href="#DejaVuSans-6e" transform="translate(2237.011719 0)"/>
       <use xlink:href="#DejaVuSans-67" transform="translate(2300.390625 0)"/>
       <use xlink:href="#DejaVuSans-69" transform="translate(2363.867188 0)"/>
       <use xlink:href="#DejaVuSans-6e" transform="translate(2391.650391 0)"/>
       <use xlink:href="#DejaVuSans-65" transform="translate(2455.029297 0)"/>
       <use xlink:href="#DejaVuSans-65" transform="translate(2516.552734 0)"/>
       <use xlink:href="#DejaVuSans-72" transform="translate(2578.076172 0)"/>
       <use xlink:href="#DejaVuSans-69" transform="translate(2619.189453 0)"/>
       <use xlink:href="#DejaVuSans-6e" transform="translate(2646.972656 0)"/>
       <use xlink:href="#DejaVuSans-67" transform="translate(2710.351562 0)"/>
       <use xlink:href="#DejaVuSans-20" transform="translate(2773.828125 0)"/>
       <use xlink:href="#DejaVuSans-61" transform="translate(2805.615234 0)"/>
       <use xlink:href="#DejaVuSans-74" transform="translate(2866.894531 0)"/>
       <use xlink:href="#DejaVuSans-20" transform="translate(2906.103516 0)"/>
       <use xlink:href="#DejaVuSans-43" transform="translate(2937.890625 0)"/>
       <use xlink:href="#DejaVuSans-69" transform="translate(3007.714844 0)"/>
       <use xlink:href="#DejaVuSans-74" transform="translate(3035.498047 0)"/>
       <use xlink:href="#DejaVuSans-79" transform="translate(3074.707031 0)"/>
       <use xlink:href="#DejaVuSans-20" transform="translate(3133.886719 0)"/>
       <use xlink:href="#DejaVuSans-43" transform="translate(3165.673828 0)"/>
       <use xlink:href="#DejaVuSans-6f" transform="translate(3235.498047 0)"/>
       <use xlink:href="#DejaVuSans-6c" transform="translate(3296.679688 0)"/>
       <use xlink:href="#DejaVuSans-6c" transform="translate(3324.462891 0)"/>
       <use xlink:href="#DejaVuSans-65" transform="translate(3352.246094 0)"/>
       <use xlink:href="#DejaVuSans-67" transform="translate(3413.769531 0)"/>
       <use xlink:href="#DejaVuSans-65" transform="translate(3477.246094 0)"/>
      </g>
     </g>
    </g>
    <g id="text_11">
     <!-- School Name -->
     <g transform="translate(262.259375 756.958125) scale(0.1 -0.1)">
      <defs>
       <path id="DejaVuSans-4e" d="M 628 4666 
L 1478 4666 
L 3547 763 
L 3547 4666 
L 4159 4666 
L 4159 0 
L 3309 0 
L 1241 3903 
L 1241 0 
L 628 0 
L 628 4666 
z
" transform="scale(0.015625)"/>
      </defs>
      <use xlink:href="#DejaVuSans-53"/>
      <use xlink:href="#DejaVuSans-63" transform="translate(63.476562 0)"/>
      <use xlink:href="#DejaVuSans-68" transform="translate(118.457031 0)"/>
      <use xlink:href="#DejaVuSans-6f" transform="translate(181.835938 0)"/>
      <use xlink:href="#DejaVuSans-6f" transform="translate(243.017578 0)"/>
      <use xlink:href="#DejaVuSans-6c" transform="translate(304.199219 0)"/>
      <use xlink:href="#DejaVuSans-20" transform="translate(331.982422 0)"/>
      <use xlink:href="#DejaVuSans-4e" transform="translate(363.769531 0)"/>
      <use xlink:href="#DejaVuSans-61" transform="translate(438.574219 0)"/>
      <use xlink:href="#DejaVuSans-6d" transform="translate(499.853516 0)"/>
      <use xlink:href="#DejaVuSans-65" transform="translate(597.265625 0)"/>
     </g>
    </g>
   </g>
   <g id="matplotlib.axis_2">
    <g id="ytick_1">
     <g id="line2d_11">
      <defs>
       <path id="m1ec0c61cad" d="M 0 0 
L -3.5 0 
" style="stroke: #000000; stroke-width: 0.8"/>
      </defs>
      <g>
       <use xlink:href="#m1ec0c61cad" x="72" y="384.48" style="stroke: #000000; stroke-width: 0.8"/>
      </g>
     </g>
     <g id="text_12">
      <!-- 0 -->
      <g transform="translate(58.6375 388.279219) scale(0.1 -0.1)">
       <defs>
        <path id="DejaVuSans-30" d="M 2034 4250 
Q 1547 4250 1301 3770 
Q 1056 3291 1056 2328 
Q 1056 1369 1301 889 
Q 1547 409 2034 409 
Q 2525 409 2770 889 
Q 3016 1369 3016 2328 
Q 3016 3291 2770 3770 
Q 2525 4250 2034 4250 
z
M 2034 4750 
Q 2819 4750 3233 4129 
Q 3647 3509 3647 2328 
Q 3647 1150 3233 529 
Q 2819 -91 2034 -91 
Q 1250 -91 836 529 
Q 422 1150 422 2328 
Q 422 3509 836 4129 
Q 1250 4750 2034 4750 
z
" transform="scale(0.015625)"/>
       </defs>
       <use xlink:href="#DejaVuSans-30"/>
      </g>
     </g>
    </g>
    <g id="ytick_2">
     <g id="line2d_12">
      <g>
       <use xlink:href="#m1ec0c61cad" x="72" y="347.539701" style="stroke: #000000; stroke-width: 0.8"/>
      </g>
     </g>
     <g id="text_13">
      <!-- 250 -->
      <g transform="translate(45.9125 351.33892) scale(0.1 -0.1)">
       <defs>
        <path id="DejaVuSans-32" d="M 1228 531 
L 3431 531 
L 3431 0 
L 469 0 
L 469 531 
Q 828 903 1448 1529 
Q 2069 2156 2228 2338 
Q 2531 2678 2651 2914 
Q 2772 3150 2772 3378 
Q 2772 3750 2511 3984 
Q 2250 4219 1831 4219 
Q 1534 4219 1204 4116 
Q 875 4013 500 3803 
L 500 4441 
Q 881 4594 1212 4672 
Q 1544 4750 1819 4750 
Q 2544 4750 2975 4387 
Q 3406 4025 3406 3419 
Q 3406 3131 3298 2873 
Q 3191 2616 2906 2266 
Q 2828 2175 2409 1742 
Q 1991 1309 1228 531 
z
" transform="scale(0.015625)"/>
        <path id="DejaVuSans-35" d="M 691 4666 
L 3169 4666 
L 3169 4134 
L 1269 4134 
L 1269 2991 
Q 1406 3038 1543 3061 
Q 1681 3084 1819 3084 
Q 2600 3084 3056 2656 
Q 3513 2228 3513 1497 
Q 3513 744 3044 326 
Q 2575 -91 1722 -91 
Q 1428 -91 1123 -41 
Q 819 9 494 109 
L 494 744 
Q 775 591 1075 516 
Q 1375 441 1709 441 
Q 2250 441 2565 725 
Q 2881 1009 2881 1497 
Q 2881 1984 2565 2268 
Q 2250 2553 1709 2553 
Q 1456 2553 1204 2497 
Q 953 2441 691 2322 
L 691 4666 
z
" transform="scale(0.015625)"/>
       </defs>
       <use xlink:href="#DejaVuSans-32"/>
       <use xlink:href="#DejaVuSans-35" transform="translate(63.623047 0)"/>
       <use xlink:href="#DejaVuSans-30" transform="translate(127.246094 0)"/>
      </g>
     </g>
    </g>
    <g id="ytick_3">
     <g id="line2d_13">
      <g>
       <use xlink:href="#m1ec0c61cad" x="72" y="310.599403" style="stroke: #000000; stroke-width: 0.8"/>
      </g>
     </g>
     <g id="text_14">
      <!-- 500 -->
      <g transform="translate(45.9125 314.398622) scale(0.1 -0.1)">
       <use xlink:href="#DejaVuSans-35"/>
       <use xlink:href="#DejaVuSans-30" transform="translate(63.623047 0)"/>
       <use xlink:href="#DejaVuSans-30" transform="translate(127.246094 0)"/>
      </g>
     </g>
    </g>
    <g id="ytick_4">
     <g id="line2d_14">
      <g>
       <use xlink:href="#m1ec0c61cad" x="72" y="273.659104" style="stroke: #000000; stroke-width: 0.8"/>
      </g>
     </g>
     <g id="text_15">
      <!-- 750 -->
      <g transform="translate(45.9125 277.458323) scale(0.1 -0.1)">
       <defs>
        <path id="DejaVuSans-37" d="M 525 4666 
L 3525 4666 
L 3525 4397 
L 1831 0 
L 1172 0 
L 2766 4134 
L 525 4134 
L 525 4666 
z
" transform="scale(0.015625)"/>
       </defs>
       <use xlink:href="#DejaVuSans-37"/>
       <use xlink:href="#DejaVuSans-35" transform="translate(63.623047 0)"/>
       <use xlink:href="#DejaVuSans-30" transform="translate(127.246094 0)"/>
      </g>
     </g>
    </g>
    <g id="ytick_5">
     <g id="line2d_15">
      <g>
       <use xlink:href="#m1ec0c61cad" x="72" y="236.718806" style="stroke: #000000; stroke-width: 0.8"/>
      </g>
     </g>
     <g id="text_16">
      <!-- 1000 -->
      <g transform="translate(39.55 240.518025) scale(0.1 -0.1)">
       <defs>
        <path id="DejaVuSans-31" d="M 794 531 
L 1825 531 
L 1825 4091 
L 703 3866 
L 703 4441 
L 1819 4666 
L 2450 4666 
L 2450 531 
L 3481 531 
L 3481 0 
L 794 0 
L 794 531 
z
" transform="scale(0.015625)"/>
       </defs>
       <use xlink:href="#DejaVuSans-31"/>
       <use xlink:href="#DejaVuSans-30" transform="translate(63.623047 0)"/>
       <use xlink:href="#DejaVuSans-30" transform="translate(127.246094 0)"/>
       <use xlink:href="#DejaVuSans-30" transform="translate(190.869141 0)"/>
      </g>
     </g>
    </g>
    <g id="ytick_6">
     <g id="line2d_16">
      <g>
       <use xlink:href="#m1ec0c61cad" x="72" y="199.778507" style="stroke: #000000; stroke-width: 0.8"/>
      </g>
     </g>
     <g id="text_17">
      <!-- 1250 -->
      <g transform="translate(39.55 203.577726) scale(0.1 -0.1)">
       <use xlink:href="#DejaVuSans-31"/>
       <use xlink:href="#DejaVuSans-32" transform="translate(63.623047 0)"/>
       <use xlink:href="#DejaVuSans-35" transform="translate(127.246094 0)"/>
       <use xlink:href="#DejaVuSans-30" transform="translate(190.869141 0)"/>
      </g>
     </g>
    </g>
    <g id="ytick_7">
     <g id="line2d_17">
      <g>
       <use xlink:href="#m1ec0c61cad" x="72" y="162.838209" style="stroke: #000000; stroke-width: 0.8"/>
      </g>
     </g>
     <g id="text_18">
      <!-- 1500 -->
      <g transform="translate(39.55 166.637428) scale(0.1 -0.1)">
       <use xlink:href="#DejaVuSans-31"/>
       <use xlink:href="#DejaVuSans-35" transform="translate(63.623047 0)"/>
       <use xlink:href="#DejaVuSans-30" transform="translate(127.246094 0)"/>
       <use xlink:href="#DejaVuSans-30" transform="translate(190.869141 0)"/>
      </g>
     </g>
    </g>
    <g id="ytick_8">
     <g id="line2d_18">
      <g>
       <use xlink:href="#m1ec0c61cad" x="72" y="125.89791" style="stroke: #000000; stroke-width: 0.8"/>
      </g>
     </g>
     <g id="text_19">
      <!-- 1750 -->
      <g transform="translate(39.55 129.697129) scale(0.1 -0.1)">
       <use xlink:href="#DejaVuSans-31"/>
       <use xlink:href="#DejaVuSans-37" transform="translate(63.623047 0)"/>
       <use xlink:href="#DejaVuSans-35" transform="translate(127.246094 0)"/>
       <use xlink:href="#DejaVuSans-30" transform="translate(190.869141 0)"/>
      </g>
     </g>
    </g>
    <g id="ytick_9">
     <g id="line2d_19">
      <g>
       <use xlink:href="#m1ec0c61cad" x="72" y="88.957612" style="stroke: #000000; stroke-width: 0.8"/>
      </g>
     </g>
     <g id="text_20">
      <!-- 2000 -->
      <g transform="translate(39.55 92.756831) scale(0.1 -0.1)">
       <use xlink:href="#DejaVuSans-32"/>
       <use xlink:href="#DejaVuSans-30" transform="translate(63.623047 0)"/>
       <use xlink:href="#DejaVuSans-30" transform="translate(127.246094 0)"/>
       <use xlink:href="#DejaVuSans-30" transform="translate(190.869141 0)"/>
      </g>
     </g>
    </g>
    <g id="text_21">
     <!-- Total SAT Score -->
     <g transform="translate(33.470312 256.371719) rotate(-90) scale(0.1 -0.1)">
      <use xlink:href="#DejaVuSans-54"/>
      <use xlink:href="#DejaVuSans-6f" transform="translate(44.083984 0)"/>
      <use xlink:href="#DejaVuSans-74" transform="translate(105.265625 0)"/>
      <use xlink:href="#DejaVuSans-61" transform="translate(144.474609 0)"/>
      <use xlink:href="#DejaVuSans-6c" transform="translate(205.753906 0)"/>
      <use xlink:href="#DejaVuSans-20" transform="translate(233.537109 0)"/>
      <use xlink:href="#DejaVuSans-53" transform="translate(265.324219 0)"/>
      <use xlink:href="#DejaVuSans-41" transform="translate(330.675781 0)"/>
      <use xlink:href="#DejaVuSans-54" transform="translate(391.333984 0)"/>
      <use xlink:href="#DejaVuSans-20" transform="translate(452.417969 0)"/>
      <use xlink:href="#DejaVuSans-53" transform="translate(484.205078 0)"/>
      <use xlink:href="#DejaVuSans-63" transform="translate(547.681641 0)"/>
      <use xlink:href="#DejaVuSans-6f" transform="translate(602.662109 0)"/>
      <use xlink:href="#DejaVuSans-72" transform="translate(663.84375 0)"/>
      <use xlink:href="#DejaVuSans-65" transform="translate(702.707031 0)"/>
     </g>
    </g>
   </g>
   <g id="patch_13">
    <path d="M 72 384.48 
L 72 51.84 
" style="fill: none; stroke: #000000; stroke-width: 0.8; stroke-linejoin: miter; stroke-linecap: square"/>
   </g>
   <g id="patch_14">
    <path d="M 518.4 384.48 
L 518.4 51.84 
" style="fill: none; stroke: #000000; stroke-width: 0.8; stroke-linejoin: miter; stroke-linecap: square"/>
   </g>
   <g id="patch_15">
    <path d="M 72 384.48 
L 518.4 384.48 
" style="fill: none; stroke: #000000; stroke-width: 0.8; stroke-linejoin: miter; stroke-linecap: square"/>
   </g>
   <g id="patch_16">
    <path d="M 72 51.84 
L 518.4 51.84 
" style="fill: none; stroke: #000000; stroke-width: 0.8; stroke-linejoin: miter; stroke-linecap: square"/>
   </g>
   <g id="text_22">
    <!-- Top 10 Schools by Total SAT Score -->
    <g transform="translate(193.5525 45.84) scale(0.12 -0.12)">
     <defs>
      <path id="DejaVuSans-70" d="M 1159 525 
L 1159 -1331 
L 581 -1331 
L 581 3500 
L 1159 3500 
L 1159 2969 
Q 1341 3281 1617 3432 
Q 1894 3584 2278 3584 
Q 2916 3584 3314 3078 
Q 3713 2572 3713 1747 
Q 3713 922 3314 415 
Q 2916 -91 2278 -91 
Q 1894 -91 1617 61 
Q 1341 213 1159 525 
z
M 3116 1747 
Q 3116 2381 2855 2742 
Q 2594 3103 2138 3103 
Q 1681 3103 1420 2742 
Q 1159 2381 1159 1747 
Q 1159 1113 1420 752 
Q 1681 391 2138 391 
Q 2594 391 2855 752 
Q 3116 1113 3116 1747 
z
" transform="scale(0.015625)"/>
      <path id="DejaVuSans-62" d="M 3116 1747 
Q 3116 2381 2855 2742 
Q 2594 3103 2138 3103 
Q 1681 3103 1420 2742 
Q 1159 2381 1159 1747 
Q 1159 1113 1420 752 
Q 1681 391 2138 391 
Q 2594 391 2855 752 
Q 3116 1113 3116 1747 
z
M 1159 2969 
Q 1341 3281 1617 3432 
Q 1894 3584 2278 3584 
Q 2916 3584 3314 3078 
Q 3713 2572 3713 1747 
Q 3713 922 3314 415 
Q 2916 -91 2278 -91 
Q 1894 -91 1617 61 
Q 1341 213 1159 525 
L 1159 0 
L 581 0 
L 581 4863 
L 1159 4863 
L 1159 2969 
z
" transform="scale(0.015625)"/>
     </defs>
     <use xlink:href="#DejaVuSans-54"/>
     <use xlink:href="#DejaVuSans-6f" transform="translate(44.083984 0)"/>
     <use xlink:href="#DejaVuSans-70" transform="translate(105.265625 0)"/>
     <use xlink:href="#DejaVuSans-20" transform="translate(168.742188 0)"/>
     <use xlink:href="#DejaVuSans-31" transform="translate(200.529297 0)"/>
     <use xlink:href="#DejaVuSans-30" transform="translate(264.152344 0)"/>
     <use xlink:href="#DejaVuSans-20" transform="translate(327.775391 0)"/>
     <use xlink:href="#DejaVuSans-53" transform="translate(359.5625 0)"/>
     <use xlink:href="#DejaVuSans-63" transform="translate(423.039062 0)"/>
     <use xlink:href="#DejaVuSans-68" transform="translate(478.019531 0)"/>
     <use xlink:href="#DejaVuSans-6f" transform="translate(541.398438 0)"/>
     <use xlink:href="#DejaVuSans-6f" transform="translate(602.580078 0)"/>
     <use xlink:href="#DejaVuSans-6c" transform="translate(663.761719 0)"/>
     <use xlink:href="#DejaVuSans-73" transform="translate(691.544922 0)"/>
     <use xlink:href="#DejaVuSans-20" transform="translate(743.644531 0)"/>
     <use xlink:href="#DejaVuSans-62" transform="translate(775.431641 0)"/>
     <use xlink:href="#DejaVuSans-79" transform="translate(838.908203 0)"/>
     <use xlink:href="#DejaVuSans-20" transform="translate(898.087891 0)"/>
     <use xlink:href="#DejaVuSans-54" transform="translate(929.875 0)"/>
     <use xlink:href="#DejaVuSans-6f" transform="translate(973.958984 0)"/>
     <use xlink:href="#DejaVuSans-74" transform="translate(1035.140625 0)"/>
     <use xlink:href="#DejaVuSans-61" transform="translate(1074.349609 0)"/>
     <use xlink:href="#DejaVuSans-6c" transform="translate(1135.628906 0)"/>
     <use xlink:href="#DejaVuSans-20" transform="translate(1163.412109 0)"/>
     <use xlink:href="#DejaVuSans-53" transform="translate(1195.199219 0)"/>
     <use xlink:href="#DejaVuSans-41" transform="translate(1260.550781 0)"/>
     <use xlink:href="#DejaVuSans-54" transform="translate(1321.208984 0)"/>
     <use xlink:href="#DejaVuSans-20" transform="translate(1382.292969 0)"/>
     <use xlink:href="#DejaVuSans-53" transform="translate(1414.080078 0)"/>
     <use xlink:href="#DejaVuSans-63" transform="translate(1477.556641 0)"/>
     <use xlink:href="#DejaVuSans-6f" transform="translate(1532.537109 0)"/>
     <use xlink:href="#DejaVuSans-72" transform="translate(1593.71875 0)"/>
     <use xlink:href="#DejaVuSans-65" transform="translate(1632.582031 0)"/>
    </g>
   </g>
  </g>
 </g>
 <defs>
  <clipPath id="pec1784dbe4">
   <rect x="72" y="51.84" width="446.4" height="332.64"/>
  </clipPath>
 </defs>
</svg>
